<?xml version="1.0" encoding="utf-8"?>
<!-- Generator: Adobe Illustrator 15.0.0, SVG Export Plug-In . SVG Version: 6.00 Build 0)  -->
<!DOCTYPE svg PUBLIC "-//W3C//DTD SVG 1.1 Tiny//EN" "http://www.w3.org/Graphics/SVG/1.1/DTD/svg11-tiny.dtd">
<svg version="1.1" baseProfile="tiny" id="Layer_2" xmlns="http://www.w3.org/2000/svg" xmlns:xlink="http://www.w3.org/1999/xlink"
	 x="0px" y="0px" width="128px" height="128px" viewBox="0 0 128 128" xml:space="preserve">
<g>
	<path fill="#FFFFFF" stroke="#7CC040" stroke-width="7.9394" stroke-miterlimit="10" d="M123.349,74.021
		c0.024-1.144,0-2.295-0.12-3.456l-6.939-1.938c-0.543-2.395-1.475-4.598-2.697-6.577l3.58-6.24c-0.724-0.9-1.484-1.772-2.311-2.572
		l-6.568,2.977c-1.895-1.435-4.018-2.553-6.288-3.304l-1.268-7.092c-1.126-0.223-2.273-0.365-3.435-0.448l-3.108,6.484
		c-1.144,0.057-2.294,0.178-3.448,0.424c-1.215,0.259-2.371,0.636-3.49,1.081l-5.515-4.605c-1.023,0.562-1.998,1.187-2.934,1.863
		l1.783,6.949c-1.755,1.627-3.229,3.52-4.355,5.616l-7.154,0.016c-0.421,1.081-0.759,2.196-1.047,3.329l5.809,4.159
		c-0.294,2.312-0.233,4.701,0.267,7.11l-5.457,4.601c0.376,1.116,0.83,2.188,1.334,3.227l7.121-0.544
		c1.306,2.025,2.914,3.809,4.774,5.272l-1.223,7.026c0.995,0.607,2.028,1.146,3.092,1.626l5.1-4.994
		c2.243,0.698,4.619,1.03,7.05,0.954l3.59,6.185c0.544-0.085,1.088-0.146,1.633-0.264c0.604-0.128,1.187-0.306,1.775-0.471
		l0.699-7.12c2.242-0.937,4.261-2.231,6.013-3.796l6.745,2.436c0.765-0.874,1.48-1.781,2.132-2.739l-4.049-5.918
		c1.084-2.104,1.805-4.394,2.152-6.777L123.349,74.021z"/>
	<path fill="#FFFFFF" d="M123.349,74.021c0.024-1.144,0-2.295-0.12-3.456l-6.94-1.939c-0.542-2.395-1.474-4.597-2.696-6.576
		l3.58-6.24c-0.725-0.901-1.484-1.773-2.311-2.572l-6.568,2.977c-1.895-1.435-4.018-2.553-6.288-3.304l-1.268-7.092
		c-1.126-0.223-2.273-0.366-3.435-0.449l-3.108,6.484c-1.144,0.057-2.294,0.179-3.448,0.425c-1.215,0.259-2.371,0.636-3.49,1.08
		l-5.515-4.605c-1.023,0.562-1.998,1.187-2.934,1.863l1.783,6.95c-1.755,1.627-3.229,3.519-4.355,5.616l-7.154,0.015
		c-0.421,1.081-0.759,2.197-1.047,3.329l5.809,4.16c-0.294,2.312-0.233,4.701,0.267,7.109l-5.458,4.601
		c0.377,1.117,0.831,2.188,1.334,3.227l7.122-0.543c1.306,2.025,2.914,3.809,4.774,5.271l-1.223,7.027
		c0.995,0.605,2.028,1.145,3.092,1.625l5.1-4.994c2.243,0.699,4.619,1.03,7.049,0.954l3.591,6.186
		c0.544-0.085,1.088-0.146,1.633-0.264c0.604-0.128,1.187-0.308,1.775-0.472l0.698-7.12c2.243-0.936,4.262-2.23,6.013-3.796
		l6.746,2.437c0.764-0.875,1.48-1.781,2.132-2.739l-4.05-5.919c1.085-2.103,1.806-4.394,2.153-6.776L123.349,74.021z"/>
</g>
<path fill="#FFFFFF" stroke="#7CC040" stroke-width="3.9697" stroke-miterlimit="10" d="M77.163,37.189
	c-0.083-0.484-0.175-0.966-0.277-1.45c-0.459-2.154-1.097-4.228-1.891-6.204l-7.789-0.073c-1.034-1.98-2.273-3.818-3.687-5.491
	l2.881-7.235c-1.908-1.857-4.011-3.5-6.261-4.908l-6.343,4.519c-1.97-0.979-4.049-1.747-6.205-2.28l-1.923-7.553
	c-2.595-0.376-5.256-0.477-7.947-0.288l-2.478,7.39c-0.417,0.071-0.832,0.148-1.25,0.237c-1.776,0.378-3.483,0.904-5.109,1.564
	l-5.996-4.981c-2.375,1.25-4.583,2.742-6.6,4.435l2.339,7.435c-1.547,1.582-2.913,3.327-4.078,5.197l-7.775-0.504
	c-1.171,2.373-2.092,4.875-2.742,7.466l6.258,4.638c-0.319,2.156-0.405,4.37-0.241,6.607l-6.583,4.159
	c0.084,0.483,0.174,0.966,0.277,1.449c0.459,2.156,1.097,4.228,1.892,6.205l7.788,0.073c1.035,1.981,2.275,3.818,3.688,5.491
	l-2.881,7.236c1.91,1.855,4.01,3.501,6.26,4.907l6.344-4.518c1.969,0.979,4.049,1.746,6.204,2.278l1.923,7.554
	c2.594,0.376,5.255,0.479,7.946,0.287l2.479-7.389c0.415-0.071,0.832-0.147,1.248-0.236c1.777-0.379,3.482-0.906,5.111-1.565
	l5.995,4.979c2.375-1.248,4.583-2.74,6.6-4.434l-2.338-7.437c1.545-1.582,2.911-3.326,4.075-5.197l7.776,0.504
	c1.172-2.373,2.094-4.874,2.742-7.465l-6.257-4.639c0.316-2.154,0.404-4.368,0.24-6.607L77.163,37.189z"/>
<path fill="#FFFFFF" stroke="#3FA9F5" stroke-width="3.9697" stroke-miterlimit="10" d="M27.143,61.874
	c-3.859,7.886-6.225,22.391-2.178,30.944c7.063,14.926,24.886,21.299,39.811,14.238l6.52,13.781l6.955-15.775l6.951-15.774
	l-16.606-4.626l-16.605-4.63l6.229,13.165c-7.271,3.441-15.954,0.335-19.394-6.937c-3.441-7.269,1.665-20.954,8.936-24.394
	L27.143,61.874z"/>
<text transform="matrix(0.7055 0 0 1 17.8647 56.8413)" fill="#3FA9F5" font-family="'NokiaSansWide-Bold'" font-size="35.3328">S</text>
<text transform="matrix(0.7055 0 0 1 30.8521 56.8413)" fill="#3FA9F5" font-family="'NokiaSansWide-Bold'" font-size="35.3328">V</text>
<text transform="matrix(0.7055 0 0 1 46.3105 56.8413)" fill="#3FA9F5" font-family="'NokiaSansWide-Bold'" font-size="35.3328">G</text>
<text transform="matrix(0.6792 0.1908 -0.2704 0.9627 76.0088 78.0127)" fill="#3FA9F5" stroke="#3FA9F5" stroke-width="0.5" stroke-miterlimit="10" font-family="'NokiaSansWide-Bold'" font-size="23.8181">Tiny</text>
</svg>
