<?xml version="1.0" encoding="UTF-8" standalone="no"?>
<!-- Created with Inkscape (http://www.inkscape.org/) -->

<svg
   xmlns:dc="http://purl.org/dc/elements/1.1/"
   xmlns:cc="http://creativecommons.org/ns#"
   xmlns:rdf="http://www.w3.org/1999/02/22-rdf-syntax-ns#"
   xmlns:svg="http://www.w3.org/2000/svg"
   xmlns="http://www.w3.org/2000/svg"
   version="1.1"
   width="167.08299"
   height="168.58501"
   viewBox="0 0 167.083 168.585"
   id="Layer_6"
   xml:space="preserve"><metadata
   id="metadata4561"><rdf:RDF><cc:Work
       rdf:about=""><dc:format>image/svg+xml</dc:format><dc:type
         rdf:resource="http://purl.org/dc/dcmitype/StillImage" /><dc:title></dc:title></cc:Work></rdf:RDF></metadata><defs
   id="defs4559" />
<path
   d="m 158.773,84.294 c 0.03,41.548 -33.628,75.255 -75.176,75.286 C 42.048,159.61 8.34,125.952 8.31,84.404 c 0,-0.038 0,-0.074 0,-0.11 C 8.279,42.743 41.937,9.038 83.487,9.005 c 41.548,-0.03 75.255,33.627 75.286,75.178 0,0.036 0,0.072 0,0.111 z"
   id="path4850"
   style="fill:#166496" />
<linearGradient
   x1="-38.242199"
   y1="-94.560501"
   x2="11.3579"
   y2="-144.16071"
   id="path4852_1_"
   gradientUnits="userSpaceOnUse"
   gradientTransform="matrix(1.7312,0,0,-1.7312,102.8115,-126.3408)">
	<stop
   id="stop4537"
   style="stop-color:#1c97e1;stop-opacity:1"
   offset="0" />
	<stop
   id="stop4539"
   style="stop-color:#006798;stop-opacity:1"
   offset="1" />
</linearGradient>
<path
   d="m 152.223,84.288 c 0.03,37.936 -30.7,68.711 -68.636,68.739 -37.936,0.027 -68.714,-30.703 -68.741,-68.64 0,-0.033 0,-0.066 0,-0.1 -0.029,-37.937 30.703,-68.713 68.638,-68.74 37.936,-0.028 68.711,30.703 68.738,68.639 0.001,0.033 0.001,0.066 0.001,0.102 z"
   id="path4852"
   style="fill:url(#path4852_1_);stroke:#ffffff;stroke-width:1.94869995" />
<g
   id="g4542">
	<linearGradient
   x1="72.435501"
   y1="83.292"
   x2="90.648399"
   y2="83.292"
   id="SVGID_1_"
   gradientUnits="userSpaceOnUse">
		<stop
   id="stop4545"
   style="stop-color:#ffffff;stop-opacity:0.72659999"
   offset="0" />
		<stop
   id="stop4547"
   style="stop-color:#ffffff;stop-opacity:1"
   offset="1" />
	</linearGradient>
	<path
   d="M 79.418,121.695 V 71.939 h -6.982 v -7.031 h 17.578 v 56.787 H 79.418 z m 5.225,-64.794 c -1.66,0 -3.076,-0.594 -4.248,-1.782 -1.172,-1.188 -1.758,-2.596 -1.758,-4.224 0,-1.66 0.586,-3.076 1.758,-4.248 1.172,-1.172 2.588,-1.758 4.248,-1.758 1.594,0 2.994,0.603 4.199,1.807 1.203,1.205 1.807,2.604 1.807,4.199 0,1.628 -0.596,3.036 -1.783,4.224 -1.188,1.188 -2.596,1.782 -4.223,1.782 z"
   id="path4549"
   style="fill:url(#SVGID_1_)" />
</g>
<linearGradient
   x1="-74.123001"
   y1="-82.966797"
   x2="-49.869099"
   y2="-119.417"
   id="path4854_1_"
   gradientUnits="userSpaceOnUse"
   gradientTransform="matrix(1.9519,0,0,-1.8418,176.1572,-141.7065)">
	<stop
   id="stop4552"
   style="stop-color:#ffffff;stop-opacity:1"
   offset="0" />
	<stop
   id="stop4554"
   style="stop-color:#ffffff;stop-opacity:0"
   offset="1" />
</linearGradient>
<path
   d="m 83.495,15.641 c -37.916,0 -68.678,30.761 -68.678,68.677 0,18.217 7.436,34.496 19.021,46.794 6.02,-49.715 47.98,-88.369 99.313,-88.369 1.385,0 2.669,0.28 4.039,0.335 C 124.63,26.741 105.682,15.641 83.495,15.641 z"
   id="path4854"
   style="fill:url(#path4854_1_)" />
</svg>