<?xml version="1.0" encoding="utf-8"?>
<!-- Generator: Adobe Illustrator 15.0.0, SVG Export Plug-In . SVG Version: 6.00 Build 0)  -->
<!DOCTYPE svg PUBLIC "-//W3C//DTD SVG 1.1//EN" "http://www.w3.org/Graphics/SVG/1.1/DTD/svg11.dtd">
<svg version="1.1"
	 id="Layer_3" xmlns:dc="http://purl.org/dc/elements/1.1/" xmlns:rdf="http://www.w3.org/1999/02/22-rdf-syntax-ns#" xmlns:cc="http://creativecommons.org/ns#" xmlns:svg="http://www.w3.org/2000/svg"
	 xmlns="http://www.w3.org/2000/svg" xmlns:xlink="http://www.w3.org/1999/xlink" x="0px" y="0px" width="167.083px"
	 height="168.585px" viewBox="0 0 167.083 168.585" enable-background="new 0 0 167.083 168.585" xml:space="preserve">
<g id="g5681">
	
		<radialGradient id="path1934_2_" cx="-3920.3535" cy="374.0513" r="0.9206" gradientTransform="matrix(80.8626 0 0 8.0863 317094.5625 -2869.8181)" gradientUnits="userSpaceOnUse">
		<stop  offset="0" style="stop-color:#000000;stop-opacity:0.1"/>
		<stop  offset="1" style="stop-color:#000000;stop-opacity:0"/>
	</radialGradient>
	<path id="path1934_1_" fill="url(#path1934_2_)" d="M84.59,168.585c41.14,0,74.492-6.144,74.492-13.719
		c0-7.566-33.354-13.709-74.492-13.709c-41.147,0-74.5,6.143-74.5,13.709C10.091,162.443,43.443,168.585,84.59,168.585z"/>
	<path id="path930_2_" fill="#FFFFFF" stroke="#000000" stroke-width="1.696" d="M28.402,19.843v31.155v31.154v31.155v31.153h28.431
		h28.432h28.43h28.431v-31.153V82.154V50.999l-28.431-31.157h-28.43H56.834H28.402V19.843z"/>
	<g id="g1552_2_" transform="matrix(0.304171,0,0,0.297572,-36.704,-112.488)">
		
			<linearGradient id="path1505_1_" gradientUnits="userSpaceOnUse" x1="-396805760" y1="-537304960" x2="-396802752" y2="-537300992" gradientTransform="matrix(1.1327 0 0 -1.1411 326878.5625 197363.5)">
			<stop  offset="0" style="stop-color:#000000;stop-opacity:0.0955"/>
			<stop  offset="1" style="stop-color:#000000;stop-opacity:0"/>
		</linearGradient>
		<path id="path1505_2_" fill="url(#path1505_1_)" fill-opacity="0.75" d="M210.891,452.78v103.678v103.679v103.679V867.49h92.228
			h92.23h92.225h92.233V763.813V660.135V556.457L487.575,452.78h-92.225h-92.23H210.891L210.891,452.78z"/>
		
			<linearGradient id="path1538_1_" gradientUnits="userSpaceOnUse" x1="-398057568" y1="-536791968" x2="-398054560" y2="-536788000" gradientTransform="matrix(1.1496 0 0 -1.1562 331827.8125 200022.0469)">
			<stop  offset="0" style="stop-color:#000000;stop-opacity:0.0955"/>
			<stop  offset="1" style="stop-color:#000000;stop-opacity:0"/>
		</linearGradient>
		<path id="path1538_2_" fill="url(#path1538_1_)" fill-opacity="0.75" d="M208.146,451.401c0,139.61,0,279.226,0,418.832
			c124.808,0,249.612,0,374.417,0c0-104.951,0-209.899,0-314.846c-31.242-35.126-62.478-70.264-93.752-105.363
			c-93.558,0-187.112,0-280.663,0C208.146,450.309,208.146,451.226,208.146,451.401z"/>
		
			<linearGradient id="path1543_1_" gradientUnits="userSpaceOnUse" x1="-397980384" y1="-536687680" x2="-397977376" y2="-536683712" gradientTransform="matrix(1.1665 0 0 -1.1714 336788.375 202685.5)">
			<stop  offset="0" style="stop-color:#000000;stop-opacity:0.0955"/>
			<stop  offset="1" style="stop-color:#000000;stop-opacity:0"/>
		</linearGradient>
		<path id="path1543_2_" fill="url(#path1543_1_)" fill-opacity="0.75" d="M205.391,448.646c0,141.449,0,282.9,0,424.341
			c126.641,0,253.282,0,379.926,0c0-106.218,0-212.435,0-318.658c-31.756-35.691-63.499-71.397-95.29-107.06
			c-94.879,0-189.759,0-284.636,0C205.391,447.55,205.391,448.469,205.391,448.646z"/>
	</g>
	
		<linearGradient id="rect900_1_" gradientUnits="userSpaceOnUse" x1="-2785.8711" y1="416.9028" x2="-2786.5449" y2="416.0815" gradientTransform="matrix(134.1105 0 0 -146.957 373733.375 61304.3906)">
		<stop  offset="0" style="stop-color:#DADADA"/>
		<stop  offset="0.3492" style="stop-color:#F1F1F1"/>
		<stop  offset="1" style="stop-color:#F0F0F0"/>
	</linearGradient>
	<path id="rect900_2_" fill="url(#rect900_1_)" stroke="#000000" stroke-width="1.219" stroke-opacity="0.3648" d="M28.45,19.998
		v31.155v31.155v31.154v31.156h28.431h28.432h28.43h28.43v-31.156V82.308V51.152l-28.43-31.155h-28.43H56.881L28.45,19.998
		L28.45,19.998z"/>
	
		<linearGradient id="rect1558_1_" gradientUnits="userSpaceOnUse" x1="-2783.7505" y1="416.3364" x2="-2784.1636" y2="415.739" gradientTransform="matrix(115.777 0 0 -132.803 322420.9688 55303.9883)">
		<stop  offset="0" style="stop-color:#4B6983"/>
		<stop  offset="1" style="stop-color:#9DB8D2;stop-opacity:0"/>
	</linearGradient>
	<path id="rect1558" fill="url(#rect1558_1_)" d="M35.989,25.99v112.616h98.18V46.444L115.639,25.99H35.989z"/>
	<g>
		
			<linearGradient id="SVGID_1_" gradientUnits="userSpaceOnUse" x1="-600.5264" y1="-287.8394" x2="-594.2515" y2="-258.3182" gradientTransform="matrix(1 0 0 -1 657.4805 -193.9912)">
			<stop  offset="0" style="stop-color:#8DA5BD"/>
			<stop  offset="1" style="stop-color:#460073"/>
		</linearGradient>
		<path fill="url(#SVGID_1_)" d="M57.714,80.944c-1.033-0.298-2.001-0.692-2.911-1.181c-0.91-0.487-1.702-1.064-2.382-1.73
			c-0.678-0.664-1.215-1.438-1.607-2.319c-0.394-0.882-0.591-1.853-0.591-2.911c0-2.85,0.84-5.02,2.524-6.514
			c1.681-1.493,4.125-2.239,7.327-2.239c0.896,0,1.777,0.068,2.646,0.202c0.868,0.137,1.682,0.313,2.442,0.529
			c0.76,0.218,1.451,0.462,2.076,0.733s1.166,0.543,1.628,0.813l-2.076,4.315c-0.543-0.327-1.405-0.691-2.584-1.099
			c-1.181-0.406-2.584-0.611-4.212-0.611c-0.461,0-0.931,0.053-1.404,0.163c-0.475,0.108-0.909,0.291-1.303,0.548
			s-0.712,0.595-0.957,1.013c-0.244,0.419-0.366,0.926-0.366,1.521c0,0.378,0.054,0.737,0.163,1.076
			c0.108,0.337,0.318,0.668,0.631,0.993c0.311,0.325,0.732,0.63,1.261,0.918s1.215,0.554,2.055,0.799l2.605,0.736
			c2.361,0.657,4.186,1.646,5.475,2.96c1.289,1.316,1.933,3.128,1.933,5.433c0,1.356-0.265,2.58-0.794,3.662
			c-0.53,1.084-1.254,2.017-2.178,2.789c-0.922,0.773-2.009,1.371-3.257,1.791c-1.249,0.418-2.592,0.629-4.029,0.629
			c-1.33,0-2.559-0.1-3.685-0.303c-1.127-0.203-2.117-0.441-2.971-0.713c-0.855-0.271-1.561-0.544-2.117-0.814
			c-0.556-0.271-0.931-0.476-1.119-0.61l2.076-4.521c0.326,0.19,0.752,0.396,1.282,0.611c0.53,0.217,1.125,0.428,1.79,0.631
			s1.404,0.375,2.218,0.508c0.814,0.139,1.669,0.205,2.565,0.205c0.487,0,0.996-0.063,1.526-0.185
			c0.529-0.123,1.003-0.326,1.424-0.61c0.419-0.285,0.766-0.638,1.038-1.059c0.27-0.419,0.407-0.941,0.407-1.566
			c0-0.354-0.054-0.713-0.164-1.079c-0.108-0.367-0.312-0.719-0.61-1.059c-0.299-0.338-0.699-0.657-1.201-0.957
			c-0.503-0.298-1.159-0.555-1.974-0.772L57.714,80.944z"/>
		
			<linearGradient id="SVGID_2_" gradientUnits="userSpaceOnUse" x1="-578.7129" y1="-286.6128" x2="-572.2421" y2="-256.1699" gradientTransform="matrix(1 0 0 -1 657.4805 -193.9912)">
			<stop  offset="0" style="stop-color:#8DA5BD"/>
			<stop  offset="1" style="stop-color:#460073"/>
		</linearGradient>
		<path fill="url(#SVGID_2_)" d="M84.965,86.642l6.369-21.938h5.783l-9.41,28.616h-5.66l-9.763-28.616h6.107L84.965,86.642z"/>
		
			<linearGradient id="SVGID_3_" gradientUnits="userSpaceOnUse" x1="-549.1519" y1="-287.6011" x2="-542.8932" y2="-258.1563" gradientTransform="matrix(1 0 0 -1 657.4805 -193.9912)">
			<stop  offset="0" style="stop-color:#8DA5BD"/>
			<stop  offset="1" style="stop-color:#460073"/>
		</linearGradient>
		<path fill="url(#SVGID_3_)" d="M112.624,68.897c-1.332,0-2.484,0.258-3.463,0.772c-0.975,0.516-1.777,1.229-2.4,2.137
			c-0.623,0.91-1.092,1.981-1.403,3.216c-0.313,1.236-0.468,2.572-0.468,4.01c0,1.439,0.143,2.761,0.426,3.969
			c0.286,1.208,0.74,2.245,1.363,3.113c0.625,0.869,1.426,1.556,2.402,2.058c0.978,0.502,2.144,0.752,3.502,0.752
			c0.785,0,1.506-0.055,2.156-0.161c0.651-0.109,1.248-0.23,1.79-0.366v-7.124h-5.25v-4.721h10.339v15.63
			c-0.3,0.137-0.721,0.305-1.262,0.508c-0.543,0.204-1.214,0.402-2.016,0.592c-0.801,0.19-1.745,0.352-2.83,0.488
			c-1.082,0.135-2.318,0.202-3.701,0.202c-2.092,0-3.936-0.339-5.536-1.017c-1.603-0.682-2.944-1.658-4.03-2.934
			c-1.086-1.273-1.906-2.834-2.461-4.682c-0.556-1.844-0.835-3.947-0.835-6.309c0-2.199,0.285-4.214,0.854-6.044
			c0.57-1.832,1.412-3.412,2.525-4.744c1.112-1.328,2.489-2.361,4.131-3.092c1.642-0.732,3.547-1.1,5.719-1.1
			c1.873,0,3.555,0.259,5.048,0.773c1.491,0.516,2.81,1.22,3.948,2.117l-2.402,4.03c-0.598-0.435-1.417-0.889-2.461-1.364
			C115.262,69.134,114.034,68.897,112.624,68.897z"/>
	</g>
	<path id="path1231_5_" fill="none" stroke="#314E6C" stroke-width="0.8279" d="M43.537,77.282l16.792-22.143"/>
	<path id="path1232_5_" fill="none" stroke="#314E6C" stroke-width="1.7099" d="M38.331,79.324c0,0.003,0,0.003,0,0.006
		c0.001,1.748,1.419,3.162,3.167,3.16c1.746,0,3.162-1.417,3.161-3.167c0,0,0-0.001,0-0.005c-0.002-1.746-1.42-3.161-3.167-3.16
		C39.745,76.159,38.329,77.576,38.331,79.324L38.331,79.324z"/>
	<path id="path1818_5_" fill="none" stroke="#314E6C" stroke-width="1.7099" d="M58.471,52.539c0,1.748,1.418,3.162,3.167,3.16
		c1.747-0.002,3.161-1.419,3.161-3.164c0-0.003,0-0.005,0-0.006c-0.002-1.75-1.421-3.162-3.167-3.162
		c-1.748,0.001-3.163,1.419-3.16,3.167C58.47,52.533,58.47,52.535,58.471,52.539z"/>
	
		<rect id="rect1019_5_" x="49.166" y="64.327" fill="#9F9F9F" fill-opacity="0.75" stroke="#C1C1C1" stroke-width="0.7476" width="5.435" height="5.435"/>
	<g id="layer1_2_">
		<g id="g1370_2_" transform="translate(-14,-14)">
			
				<linearGradient id="path1349_1_" gradientUnits="userSpaceOnUse" x1="-2227.3237" y1="-2072.2681" x2="-2240.3848" y2="-2148.4373" gradientTransform="matrix(0.5815 -0.5815 -0.5815 -0.5815 133.3161 -2385.5337)">
				<stop  offset="0" style="stop-color:#179807"/>
				<stop  offset="1" style="stop-color:#0B5102"/>
			</linearGradient>
			<path id="path1349_2_" fill="url(#path1349_1_)" d="M35.617,145.736c0.076,0.805,0.755,1.416,1.563,1.407h17.944v17.946
				c-0.002,0.412,0.161,0.813,0.455,1.105c0.293,0.293,0.692,0.459,1.107,0.456h9.752c0.416,0.003,0.813-0.162,1.108-0.456
				c0.294-0.293,0.457-0.689,0.457-1.105v-17.946h17.943c0.415,0.002,0.813-0.158,1.106-0.455c0.294-0.291,0.457-0.69,0.454-1.106
				v-9.754c0.003-0.414-0.16-0.813-0.454-1.106c-0.293-0.294-0.692-0.457-1.106-0.453H68.001v-17.944
				c0-0.414-0.162-0.814-0.457-1.105c-0.294-0.295-0.688-0.459-1.107-0.459h-9.752c-0.414,0-0.814,0.164-1.107,0.459
				c-0.294,0.291-0.458,0.691-0.456,1.105v17.944H37.179c-0.415-0.004-0.814,0.157-1.105,0.453c-0.294,0.294-0.459,0.69-0.457,1.106
				v9.754C35.614,145.635,35.614,145.685,35.617,145.736z"/>
			
				<linearGradient id="path1468_1_" gradientUnits="userSpaceOnUse" x1="-2227.2856" y1="-2072.1973" x2="-2240.4651" y2="-2148.7048" gradientTransform="matrix(0.5815 -0.5815 -0.5815 -0.5815 133.322 -2385.5337)">
				<stop  offset="0" style="stop-color:#24F00A"/>
				<stop  offset="1" style="stop-color:#0B6400"/>
			</linearGradient>
			<path id="path1468_2_" fill="url(#path1468_1_)" d="M36.995,136.073c-0.128,0.222-0.193,0.474-0.181,0.729v7.813
				c0.003,0.735,0.597,1.33,1.331,1.335h18.176v18.172c0.003,0.736,0.598,1.334,1.333,1.336h7.816
				c0.733-0.002,1.327-0.599,1.332-1.336v-18.172h18.175c0.734-0.003,1.329-0.6,1.332-1.335V136.8
				c-0.003-0.736-0.598-1.329-1.332-1.333H66.802v-18.175c-0.003-0.735-0.598-1.328-1.332-1.334h-7.816
				c-0.733,0.006-1.329,0.597-1.332,1.334v18.175H38.146C37.684,135.457,37.248,135.683,36.995,136.073z"/>
			
				<linearGradient id="path1472_1_" gradientUnits="userSpaceOnUse" x1="-2230.6475" y1="-2091.8906" x2="-2238.3772" y2="-2136.4778" gradientTransform="matrix(0.5815 -0.5815 -0.5815 -0.5815 133.3171 -2385.5337)">
				<stop  offset="0" style="stop-color:#B0FFA5"/>
				<stop  offset="1" style="stop-color:#26BC14;stop-opacity:0.4471"/>
			</linearGradient>
			<path id="path1472_2_" fill="url(#path1472_1_)" d="M37.813,136.65c-0.021,0.046-0.032,0.098-0.031,0.15v7.813
				c0.004,0.065,0.024,0.128,0.062,0.183c0.034,0.065,0.087,0.119,0.151,0.152c0.047,0.021,0.101,0.032,0.152,0.03h18.537
				c0.167-0.004,0.345,0.041,0.455,0.151c0.11,0.11,0.155,0.289,0.152,0.455v18.539c0.003,0.063,0.023,0.125,0.062,0.18
				c0.033,0.066,0.087,0.119,0.15,0.154c0.049,0.02,0.1,0.03,0.152,0.028h7.816c0.064-0.006,0.129-0.022,0.181-0.062
				c0.067-0.033,0.119-0.09,0.153-0.151c0.022-0.05,0.033-0.099,0.032-0.153v-18.539c-0.003-0.164,0.041-0.343,0.152-0.453
				c0.11-0.111,0.288-0.154,0.454-0.152h18.539c0.065-0.004,0.129-0.023,0.184-0.061c0.063-0.033,0.115-0.088,0.152-0.153
				c0.021-0.05,0.03-0.099,0.028-0.153v-7.813c-0.003-0.067-0.022-0.129-0.061-0.186c-0.033-0.063-0.087-0.117-0.151-0.15
				c-0.048-0.019-0.099-0.029-0.152-0.029h-18.54c-0.165,0.005-0.344-0.043-0.456-0.154c-0.109-0.109-0.152-0.286-0.15-0.454
				v-18.534c-0.001-0.066-0.022-0.129-0.06-0.184c-0.035-0.064-0.088-0.119-0.151-0.15c-0.051-0.022-0.102-0.031-0.154-0.031h-7.816
				c-0.065,0.004-0.127,0.024-0.181,0.06c-0.065,0.035-0.118,0.088-0.152,0.154c-0.021,0.048-0.033,0.1-0.03,0.151v18.536
				c0.004,0.169-0.042,0.345-0.152,0.454c-0.11,0.111-0.288,0.159-0.455,0.155h-18.54c-0.064,0.002-0.127,0.022-0.182,0.058
				C37.899,136.528,37.846,136.582,37.813,136.65z"/>
		</g>
	</g>
	
		<linearGradient id="path906_1_" gradientUnits="userSpaceOnUse" x1="-2748.0815" y1="394.3169" x2="-2748.9355" y2="393.47" gradientTransform="matrix(33.5276 0 0 -36.7392 92268.9219 14517.6875)">
		<stop  offset="0" style="stop-color:#DADADA"/>
		<stop  offset="0.3492" style="stop-color:#F1F1F1"/>
		<stop  offset="1" style="stop-color:#F0F0F0"/>
	</linearGradient>
	<path id="path906_2_" fill="url(#path906_1_)" d="M142.174,51.152c-8.571-2.537-19.68-2.177-28.067-0.73
		c1.448-9.296,1.628-20.946-0.364-30.424L142.174,51.152z"/>
</g>
</svg>
