<?xml version="1.0" encoding="utf-8"?>
<!-- Generator: Adobe Illustrator 15.0.0, SVG Export Plug-In . SVG Version: 6.00 Build 0)  -->
<!DOCTYPE svg PUBLIC "-//W3C//DTD SVG 1.1//EN" "http://www.w3.org/Graphics/SVG/1.1/DTD/svg11.dtd">
<svg version="1.1" id="Layer_1" xmlns="http://www.w3.org/2000/svg" xmlns:xlink="http://www.w3.org/1999/xlink" x="0px" y="0px"
	 width="167.083px" height="168.585px" viewBox="0 0 167.083 168.585" enable-background="new 0 0 167.083 168.585"
	 xml:space="preserve">
<g id="Layer_2">
	<path id="path930_2_" fill="#FFFFFF" stroke="#000000" stroke-width="2" d="M24.498,9.549v30.993v30.992v30.993v30.992h28.283
		h28.283h28.284h28.283v-30.992V71.536V40.543L109.348,9.549H81.064H52.782H24.498z"/>
	<g id="g1552_2_" transform="matrix(0.304171,0,0,0.297572,-36.704,-112.488)">
		
			<linearGradient id="path1505_3_" gradientUnits="userSpaceOnUse" x1="-26183.6172" y1="15753.5674" x2="-26183.002" y2="15754.3848" gradientTransform="matrix(12.2431 0 0 -12.8862 320802.125 203838.8594)">
			<stop  offset="0" style="stop-color:#000000;stop-opacity:0.0955"/>
			<stop  offset="1" style="stop-color:#000000;stop-opacity:0"/>
		</linearGradient>
		<path id="path1505_2_" fill="url(#path1505_3_)" fill-opacity="0.75" d="M198.068,418.146v103.138v103.139v103.143v103.133h91.75
			h91.75h91.745h91.758V727.566V624.421V521.283l-91.758-103.138h-91.745h-91.75H198.068L198.068,418.146z"/>
		
			<linearGradient id="path1538_3_" gradientUnits="userSpaceOnUse" x1="-26187.7285" y1="15755.8584" x2="-26187.1133" y2="15756.6748" gradientTransform="matrix(12.4255 0 0 -13.0571 325627.8438 206564.3438)">
			<stop  offset="0" style="stop-color:#000000;stop-opacity:0.0955"/>
			<stop  offset="1" style="stop-color:#000000;stop-opacity:0"/>
		</linearGradient>
		<path id="path1538_2_" fill="url(#path1538_3_)" fill-opacity="0.75" d="M195.337,416.776c0,138.884,0,277.769,0,416.653
			c124.159,0,248.317,0,372.47,0c0-104.403,0-208.804,0-313.207c-31.078-34.944-62.153-69.9-93.264-104.818
			c-93.07,0-186.139,0-279.204,0C195.337,415.686,195.337,416.598,195.337,416.776z"/>
		
			<linearGradient id="path1543_3_" gradientUnits="userSpaceOnUse" x1="-26191.5508" y1="15758.0732" x2="-26190.9355" y2="15758.8896" gradientTransform="matrix(12.6085 0 0 -13.2284 330464.5 209294.875)">
			<stop  offset="0" style="stop-color:#000000;stop-opacity:0.0955"/>
			<stop  offset="1" style="stop-color:#000000;stop-opacity:0"/>
		</linearGradient>
		<path id="path1543_2_" fill="url(#path1543_3_)" fill-opacity="0.75" d="M192.597,414.032c0,140.714,0,281.428,0,422.137
			c125.983,0,251.969,0,377.952,0c0-105.663,0-211.333,0-317.003c-31.592-35.505-63.171-71.027-94.795-106.505
			c-94.38,0-188.769,0-283.155,0C192.597,412.942,192.597,413.856,192.597,414.032z"/>
	</g>
	
		<linearGradient id="rect900_3_" gradientUnits="userSpaceOnUse" x1="-1679.0088" y1="419.8726" x2="-1679.6799" y2="419.0546" gradientTransform="matrix(134.1105 0 0 -146.957 225287.2656 61730.2656)">
		<stop  offset="0" style="stop-color:#DADADA"/>
		<stop  offset="0.3492" style="stop-color:#F1F1F1"/>
		<stop  offset="1" style="stop-color:#F0F0F0"/>
	</linearGradient>
	<path id="rect900_2_" fill="url(#rect900_3_)" stroke="#000000" stroke-width="1.2127" stroke-opacity="0.3648" d="M24.544,9.704
		v30.993V71.69v30.991v30.994h28.283H81.11h28.284h28.282v-30.994V71.69V40.696L109.394,9.704H81.112H52.828H24.544z"/>
	
		<linearGradient id="rect1558_2_" gradientUnits="userSpaceOnUse" x1="-1677.6895" y1="419.6216" x2="-1678.1001" y2="419.0277" gradientTransform="matrix(115.777 0 0 -132.803 194360.2188 55729.7383)">
		<stop  offset="0" style="stop-color:#4B6983"/>
		<stop  offset="1" style="stop-color:#9DB8D2;stop-opacity:0"/>
	</linearGradient>
	<path id="rect1558" fill="url(#rect1558_2_)" d="M32.044,15.664v112.031h97.667V36.012L111.28,15.664H32.044z"/>
	<g>
		
			<linearGradient id="SVGID_1_" gradientUnits="userSpaceOnUse" x1="-166.2593" y1="151.9409" x2="-160.0167" y2="181.3102" gradientTransform="matrix(1 0 0 -1 219.1602 231.8643)">
			<stop  offset="0" style="stop-color:#8DA5BD"/>
			<stop  offset="1" style="stop-color:#460073"/>
		</linearGradient>
		<path fill="url(#SVGID_1_)" d="M53.657,67.082c-1.027-0.297-1.991-0.689-2.896-1.175c-0.905-0.484-1.694-1.058-2.369-1.721
			c-0.675-0.661-1.208-1.43-1.6-2.307s-0.587-1.843-0.587-2.896c0-2.834,0.836-4.993,2.511-6.479
			c1.673-1.484,4.104-2.227,7.289-2.227c0.891,0,1.768,0.067,2.632,0.202c0.863,0.136,1.673,0.312,2.429,0.527
			c0.756,0.217,1.444,0.459,2.066,0.729c0.621,0.271,1.161,0.541,1.619,0.81l-2.065,4.292c-0.541-0.324-1.397-0.688-2.571-1.093
			c-1.174-0.404-2.571-0.607-4.191-0.607c-0.459,0-0.925,0.054-1.397,0.162c-0.473,0.107-0.905,0.289-1.295,0.544
			c-0.392,0.256-0.709,0.592-0.952,1.009c-0.243,0.417-0.364,0.921-0.364,1.513c0,0.376,0.053,0.733,0.162,1.069
			c0.107,0.336,0.317,0.666,0.628,0.988c0.31,0.322,0.729,0.627,1.255,0.913s1.208,0.551,2.044,0.796l2.592,0.734
			c2.348,0.652,4.164,1.634,5.446,2.944c1.282,1.309,1.923,3.111,1.923,5.404c0,1.351-0.263,2.565-0.79,3.645
			c-0.526,1.081-1.249,2.005-2.166,2.774c-0.918,0.77-1.999,1.363-3.239,1.781c-1.242,0.418-2.579,0.627-4.009,0.627
			c-1.323,0-2.545-0.101-3.665-0.303c-1.12-0.202-2.105-0.438-2.956-0.708c-0.851-0.271-1.553-0.54-2.106-0.811
			c-0.554-0.271-0.925-0.472-1.113-0.607l2.065-4.495c0.324,0.189,0.749,0.393,1.275,0.607c0.527,0.217,1.12,0.426,1.782,0.629
			c0.662,0.201,1.397,0.37,2.207,0.505c0.81,0.136,1.66,0.203,2.551,0.203c0.486,0,0.992-0.062,1.519-0.183
			c0.527-0.121,0.999-0.324,1.417-0.607c0.417-0.283,0.762-0.633,1.033-1.053c0.269-0.418,0.405-0.938,0.405-1.559
			c0-0.351-0.054-0.709-0.162-1.073c-0.108-0.365-0.311-0.715-0.607-1.053c-0.298-0.337-0.695-0.654-1.195-0.952
			c-0.5-0.296-1.154-0.552-1.964-0.769L53.657,67.082z"/>
		
			<linearGradient id="SVGID_2_" gradientUnits="userSpaceOnUse" x1="-144.5601" y1="153.1675" x2="-138.123" y2="183.4519" gradientTransform="matrix(1 0 0 -1 219.1602 231.8643)">
			<stop  offset="0" style="stop-color:#8DA5BD"/>
			<stop  offset="1" style="stop-color:#460073"/>
		</linearGradient>
		<path fill="url(#SVGID_2_)" d="M80.766,72.75l6.337-21.825h5.752l-9.36,28.466h-5.632l-9.712-28.466h6.076L80.766,72.75z"/>
		
			<linearGradient id="SVGID_3_" gradientUnits="userSpaceOnUse" x1="-115.1538" y1="152.1851" x2="-108.9286" y2="181.4722" gradientTransform="matrix(1 0 0 -1 219.1602 231.8643)">
			<stop  offset="0" style="stop-color:#8DA5BD"/>
			<stop  offset="1" style="stop-color:#460073"/>
		</linearGradient>
		<path fill="url(#SVGID_3_)" d="M108.28,55.097c-1.322,0-2.47,0.256-3.441,0.769c-0.973,0.513-1.769,1.222-2.389,2.125
			c-0.621,0.904-1.088,1.97-1.398,3.199s-0.465,2.558-0.465,3.989c0,1.431,0.142,2.746,0.424,3.948
			c0.285,1.201,0.736,2.234,1.357,3.097c0.62,0.864,1.418,1.546,2.391,2.045c0.972,0.5,2.132,0.75,3.479,0.75
			c0.783,0,1.5-0.055,2.147-0.163c0.646-0.108,1.24-0.229,1.781-0.364v-7.086h-5.225v-4.697h10.285v15.55
			c-0.297,0.135-0.715,0.303-1.255,0.506c-0.54,0.202-1.209,0.398-2.005,0.587c-0.797,0.188-1.734,0.351-2.813,0.486
			c-1.082,0.134-2.309,0.201-3.688,0.201c-2.076,0-3.912-0.337-5.506-1.011c-1.594-0.675-2.93-1.647-4.008-2.916
			c-1.082-1.269-1.897-2.82-2.451-4.657c-0.553-1.835-0.83-3.928-0.83-6.275c0-2.188,0.283-4.191,0.851-6.013
			s1.403-3.395,2.511-4.718c1.107-1.322,2.478-2.348,4.111-3.077c1.633-0.729,3.529-1.093,5.688-1.093
			c1.863,0,3.537,0.257,5.021,0.769c1.484,0.512,2.795,1.214,3.928,2.106l-2.389,4.009c-0.596-0.432-1.41-0.884-2.45-1.357
			C110.905,55.333,109.684,55.097,108.28,55.097z"/>
	</g>
	<path id="path1231_1_" fill="none" stroke="#314E6C" stroke-width="0.8235" d="M39.553,63.439L56.258,41.41"/>
	<path id="path1232_1_" fill="none" stroke="#314E6C" stroke-width="1.701" d="M34.374,65.469c0,0.003,0,0.003,0,0.007
		c0.002,1.738,1.412,3.145,3.15,3.144c1.737,0,3.146-1.41,3.144-3.15c0,0,0-0.001,0-0.005c-0.001-1.737-1.412-3.144-3.149-3.143
		C35.781,62.321,34.372,63.73,34.374,65.469L34.374,65.469z"/>
	<path id="path1818_1_" fill="none" stroke="#314E6C" stroke-width="1.701" d="M54.41,38.824c0,1.739,1.411,3.146,3.15,3.142
		c1.737-0.001,3.144-1.411,3.144-3.147c0-0.003,0-0.005,0-0.006c-0.002-1.74-1.412-3.146-3.151-3.146
		c-1.739,0.002-3.146,1.412-3.144,3.151C54.409,38.817,54.409,38.819,54.41,38.824z"/>
	
		<rect id="rect1019_1_" x="44.996" y="50.707" fill="#9F9F9F" fill-opacity="0.75" stroke="#C1C1C1" stroke-width="0.7437" width="5.407" height="5.406"/>
	
		<linearGradient id="path1500_3_" gradientUnits="userSpaceOnUse" x1="-1679.8491" y1="419.8491" x2="-1678.9159" y2="418.9869" gradientTransform="matrix(131.7509 0 0 -134.6955 221308.0625 56538.457)">
		<stop  offset="0" style="stop-color:#FFFFFF"/>
		<stop  offset="1" style="stop-color:#FFFFFF;stop-opacity:0"/>
	</linearGradient>
	<path id="path1500_2_" display="none" fill="url(#path1500_3_)" d="M137.233,20.298l0.512,113.627H26.664l-0.064-28.09
		c2.485,0.957,27.579-34.584,59.17-33.057C117.389,74.311,109.208,24.883,137.233,20.298z"/>
	
		<linearGradient id="path906_3_" gradientUnits="userSpaceOnUse" x1="-1656.3892" y1="406.1899" x2="-1657.2399" y2="405.3464" gradientTransform="matrix(33.5276 0 0 -36.7392 55662.6289 14943.5625)">
		<stop  offset="0" style="stop-color:#DADADA"/>
		<stop  offset="0.3492" style="stop-color:#F1F1F1"/>
		<stop  offset="1" style="stop-color:#F0F0F0"/>
	</linearGradient>
	<path id="path906_2_" fill="url(#path906_3_)" d="M137.678,40.696c-8.528-2.523-19.576-2.167-27.924-0.727
		c1.44-9.247,1.621-20.838-0.36-30.266L137.678,40.696z"/>
</g>
<g id="Layer_3">
	<path id="path930_1_" fill="#FFFFFF" stroke="#000000" stroke-width="2" d="M83.229,84.039v19.496v19.496v19.496v19.497h17.792
		h17.792h17.791h17.793v-19.497v-19.496v-19.494l-17.793-19.498h-17.791H101.02H83.229z"/>
	<g id="g1552_1_" transform="matrix(0.304171,0,0,0.297572,-36.704,-112.488)">
		
			<linearGradient id="path1505_4_" gradientUnits="userSpaceOnUse" x1="-26168.832" y1="15746.3877" x2="-26168.4434" y2="15746.9023" gradientTransform="matrix(12.2431 0 0 -12.8862 320802.125 203838.8594)">
			<stop  offset="0" style="stop-color:#000000;stop-opacity:0.0955"/>
			<stop  offset="1" style="stop-color:#000000;stop-opacity:0"/>
		</linearGradient>
		<path id="path1505_1_" fill="url(#path1505_4_)" fill-opacity="0.75" d="M392.319,665.491v64.874v64.881v64.884v64.881h57.715
			h57.71h57.723h57.71v-64.881v-64.884v-64.881l-57.71-64.874h-57.723h-57.71H392.319z"/>
		
			<linearGradient id="path1538_4_" gradientUnits="userSpaceOnUse" x1="-26173.082" y1="15748.8584" x2="-26172.6953" y2="15749.3721" gradientTransform="matrix(12.4255 0 0 -13.0571 325627.8438 206564.3438)">
			<stop  offset="0" style="stop-color:#000000;stop-opacity:0.0955"/>
			<stop  offset="1" style="stop-color:#000000;stop-opacity:0"/>
		</linearGradient>
		<path id="path1538_1_" fill="url(#path1538_4_)" fill-opacity="0.75" d="M390.599,664.628c0,87.364,0,174.731,0,262.098
			c78.1,0,156.201,0,234.304,0c0-65.675,0-131.35,0-197.028c-19.552-21.981-39.098-43.972-58.67-65.931
			c-58.548,0-117.096,0-175.634,0C390.599,663.942,390.599,664.516,390.599,664.628z"/>
		
			<linearGradient id="path1543_4_" gradientUnits="userSpaceOnUse" x1="-26177.0508" y1="15751.2373" x2="-26176.6641" y2="15751.751" gradientTransform="matrix(12.6085 0 0 -13.2284 330464.5 209294.875)">
			<stop  offset="0" style="stop-color:#000000;stop-opacity:0.0955"/>
			<stop  offset="1" style="stop-color:#000000;stop-opacity:0"/>
		</linearGradient>
		<path id="path1543_1_" fill="url(#path1543_4_)" fill-opacity="0.75" d="M388.875,662.902c0,88.513,0,177.032,0,265.548
			c79.247,0,158.496,0,237.756,0c0-66.469,0-132.938,0-199.413c-19.877-22.329-39.744-44.678-59.636-66.996
			c-59.373,0-118.749,0-178.118,0C388.875,662.217,388.875,662.79,388.875,662.902z"/>
	</g>
	
		<linearGradient id="rect900_4_" gradientUnits="userSpaceOnUse" x1="-1678.8198" y1="419.4097" x2="-1679.2416" y2="418.8957" gradientTransform="matrix(134.1105 0 0 -146.957 225287.2656 61730.2656)">
		<stop  offset="0" style="stop-color:#DADADA"/>
		<stop  offset="0.3492" style="stop-color:#F1F1F1"/>
		<stop  offset="1" style="stop-color:#F0F0F0"/>
	</linearGradient>
	<path id="rect900_1_" fill="url(#rect900_4_)" stroke="#000000" stroke-width="0.7628" stroke-opacity="0.3648" d="M83.256,84.135
		v19.497v19.498v19.494v19.496h17.793h17.791h17.791h17.791v-19.496V123.13v-19.498l-17.791-19.497H118.84h-17.791H83.256z"/>
	
		<linearGradient id="rect1558_4_" gradientUnits="userSpaceOnUse" x1="-1677.4951" y1="419.0425" x2="-1677.7538" y2="418.6682" gradientTransform="matrix(115.777 0 0 -132.803 194360.2188 55729.7383)">
		<stop  offset="0" style="stop-color:#4B6983"/>
		<stop  offset="1" style="stop-color:#9DB8D2;stop-opacity:0"/>
	</linearGradient>
	<path id="rect1558_1_" fill="url(#rect1558_4_)" d="M87.975,87.884v70.474h61.438v-57.674l-11.595-12.8H87.975z"/>
	<g display="none">
		
			<linearGradient id="SVGID_4_" gradientUnits="userSpaceOnUse" x1="-119.9077" y1="96.0425" x2="-116.3521" y2="112.7703" gradientTransform="matrix(1 0 0 -1 219.1602 231.8643)">
			<stop  offset="0" style="stop-color:#8DA5BD"/>
			<stop  offset="1" style="stop-color:#460073"/>
		</linearGradient>
		<path display="inline" fill="url(#SVGID_4_)" d="M99.681,128.505c-0.584-0.17-1.134-0.392-1.649-0.668
			c-0.515-0.276-0.965-0.604-1.35-0.979c-0.385-0.377-0.688-0.815-0.91-1.313c-0.225-0.502-0.334-1.051-0.334-1.649
			c0-1.615,0.477-2.845,1.43-3.69c0.952-0.847,2.338-1.269,4.151-1.269c0.508,0,1.007,0.037,1.499,0.114
			c0.492,0.078,0.954,0.178,1.385,0.3c0.432,0.123,0.822,0.262,1.176,0.415c0.354,0.152,0.662,0.309,0.922,0.462l-1.176,2.444
			c-0.307-0.185-0.796-0.393-1.465-0.623c-0.668-0.229-1.464-0.346-2.387-0.346c-0.262,0-0.526,0.03-0.797,0.092
			c-0.27,0.063-0.514,0.164-0.737,0.311c-0.222,0.146-0.403,0.338-0.541,0.575c-0.14,0.237-0.207,0.524-0.207,0.86
			c0,0.215,0.029,0.42,0.091,0.609c0.061,0.189,0.182,0.379,0.357,0.563c0.178,0.186,0.416,0.356,0.715,0.521
			c0.301,0.163,0.688,0.313,1.165,0.452l1.476,0.419c1.34,0.372,2.373,0.932,3.104,1.677c0.729,0.746,1.095,1.772,1.095,3.078
			c0,0.771-0.148,1.462-0.449,2.075c-0.3,0.616-0.711,1.143-1.234,1.582c-0.521,0.438-1.137,0.775-1.844,1.014
			c-0.707,0.239-1.469,0.358-2.285,0.358c-0.752,0-1.448-0.058-2.088-0.175c-0.637-0.113-1.197-0.248-1.684-0.401
			c-0.482-0.155-0.883-0.31-1.197-0.462c-0.315-0.154-0.527-0.27-0.636-0.348l1.177-2.56c0.186,0.107,0.428,0.222,0.728,0.347
			c0.299,0.123,0.639,0.241,1.015,0.356c0.377,0.115,0.797,0.211,1.258,0.287c0.461,0.077,0.945,0.117,1.451,0.117
			c0.277,0,0.566-0.034,0.866-0.104c0.299-0.07,0.567-0.185,0.808-0.347c0.237-0.161,0.436-0.36,0.588-0.599
			c0.153-0.239,0.23-0.534,0.23-0.89c0-0.198-0.031-0.403-0.092-0.61c-0.063-0.209-0.178-0.406-0.348-0.602
			c-0.17-0.189-0.396-0.372-0.68-0.541c-0.285-0.17-0.656-0.314-1.119-0.438L99.681,128.505z"/>
		
			<linearGradient id="SVGID_5_" gradientUnits="userSpaceOnUse" x1="-107.5483" y1="96.7397" x2="-103.8814" y2="113.9911" gradientTransform="matrix(1 0 0 -1 219.1602 231.8643)">
			<stop  offset="0" style="stop-color:#8DA5BD"/>
			<stop  offset="1" style="stop-color:#460073"/>
		</linearGradient>
		<path display="inline" fill="url(#SVGID_5_)" d="M115.125,131.736l3.608-12.432h3.276l-5.334,16.215h-3.206l-5.532-16.215h3.461
			L115.125,131.736z"/>
		
			<linearGradient id="SVGID_6_" gradientUnits="userSpaceOnUse" x1="-90.8013" y1="96.1812" x2="-87.2552" y2="112.8641" gradientTransform="matrix(1 0 0 -1 219.1602 231.8643)">
			<stop  offset="0" style="stop-color:#8DA5BD"/>
			<stop  offset="1" style="stop-color:#460073"/>
		</linearGradient>
		<path display="inline" fill="url(#SVGID_6_)" d="M130.795,121.679c-0.754,0-1.406,0.146-1.961,0.438
			c-0.553,0.293-1.008,0.696-1.359,1.211c-0.354,0.517-0.619,1.123-0.796,1.823c-0.177,0.698-0.267,1.456-0.267,2.271
			c0,0.815,0.082,1.565,0.242,2.25c0.162,0.684,0.42,1.271,0.771,1.764c0.355,0.494,0.809,0.881,1.361,1.165
			c0.555,0.285,1.215,0.428,1.983,0.428c0.446,0,0.854-0.03,1.224-0.094c0.369-0.06,0.705-0.13,1.014-0.207v-4.036h-2.975v-2.677
			h5.858v8.858c-0.17,0.076-0.408,0.174-0.716,0.287c-0.307,0.116-0.688,0.228-1.143,0.336c-0.453,0.106-0.986,0.198-1.603,0.275
			s-1.313,0.116-2.101,0.116c-1.184,0-2.229-0.193-3.137-0.576c-0.906-0.386-1.669-0.938-2.283-1.662
			c-0.615-0.724-1.08-1.606-1.395-2.651c-0.314-1.047-0.475-2.236-0.475-3.576c0-1.246,0.162-2.387,0.483-3.424
			c0.323-1.039,0.802-1.936,1.431-2.688c0.631-0.754,1.41-1.337,2.342-1.753c0.931-0.415,2.011-0.622,3.242-0.622
			c1.06,0,2.012,0.146,2.857,0.438c0.846,0.291,1.594,0.691,2.236,1.198l-1.359,2.285c-0.338-0.247-0.804-0.504-1.395-0.772
			C132.292,121.814,131.596,121.679,130.795,121.679z"/>
	</g>
	<g>
		
			<linearGradient id="SVGID_7_" gradientUnits="userSpaceOnUse" x1="-117.3594" y1="98.188" x2="-113.5721" y2="116.0057" gradientTransform="matrix(1 0 0 -1 219.1602 231.8643)">
			<stop  offset="0" style="stop-color:#8DA5BD"/>
			<stop  offset="1" style="stop-color:#460073"/>
		</linearGradient>
		<path fill="url(#SVGID_7_)" d="M103.327,120.173h-4.875v-3.049h13.086v3.049h-4.826v13.828h-3.385V120.173z"/>
		
			<linearGradient id="SVGID_8_" gradientUnits="userSpaceOnUse" x1="-106.1113" y1="97.9126" x2="-102.3355" y2="115.6759" gradientTransform="matrix(1 0 0 -1 219.1602 231.8643)">
			<stop  offset="0" style="stop-color:#8DA5BD"/>
			<stop  offset="1" style="stop-color:#460073"/>
		</linearGradient>
		<path fill="url(#SVGID_8_)" d="M116.722,117.774c0,0.56-0.164,1.022-0.492,1.392c-0.329,0.369-0.771,0.553-1.333,0.553
			c-0.561,0-1.004-0.188-1.333-0.564c-0.327-0.375-0.489-0.836-0.489-1.379c0-0.545,0.162-1.005,0.489-1.382
			c0.329-0.375,0.772-0.563,1.333-0.563c0.563,0,1.004,0.185,1.333,0.553C116.558,116.75,116.722,117.212,116.722,117.774z
			 M113.29,121.902h3.217v12.102h-3.217V121.902z"/>
		
			<linearGradient id="SVGID_9_" gradientUnits="userSpaceOnUse" x1="-95.6313" y1="97.0239" x2="-92.7923" y2="110.3808" gradientTransform="matrix(1 0 0 -1 219.1602 231.8643)">
			<stop  offset="0" style="stop-color:#8DA5BD"/>
			<stop  offset="1" style="stop-color:#460073"/>
		</linearGradient>
		<path fill="url(#SVGID_9_)" d="M122.797,134.001h-3.219v-12.101h2.93l0.119,1.61c0.111-0.209,0.269-0.426,0.47-0.649
			c0.2-0.225,0.444-0.432,0.729-0.624c0.289-0.191,0.627-0.349,1.01-0.469c0.385-0.12,0.815-0.18,1.297-0.18
			c1.537,0,2.633,0.421,3.289,1.261s0.984,1.997,0.984,3.469v7.683h-3.217v-7.489c0-0.832-0.177-1.4-0.529-1.705
			c-0.353-0.304-0.783-0.455-1.295-0.455c-0.529,0-0.962,0.104-1.298,0.312s-0.596,0.496-0.78,0.864
			c-0.185,0.369-0.313,0.796-0.385,1.283c-0.07,0.487-0.105,1.007-0.105,1.55V134.001z"/>
		
			<linearGradient id="SVGID_10_" gradientUnits="userSpaceOnUse" x1="-84.915" y1="92.4634" x2="-80.9296" y2="111.2134" gradientTransform="matrix(1 0 0 -1 219.1602 231.8643)">
			<stop  offset="0" style="stop-color:#8DA5BD"/>
			<stop  offset="1" style="stop-color:#460073"/>
		</linearGradient>
		<path fill="url(#SVGID_10_)" d="M131.812,121.902h3.575l2.645,7.637l2.77-7.637h3.316l-7.334,17.383h-3.082l2.576-6.17
			L131.812,121.902z"/>
	</g>
	<path id="path1231_2_" fill="none" stroke="#314E6C" stroke-width="0.518" d="M92.7,124.228l10.506-13.855"/>
	<path id="path1232_2_" fill="none" stroke="#314E6C" stroke-width="1.07" d="M89.44,125.505c0,0.002,0,0.002,0,0.004
		c0.002,1.094,0.889,1.979,1.982,1.979c1.092,0,1.979-0.888,1.976-1.98c0,0,0-0.002,0-0.006c0-1.092-0.886-1.978-1.979-1.976
		C90.325,123.526,89.44,124.414,89.44,125.505L89.44,125.505z"/>
	<path id="path1818_2_" fill="none" stroke="#314E6C" stroke-width="1.07" d="M102.043,108.744c0,1.094,0.889,1.979,1.981,1.979
		c1.093-0.003,1.978-0.888,1.978-1.981c0-0.002,0-0.002,0-0.005c0-1.094-0.889-1.979-1.981-1.979
		c-1.095,0.004-1.979,0.891-1.978,1.984C102.043,108.741,102.043,108.741,102.043,108.744z"/>
	
		<rect id="rect1019_2_" x="96.75" y="115.591" fill="#9F9F9F" fill-opacity="0.75" stroke="#C1C1C1" stroke-width="0.4678" width="3.402" height="3.4"/>
	
		<linearGradient id="path1500_4_" gradientUnits="userSpaceOnUse" x1="-1679.2974" y1="419.2319" x2="-1678.7102" y2="418.6895" gradientTransform="matrix(131.7509 0 0 -134.6955 221308.0625 56538.457)">
		<stop  offset="0" style="stop-color:#FFFFFF"/>
		<stop  offset="1" style="stop-color:#FFFFFF;stop-opacity:0"/>
	</linearGradient>
	<path id="path1500_1_" display="none" fill="url(#path1500_4_)" d="M154.145,90.8l0.32,71.479H84.59l-0.041-17.671
		c1.563,0.603,17.35-21.755,37.222-20.793C141.663,124.776,136.517,93.684,154.145,90.8z"/>
	
		<linearGradient id="path906_4_" gradientUnits="userSpaceOnUse" x1="-1655.7808" y1="404.272" x2="-1656.3158" y2="403.7414" gradientTransform="matrix(33.5276 0 0 -36.7392 55662.6289 14943.5625)">
		<stop  offset="0" style="stop-color:#DADADA"/>
		<stop  offset="0.3492" style="stop-color:#F1F1F1"/>
		<stop  offset="1" style="stop-color:#F0F0F0"/>
	</linearGradient>
	<path id="path906_1_" fill="url(#path906_4_)" d="M154.426,103.632c-5.365-1.59-12.316-1.362-17.566-0.459
		c0.906-5.815,1.02-13.107-0.229-19.039L154.426,103.632z"/>
</g>
<g id="Layer_5" xmlns:dc="http://purl.org/dc/elements/1.1/" xmlns:rdf="http://www.w3.org/1999/02/22-rdf-syntax-ns#" xmlns:cc="http://creativecommons.org/ns#" xmlns:svg="http://www.w3.org/2000/svg">
	<g id="g5024" display="none">
		<path id="path930_7_" display="inline" fill="#FFFFFF" d="M24.586,9.319v31.003v31.004v31.005v31.002h28.295h28.292h28.294h28.293
			v-31.002V71.326V40.322L109.467,9.319H81.174H52.882H24.586z"/>
		<g id="g1552_7_" transform="matrix(0.304171,0,0,0.297572,-36.704,-112.488)" display="inline">
			
				<linearGradient id="path1505_6_" gradientUnits="userSpaceOnUse" x1="-26183.6367" y1="15753.6367" x2="-26183.0195" y2="15754.4551" gradientTransform="matrix(12.2431 0 0 -12.8862 320802.9375 203838.8594)">
				<stop  offset="0" style="stop-color:#000000;stop-opacity:0.0955"/>
				<stop  offset="1" style="stop-color:#000000;stop-opacity:0"/>
			</linearGradient>
			<path id="path1505_7_" fill="url(#path1505_6_)" fill-opacity="0.75" d="M198.363,417.374V520.55v103.172v103.18v103.172h91.779
				h91.784h91.785h91.777V726.903V623.724V520.55l-91.777-103.176h-91.785h-91.784H198.363z"/>
			
				<linearGradient id="path1538_6_" gradientUnits="userSpaceOnUse" x1="-26187.6582" y1="15755.8516" x2="-26187.043" y2="15756.6689" gradientTransform="matrix(12.4255 0 0 -13.0571 325627.4375 206563.5156)">
				<stop  offset="0" style="stop-color:#000000;stop-opacity:0.0955"/>
				<stop  offset="1" style="stop-color:#000000;stop-opacity:0"/>
			</linearGradient>
			<path id="path1538_7_" fill="url(#path1538_6_)" fill-opacity="0.75" d="M195.633,416.001c0,138.934,0,277.874,0,416.804
				c124.201,0,248.4,0,372.604,0c0-104.446,0-208.883,0-313.32c-31.094-34.956-62.176-69.925-93.302-104.854
				c-93.102,0-186.2,0-279.299,0C195.633,414.913,195.633,415.827,195.633,416.001L195.633,416.001z"/>
			
				<linearGradient id="path1543_6_" gradientUnits="userSpaceOnUse" x1="-26191.6055" y1="15758.001" x2="-26190.9902" y2="15758.8184" gradientTransform="matrix(12.6085 0 0 -13.2284 330465.3438 209293.6094)">
				<stop  offset="0" style="stop-color:#000000;stop-opacity:0.0955"/>
				<stop  offset="1" style="stop-color:#000000;stop-opacity:0"/>
			</linearGradient>
			<path id="path1543_7_" fill="url(#path1543_6_)" fill-opacity="0.75" d="M192.886,413.257c0,140.768,0,281.53,0,422.291
				c126.033,0,252.059,0,378.086,0c0-105.706,0-211.413,0-317.117c-31.598-35.522-63.197-71.052-94.827-106.546
				c-94.418,0-188.838,0-283.259,0C192.886,412.17,192.886,413.084,192.886,413.257z"/>
		</g>
		
			<linearGradient id="rect900_6_" gradientUnits="userSpaceOnUse" x1="-1679.0117" y1="419.8755" x2="-1679.6818" y2="419.0589" gradientTransform="matrix(134.1105 0 0 -146.957 225287.6406 61730.6406)">
			<stop  offset="0" style="stop-color:#DADADA"/>
			<stop  offset="0.3492" style="stop-color:#F1F1F1"/>
			<stop  offset="1" style="stop-color:#F0F0F0"/>
		</linearGradient>
		
			<path id="rect900_7_" display="inline" fill="url(#rect900_6_)" stroke="#000000" stroke-width="1.2131" stroke-opacity="0.3648" d="
			M24.634,9.473v31.004v31.004v31.003v31.004h28.293H81.22h28.293h28.294v-31.004V71.481V40.477L109.514,9.473H81.221H52.927H24.634
			z"/>
		
			<linearGradient id="rect1558_6_" gradientUnits="userSpaceOnUse" x1="-1677.689" y1="419.6196" x2="-1678.0995" y2="419.0258" gradientTransform="matrix(115.777 0 0 -132.803 194360.2188 55729.4883)">
			<stop  offset="0" style="stop-color:#4B6983"/>
			<stop  offset="1" style="stop-color:#9DB8D2;stop-opacity:0"/>
		</linearGradient>
		<path id="rect1558_5_" display="inline" fill="url(#rect1558_6_)" d="M32.138,15.435v112.07h97.702V35.79l-18.438-20.355H32.138z"
			/>
		
			<linearGradient id="path892_1_" gradientUnits="userSpaceOnUse" x1="-1679.1294" y1="415.6421" x2="-1679.0614" y2="415.0624" gradientTransform="matrix(131.2444 0 0 -75.9907 220458.1875 31668.3574)">
			<stop  offset="0" style="stop-color:#445632"/>
			<stop  offset="1" style="stop-color:#007837;stop-opacity:0"/>
		</linearGradient>
		<path id="path892_5_" display="inline" fill="url(#path892_1_)" d="M83.489,62.53c9.359,2.408,27.458,19.925,4.771,19.82
			c-15.894-0.563-43.669-6.613-43.867-0.832c-0.198,5.78,14.574,2.766,54.716,13.269c40.456,10.584-23.56,10.516-4.112,15.527
			c19.446,5.016,39.873,1.674,44.332,10.975c4.459,9.299,0.426,4.994-6.033-1.437c-6.457-6.435-37.926,0.303-51.152-9.08
			c-13.23-9.384,29.391-7.813,13.302-14.493c-16.091-6.678-52.673,2.209-63.011-12.293c-10.618-14.892,24.449-7.71,37.509-6.493
			c13.06,1.216,31.451-3.464,6.684-11.554C73.748,64.811,80.225,66.05,83.489,62.53L83.489,62.53z"/>
		
			<linearGradient id="path1500_6_" gradientUnits="userSpaceOnUse" x1="-1679.8525" y1="419.8481" x2="-1678.9183" y2="418.985" gradientTransform="matrix(131.7509 0 0 -134.6955 221308.5 56538.207)">
			<stop  offset="0" style="stop-color:#FFFFFF"/>
			<stop  offset="1" style="stop-color:#FFFFFF;stop-opacity:0"/>
		</linearGradient>
		<path id="path1500_7_" display="inline" fill="url(#path1500_6_)" d="M137.363,20.071l0.511,113.667H26.753L26.69,105.64
			c2.484,0.956,27.589-34.6,59.191-33.068C117.512,74.103,109.329,24.658,137.363,20.071z"/>
		<path id="path1231_5_" display="inline" fill="none" stroke="#314E6C" stroke-width="0.9762" d="M23.301,71.769l19.802,26.113"/>
		<path id="path1232_5_" display="inline" fill="none" stroke="#314E6C" stroke-width="2.0164" d="M49.242,100.289
			c0.002-2.061-1.667-3.73-3.727-3.73c-2.06-0.002-3.732,1.667-3.733,3.727c0,0.004,0,0.006,0,0.006
			c-0.003,2.063,1.667,3.733,3.727,3.733c2.06,0.002,3.731-1.666,3.733-3.728C49.242,100.292,49.242,100.292,49.242,100.289
			L49.242,100.289z"/>
		<path id="path1818_5_" display="inline" fill="none" stroke="#314E6C" stroke-width="2.0164" d="M25.493,68.696
			c0.003-2.062-1.666-3.733-3.727-3.735c-2.061,0-3.733,1.666-3.735,3.728c0,0.002,0,0.004,0,0.008c0,2.059,1.667,3.729,3.727,3.731
			c2.061,0.003,3.733-1.664,3.734-3.725C25.493,68.698,25.493,68.696,25.493,68.696z"/>
		
			<linearGradient id="path906_6_" gradientUnits="userSpaceOnUse" x1="-1656.394" y1="406.186" x2="-1657.2444" y2="405.343" gradientTransform="matrix(33.5276 0 0 -36.7392 55662.9258 14943.2188)">
			<stop  offset="0" style="stop-color:#DADADA"/>
			<stop  offset="0.3492" style="stop-color:#F1F1F1"/>
			<stop  offset="1" style="stop-color:#F0F0F0"/>
		</linearGradient>
		<path id="path906_7_" display="inline" fill="url(#path906_6_)" d="M137.808,40.477c-8.53-2.526-19.582-2.167-27.933-0.729
			c1.439-9.251,1.621-20.844-0.361-30.275L137.808,40.477z"/>
		<g id="g3664_5_" transform="matrix(3.25085,0,0,3.25085,75.5665,11.4934)" display="inline">
			
				<radialGradient id="path1934_2_" cx="-272.4671" cy="102.5898" r="0.4194" fx="-272.7352" fy="102.5724" gradientTransform="matrix(639.5443 0 0 -117.712 174262.8438 12092.0244)" gradientUnits="userSpaceOnUse">
				<stop  offset="0" style="stop-color:#000000;stop-opacity:0.3164"/>
				<stop  offset="0.5" style="stop-color:#000000;stop-opacity:0.0791"/>
				<stop  offset="1" style="stop-color:#000000;stop-opacity:0"/>
			</radialGradient>
			<path id="path1934_5_" fill="url(#path1934_2_)" d="M15.987,15.929c0-0.798-3.517-1.446-7.856-1.446
				c-4.338,0-7.854,0.648-7.854,1.446s3.517,1.446,7.854,1.446C12.471,17.375,15.987,16.727,15.987,15.929z"/>
			<path id="path2139_5_" fill="#565248" d="M3.795,13.405c2.136-3.506,9.357-12.014,11.172-12.44
				c1.784-0.419,1.498,0.66,0.963,1.513c-0.545,0.868-2.918,5.829-10.707,11.494C4.066,14.364,3.795,13.405,3.795,13.405z"/>
			<path id="path2140_5_" fill="#434343" d="M-0.202,16.372c0,0,5.434,1.3,5.872-1.721c0.439-3.022-1.681-1.563-2.585-1.493
				C1.823,13.203,0.582,14.511-0.202,16.372z"/>
			
				<linearGradient id="path2230_1_" gradientUnits="userSpaceOnUse" x1="-272.0333" y1="103.6902" x2="-271.8783" y2="103.5475" gradientTransform="matrix(337.7711 0 0 -333.2784 91895.6172 34561.6719)">
				<stop  offset="0" style="stop-color:#FFFFFF"/>
				<stop  offset="1" style="stop-color:#FFFFFF;stop-opacity:0"/>
			</linearGradient>
			<path id="path2230_5_" fill="url(#path2230_1_)" d="M7.704,8.662c1.218-1.406,5.827-6.655,7.068-7.219
				c1.215-0.552,1.341-0.137,1.164,0.284c-0.176,0.421-6.33,7.895-7.03,7.63C8.206,9.093,7.687,9.028,7.704,8.662z"/>
			
				<linearGradient id="path2141_1_" gradientUnits="userSpaceOnUse" x1="-271.6655" y1="103.4072" x2="-271.3895" y2="103.1538" gradientTransform="matrix(242.6207 0 0 -226.4116 65917.4609 23423.1621)">
				<stop  offset="0" style="stop-color:#D6D6D6"/>
				<stop  offset="0.2577" style="stop-color:#EAEAEA"/>
				<stop  offset="0.7059" style="stop-color:#919191"/>
				<stop  offset="0.7335" style="stop-color:#D2D2D2"/>
				<stop  offset="1" style="stop-color:#A6A6A6"/>
			</linearGradient>
			<path id="path2141_5_" fill="url(#path2141_1_)" d="M3.89,12.893L7.416,8.43c0.395,0.857,2.746,1.396,2.381,1.808
				c-0.366,0.412-3.703,3.592-4.092,3.74C5.315,14.126,3.704,13.055,3.89,12.893z"/>
			
				<linearGradient id="path2247_1_" gradientUnits="userSpaceOnUse" x1="-271.1932" y1="102.1819" x2="-270.6115" y2="101.6278" gradientTransform="matrix(177.1898 0 0 -94.458 48052.293 9665.2949)">
				<stop  offset="0" style="stop-color:#FFFFFF"/>
				<stop  offset="1" style="stop-color:#FFFFFF;stop-opacity:0"/>
			</linearGradient>
			<path id="path2247_5_" fill="url(#path2247_1_)" d="M0.257,15.843c0,0,1.187-2.507,3.08-2.29c1.43,0.141,1.267,0.569,1.267,0.569
				S2.808,16.06,0.257,15.843z"/>
		</g>
		
			<rect id="rect1019_5_" x="29.056" y="81.604" display="inline" fill="#9F9F9F" fill-opacity="0.75" stroke="#C1C1C1" stroke-width="0.8816" width="6.41" height="6.409"/>
		<path id="path1557_5_" display="inline" fill="#267726" d="M75.721,65.797l-0.958-0.658c0,0,0.656-2.961,3.434-5.778
			c2.696-2.737,3.792-1.785,1.834,0.385c-1.076,1.316-0.358,3.947,0.358,3.026c0.72-0.92,4.432-2.237,3.354-1.052
			c-1.077,1.183-2.154,2.893-0.238,2.237c1.916-0.658,4.549-1.448,3.352-0.265c-1.196,1.183-1.077,1.579,0.479,0.789
			c1.557-0.789,2.754-0.264,1.916,0.394c-0.84,0.658-4.072,1.447-4.91,1.447C83.504,66.322,76.679,66.322,75.721,65.797z"/>
	</g>
	<g id="g5120" display="none">
		<path id="path930_5_" display="inline" fill="#FFFFFF" d="M84.709,86.58v18.217v18.216v18.217v18.217h16.625h16.623h16.625h16.623
			v-18.217v-18.217v-18.216L134.583,86.58h-16.625h-16.623H84.709z"/>
		<g id="g1552_5_" transform="matrix(0.304171,0,0,0.297572,-36.704,-112.488)" display="inline">
			
				<linearGradient id="path1505_8_" gradientUnits="userSpaceOnUse" x1="-26168.584" y1="15747.1191" x2="-26168.2227" y2="15747.5996" gradientTransform="matrix(12.2431 0 0 -12.8862 320802.9375 203838.8594)">
				<stop  offset="0" style="stop-color:#000000;stop-opacity:0.0955"/>
				<stop  offset="1" style="stop-color:#000000;stop-opacity:0"/>
			</linearGradient>
			<path id="path1505_5_" fill="url(#path1505_8_)" fill-opacity="0.75" d="M397.325,673.692v60.627v60.614v60.621v60.618h53.925
				h53.925H559.1h53.928v-60.618v-60.621v-60.614L559.1,673.692h-53.925H451.25H397.325z"/>
			
				<linearGradient id="path1538_8_" gradientUnits="userSpaceOnUse" x1="-26172.7715" y1="15749.4785" x2="-26172.4102" y2="15749.959" gradientTransform="matrix(12.4255 0 0 -13.0571 325627.4375 206563.5156)">
				<stop  offset="0" style="stop-color:#000000;stop-opacity:0.0955"/>
				<stop  offset="1" style="stop-color:#000000;stop-opacity:0"/>
			</linearGradient>
			<path id="path1538_5_" fill="url(#path1538_8_)" fill-opacity="0.75" d="M395.715,672.885c0,81.637,0,163.268,0,244.892
				c72.975,0,145.944,0,218.921,0c0-61.362,0-122.722,0-184.088c-18.262-20.537-36.53-41.088-54.817-61.605
				c-54.702,0-109.403,0-164.103,0C395.715,672.255,395.715,672.78,395.715,672.885z"/>
			
				<linearGradient id="path1543_8_" gradientUnits="userSpaceOnUse" x1="-26176.8418" y1="15751.8252" x2="-26176.4805" y2="15752.3057" gradientTransform="matrix(12.6085 0 0 -13.2284 330465.3438 209293.6094)">
				<stop  offset="0" style="stop-color:#000000;stop-opacity:0.0955"/>
				<stop  offset="1" style="stop-color:#000000;stop-opacity:0"/>
			</linearGradient>
			<path id="path1543_5_" fill="url(#path1543_8_)" fill-opacity="0.75" d="M394.107,671.283c0,82.701,0,165.408,0,248.108
				c74.044,0,148.092,0,222.141,0c0-62.111,0-124.208,0-186.319c-18.57-20.872-37.127-41.737-55.716-62.596
				c-55.479,0-110.951,0-166.425,0C394.107,670.64,394.107,671.172,394.107,671.283L394.107,671.283z"/>
		</g>
		
			<linearGradient id="rect900_8_" gradientUnits="userSpaceOnUse" x1="-1678.8389" y1="419.4009" x2="-1679.233" y2="418.9207" gradientTransform="matrix(134.1105 0 0 -146.957 225287.6406 61730.6406)">
			<stop  offset="0" style="stop-color:#DADADA"/>
			<stop  offset="0.3492" style="stop-color:#F1F1F1"/>
			<stop  offset="1" style="stop-color:#F0F0F0"/>
		</linearGradient>
		
			<path id="rect900_5_" display="inline" fill="url(#rect900_8_)" stroke="#000000" stroke-width="0.7127" stroke-opacity="0.3648" d="
			M84.738,86.669v18.216v18.218v18.217v18.217h16.623h16.624h16.624h16.623V141.32v-18.217v-18.218l-16.623-18.216h-16.624h-16.624
			H84.738z"/>
		
			<linearGradient id="rect1558_7_" gradientUnits="userSpaceOnUse" x1="-1677.5181" y1="419.019" x2="-1677.7596" y2="418.6697" gradientTransform="matrix(115.777 0 0 -132.803 194360.2188 55729.4883)">
			<stop  offset="0" style="stop-color:#4B6983"/>
			<stop  offset="1" style="stop-color:#9DB8D2;stop-opacity:0"/>
		</linearGradient>
		<path id="rect1558_3_" display="inline" fill="url(#rect1558_7_)" d="M89.147,90.173v65.847h57.404v-53.888l-10.834-11.959H89.147
			z"/>
		
			<linearGradient id="path892_2_" gradientUnits="userSpaceOnUse" x1="-1678.8516" y1="415.0269" x2="-1678.8118" y2="414.6866" gradientTransform="matrix(131.2444 0 0 -75.9907 220458.1875 31668.3574)">
			<stop  offset="0" style="stop-color:#445632"/>
			<stop  offset="1" style="stop-color:#007837;stop-opacity:0"/>
		</linearGradient>
		<path id="path892_3_" display="inline" fill="url(#path892_2_)" d="M119.319,117.844c5.498,1.415,16.133,11.707,2.803,11.644
			c-9.338-0.331-25.656-3.886-25.772-0.488c-0.116,3.396,8.563,1.625,32.147,7.797c23.771,6.219-13.843,6.18-2.418,9.123
			c11.428,2.944,23.428,0.984,26.047,6.447c2.621,5.463,0.252,2.937-3.545-0.844c-3.793-3.779-22.281,0.178-30.055-5.336
			c-7.771-5.514,17.268-4.592,7.814-8.514c-9.455-3.926-30.946,1.298-37.021-7.223c-6.236-8.75,14.366-4.531,22.04-3.815
			c7.673,0.714,18.478-2.035,3.927-6.788C113.595,119.183,117.4,119.91,119.319,117.844L119.319,117.844z"/>
		
			<linearGradient id="path1500_8_" gradientUnits="userSpaceOnUse" x1="-1679.2759" y1="419.2056" x2="-1678.7271" y2="418.6985" gradientTransform="matrix(131.7509 0 0 -134.6955 221308.5 56538.207)">
			<stop  offset="0" style="stop-color:#FFFFFF"/>
			<stop  offset="1" style="stop-color:#FFFFFF;stop-opacity:0"/>
		</linearGradient>
		<path id="path1500_5_" display="inline" fill="url(#path1500_8_)" d="M150.972,92.898l0.3,66.781H85.984l-0.039-16.508
			c1.462,0.562,16.212-20.327,34.779-19.43C139.309,124.644,134.5,95.593,150.972,92.898z"/>
		<path id="path1231_3_" display="inline" fill="none" stroke="#314E6C" stroke-width="0.5736" d="M83.956,123.271l11.634,15.343"/>
		<path id="path1232_3_" display="inline" fill="none" stroke="#314E6C" stroke-width="1.1847" d="M99.197,140.027
			c0.001-1.21-0.979-2.191-2.19-2.191s-2.19,0.979-2.19,2.188c0,0.002,0,0.004,0,0.004c-0.002,1.213,0.979,2.194,2.188,2.196
			c1.213,0,2.192-0.979,2.195-2.188C99.197,140.029,99.197,140.029,99.197,140.027z"/>
		<path id="path1818_3_" display="inline" fill="none" stroke="#314E6C" stroke-width="1.1847" d="M85.243,121.464
			c0.004-1.209-0.979-2.19-2.188-2.192c-1.212-0.001-2.194,0.979-2.195,2.188c0,0.002,0,0.002,0,0.004
			c0,1.211,0.979,2.192,2.19,2.192c1.21,0.003,2.191-0.979,2.193-2.188C85.243,121.47,85.243,121.468,85.243,121.464z"/>
		
			<linearGradient id="path906_8_" gradientUnits="userSpaceOnUse" x1="-1655.873" y1="404.2065" x2="-1656.3738" y2="403.7101" gradientTransform="matrix(33.5276 0 0 -36.7392 55662.9258 14943.2188)">
			<stop  offset="0" style="stop-color:#DADADA"/>
			<stop  offset="0.3492" style="stop-color:#F1F1F1"/>
			<stop  offset="1" style="stop-color:#F0F0F0"/>
		</linearGradient>
		<path id="path906_5_" display="inline" fill="url(#path906_8_)" d="M151.232,104.885c-5.012-1.482-11.506-1.272-16.411-0.427
			c0.848-5.438,0.952-12.246-0.212-17.789L151.232,104.885z"/>
		<g id="g3664_3_" transform="matrix(3.25085,0,0,3.25085,75.5665,11.4934)" display="inline">
			
				<radialGradient id="path1934_4_" cx="-272.4536" cy="102.4465" r="0.2476" fx="-272.6117" fy="102.4362" gradientTransform="matrix(639.5443 0 0 -117.712 174262.8438 12092.0244)" gradientUnits="userSpaceOnUse">
				<stop  offset="0" style="stop-color:#000000;stop-opacity:0.3164"/>
				<stop  offset="0.5" style="stop-color:#000000;stop-opacity:0.0791"/>
				<stop  offset="1" style="stop-color:#000000;stop-opacity:0"/>
			</radialGradient>
			<path id="path1934_3_" fill="url(#path1934_4_)" d="M21.42,32.849c0-0.469-2.066-0.85-4.616-0.85
				c-2.548,0-4.614,0.381-4.614,0.85c0,0.47,2.066,0.849,4.614,0.849C19.354,33.698,21.42,33.319,21.42,32.849z"/>
			<path id="path2139_3_" fill="#565248" d="M14.256,31.366c1.255-2.06,5.497-7.058,6.564-7.309c1.048-0.246,0.88,0.388,0.566,0.889
				c-0.32,0.51-1.715,3.425-6.291,6.753C14.416,31.93,14.256,31.366,14.256,31.366z"/>
			<path id="path2140_3_" fill="#434343" d="M11.908,33.109c0,0,3.193,0.764,3.45-1.011c0.258-1.776-0.987-0.919-1.519-0.877
				C13.098,31.248,12.368,32.016,11.908,33.109z"/>
			
				<linearGradient id="path2230_2_" gradientUnits="userSpaceOnUse" x1="-272.0106" y1="103.6244" x2="-271.9211" y2="103.542" gradientTransform="matrix(337.7711 0 0 -333.2784 91895.6172 34561.6719)">
				<stop  offset="0" style="stop-color:#FFFFFF"/>
				<stop  offset="1" style="stop-color:#FFFFFF;stop-opacity:0"/>
			</linearGradient>
			<path id="path2230_3_" fill="url(#path2230_2_)" d="M16.553,28.58c0.715-0.827,3.423-3.91,4.153-4.242
				c0.713-0.325,0.788-0.08,0.684,0.167s-3.72,4.638-4.131,4.483C16.848,28.833,16.543,28.795,16.553,28.58z"/>
			
				<linearGradient id="path2141_2_" gradientUnits="userSpaceOnUse" x1="-271.6256" y1="103.3225" x2="-271.4645" y2="103.1745" gradientTransform="matrix(242.6207 0 0 -226.4116 65917.4609 23423.1621)">
				<stop  offset="0" style="stop-color:#D6D6D6"/>
				<stop  offset="0.2577" style="stop-color:#EAEAEA"/>
				<stop  offset="0.7059" style="stop-color:#919191"/>
				<stop  offset="0.7335" style="stop-color:#D2D2D2"/>
				<stop  offset="1" style="stop-color:#A6A6A6"/>
			</linearGradient>
			<path id="path2141_3_" fill="url(#path2141_2_)" d="M14.313,31.066l2.071-2.623c0.232,0.503,1.614,0.82,1.399,1.062
				c-0.215,0.242-2.176,2.11-2.404,2.197C15.15,31.789,14.202,31.161,14.313,31.066z"/>
			
				<linearGradient id="path2247_2_" gradientUnits="userSpaceOnUse" x1="-271.1247" y1="101.9914" x2="-270.7824" y2="101.6654" gradientTransform="matrix(177.1898 0 0 -94.458 48052.293 9665.2949)">
				<stop  offset="0" style="stop-color:#FFFFFF"/>
				<stop  offset="1" style="stop-color:#FFFFFF;stop-opacity:0"/>
			</linearGradient>
			<path id="path2247_3_" fill="url(#path2247_2_)" d="M12.178,32.798c0,0,0.698-1.472,1.81-1.346
				c0.84,0.083,0.744,0.334,0.744,0.334S13.677,32.926,12.178,32.798z"/>
		</g>
		
			<rect id="rect1019_3_" x="87.336" y="129.051" display="inline" fill="#9F9F9F" fill-opacity="0.75" stroke="#C1C1C1" stroke-width="0.518" width="3.768" height="3.765"/>
		<path id="path1557_3_" display="inline" fill="#267726" d="M114.754,119.762l-0.563-0.386c0,0,0.388-1.74,2.019-3.396
			c1.586-1.607,2.229-1.05,1.078,0.227c-0.636,0.773-0.211,2.317,0.211,1.777s2.604-1.314,1.969-0.618
			c-0.633,0.695-1.264,1.7-0.139,1.313c1.125-0.389,2.672-0.854,1.967-0.155c-0.701,0.697-0.633,0.931,0.285,0.468
			c0.912-0.468,1.615-0.156,1.123,0.229c-0.492,0.385-2.392,0.85-2.884,0.85C119.327,120.072,115.316,120.072,114.754,119.762z"/>
	</g>
	
		<radialGradient id="path1934_6_" cx="-1693.2832" cy="356.6948" r="0.5124" fx="-1693.6107" fy="356.6735" gradientTransform="matrix(-60.5169 0 0 -11.1385 -102427.6875 4134.2925)" gradientUnits="userSpaceOnUse">
		<stop  offset="0" style="stop-color:#000000;stop-opacity:0.3164"/>
		<stop  offset="0.5" style="stop-color:#000000;stop-opacity:0.0791"/>
		<stop  offset="1" style="stop-color:#000000;stop-opacity:0"/>
	</radialGradient>
	<path id="path1934_1_" fill="url(#path1934_6_)" d="M44.542,166.974c17.151,0,31.055-2.561,31.055-5.719
		c0-3.154-13.904-5.715-31.055-5.715c-17.154,0-31.058,2.561-31.058,5.715C13.484,164.414,27.388,166.974,44.542,166.974z"/>
	
		<linearGradient id="path5229_1_" gradientUnits="userSpaceOnUse" x1="-401.2744" y1="574.2173" x2="-382.0177" y2="518.2913" gradientTransform="matrix(1 0 0 1 438.3203 -425.8555)">
		<stop  offset="0" style="stop-color:#1756FF;stop-opacity:0.76"/>
		<stop  offset="1" style="stop-color:#00025C"/>
	</linearGradient>
	<path id="path5229" fill="url(#path5229_1_)" stroke="#565248" stroke-width="1.2298" stroke-miterlimit="10" d="M16.646,87.521
		c-4.743,9.698-7.656,27.538-2.679,38.057c8.686,18.355,30.607,26.193,48.961,17.51l8.02,16.947l8.552-19.399l8.549-19.398
		l-20.421-5.69l-20.421-5.694l7.661,16.192c-8.943,4.23-19.622,0.41-23.853-8.533c-4.232-8.938,2.049-25.77,10.99-29.999
		L16.646,87.521z"/>
</g>
</svg>
