<?xml version="1.0" encoding="utf-8"?>
<!-- Generator: Adobe Illustrator 15.0.0, SVG Export Plug-In . SVG Version: 6.00 Build 0)  -->
<!DOCTYPE svg PUBLIC "-//W3C//DTD SVG 1.1//EN" "http://www.w3.org/Graphics/SVG/1.1/DTD/svg11.dtd">
<svg version="1.1" id="Layer_1" xmlns="http://www.w3.org/2000/svg" xmlns:xlink="http://www.w3.org/1999/xlink" x="0px" y="0px"
	 width="167.083px" height="168.585px" viewBox="0 0 167.083 168.585" enable-background="new 0 0 167.083 168.585"
	 xml:space="preserve">
<g id="Layer_2">
	<path id="path930_2_" fill="#FFFFFF" stroke="#000000" stroke-width="2" d="M24.498,9.549v30.993v30.992v30.993v30.992h28.283
		h28.283h28.284h28.283v-30.992V71.536V40.543L109.348,9.549H81.064H52.782H24.498z"/>
	<g id="g1552_2_" transform="matrix(0.304171,0,0,0.297572,-36.704,-112.488)">
		
			<linearGradient id="path1505_3_" gradientUnits="userSpaceOnUse" x1="-1527765.875" y1="1905059.5" x2="-1527741.875" y2="1905027.5" gradientTransform="matrix(3.724 0 0 3.8346 326052.125 195942.0938)">
			<stop  offset="0" style="stop-color:#000000;stop-opacity:0.0955"/>
			<stop  offset="1" style="stop-color:#000000;stop-opacity:0"/>
		</linearGradient>
		<path id="path1505_2_" fill="url(#path1505_3_)" fill-opacity="0.75" d="M198.068,418.146v103.138v103.139v103.143v103.133h91.75
			h91.75h91.745h91.758V727.566V624.421V521.283l-91.758-103.138h-91.745h-91.75H198.068L198.068,418.146z"/>
		
			<linearGradient id="path1538_3_" gradientUnits="userSpaceOnUse" x1="-1528912.875" y1="1904243.75" x2="-1528888.875" y2="1904211.875" gradientTransform="matrix(3.7795 0 0 3.8854 330972.5625 198572.3281)">
			<stop  offset="0" style="stop-color:#000000;stop-opacity:0.0955"/>
			<stop  offset="1" style="stop-color:#000000;stop-opacity:0"/>
		</linearGradient>
		<path id="path1538_2_" fill="url(#path1538_3_)" fill-opacity="0.75" d="M195.337,416.776c0,138.884,0,277.769,0,416.653
			c124.159,0,248.317,0,372.47,0c0-104.403,0-208.804,0-313.207c-31.078-34.944-62.153-69.9-93.264-104.818
			c-93.07,0-186.139,0-279.204,0C195.337,415.686,195.337,416.598,195.337,416.776z"/>
		
			<linearGradient id="path1543_3_" gradientUnits="userSpaceOnUse" x1="-1528936.75" y1="1904244.375" x2="-1528912.75" y2="1904212.5" gradientTransform="matrix(3.8351 0 0 3.9364 335904.25 201207.375)">
			<stop  offset="0" style="stop-color:#000000;stop-opacity:0.0955"/>
			<stop  offset="1" style="stop-color:#000000;stop-opacity:0"/>
		</linearGradient>
		<path id="path1543_2_" fill="url(#path1543_3_)" fill-opacity="0.75" d="M192.597,414.032c0,140.714,0,281.428,0,422.137
			c125.983,0,251.969,0,377.952,0c0-105.663,0-211.333,0-317.003c-31.592-35.505-63.171-71.027-94.795-106.505
			c-94.38,0-188.769,0-283.155,0C192.597,412.942,192.597,413.856,192.597,414.032z"/>
	</g>
	
		<linearGradient id="rect900_3_" gradientUnits="userSpaceOnUse" x1="-2232.4551" y1="26.3696" x2="-2233.1262" y2="27.1876" gradientTransform="matrix(134.1105 0 0 146.957 299510.3125 -3848.0566)">
		<stop  offset="0" style="stop-color:#DADADA"/>
		<stop  offset="0.3492" style="stop-color:#F1F1F1"/>
		<stop  offset="1" style="stop-color:#F0F0F0"/>
	</linearGradient>
	<path id="rect900_2_" fill="url(#rect900_3_)" stroke="#000000" stroke-width="1.2127" stroke-opacity="0.3648" d="M24.544,9.704
		v30.993V71.69v30.991v30.994h28.283H81.11h28.284h28.282v-30.994V71.69V40.696L109.394,9.704H81.112H52.828H24.544z"/>
	
		<linearGradient id="rect1558_2_" gradientUnits="userSpaceOnUse" x1="-2230.7388" y1="26.7744" x2="-2231.1494" y2="27.3682" gradientTransform="matrix(115.777 0 0 132.803 258390.5938 -3552.9023)">
		<stop  offset="0" style="stop-color:#4B6983"/>
		<stop  offset="1" style="stop-color:#9DB8D2;stop-opacity:0"/>
	</linearGradient>
	<path id="rect1558" fill="url(#rect1558_2_)" d="M32.044,15.664v112.031h97.667V36.012L111.28,15.664H32.044z"/>
	<g>
		
			<linearGradient id="SVGID_1_" gradientUnits="userSpaceOnUse" x1="-385.4194" y1="505.7798" x2="-379.1766" y2="476.4095" gradientTransform="matrix(1 0 0 1 438.3203 -425.8555)">
			<stop  offset="0" style="stop-color:#8DA5BD"/>
			<stop  offset="1" style="stop-color:#460073"/>
		</linearGradient>
		<path fill="url(#SVGID_1_)" d="M53.657,67.082c-1.027-0.297-1.991-0.689-2.896-1.175c-0.905-0.484-1.694-1.058-2.369-1.721
			c-0.675-0.661-1.208-1.43-1.6-2.307s-0.587-1.843-0.587-2.896c0-2.834,0.836-4.993,2.511-6.479
			c1.673-1.484,4.104-2.227,7.289-2.227c0.891,0,1.768,0.067,2.632,0.202c0.863,0.136,1.673,0.312,2.429,0.527
			c0.756,0.217,1.444,0.459,2.066,0.729c0.621,0.271,1.161,0.541,1.619,0.81l-2.065,4.292c-0.541-0.324-1.397-0.688-2.571-1.093
			c-1.174-0.404-2.571-0.607-4.191-0.607c-0.459,0-0.925,0.054-1.397,0.162c-0.473,0.107-0.905,0.289-1.295,0.544
			c-0.392,0.256-0.709,0.592-0.952,1.009c-0.243,0.417-0.364,0.921-0.364,1.513c0,0.376,0.053,0.733,0.162,1.069
			c0.107,0.336,0.317,0.666,0.628,0.988c0.31,0.322,0.729,0.627,1.255,0.913s1.208,0.551,2.044,0.796l2.592,0.734
			c2.348,0.652,4.164,1.634,5.446,2.944c1.282,1.309,1.923,3.111,1.923,5.404c0,1.351-0.263,2.565-0.79,3.645
			c-0.526,1.081-1.249,2.005-2.166,2.774c-0.918,0.77-1.999,1.363-3.239,1.781c-1.242,0.418-2.579,0.627-4.009,0.627
			c-1.323,0-2.545-0.101-3.665-0.303c-1.12-0.202-2.105-0.438-2.956-0.708c-0.851-0.271-1.553-0.54-2.106-0.811
			c-0.554-0.271-0.925-0.472-1.113-0.607l2.065-4.495c0.324,0.189,0.749,0.393,1.275,0.607c0.527,0.217,1.12,0.426,1.782,0.629
			c0.662,0.201,1.397,0.37,2.207,0.505c0.81,0.136,1.66,0.203,2.551,0.203c0.486,0,0.992-0.062,1.519-0.183
			c0.527-0.121,0.999-0.324,1.417-0.607c0.417-0.283,0.762-0.633,1.033-1.053c0.269-0.418,0.405-0.938,0.405-1.559
			c0-0.351-0.054-0.709-0.162-1.073c-0.108-0.365-0.311-0.715-0.607-1.053c-0.298-0.337-0.695-0.654-1.195-0.952
			c-0.5-0.296-1.154-0.552-1.964-0.769L53.657,67.082z"/>
		
			<linearGradient id="SVGID_2_" gradientUnits="userSpaceOnUse" x1="-363.7207" y1="504.5542" x2="-357.2835" y2="474.2693" gradientTransform="matrix(1 0 0 1 438.3203 -425.8555)">
			<stop  offset="0" style="stop-color:#8DA5BD"/>
			<stop  offset="1" style="stop-color:#460073"/>
		</linearGradient>
		<path fill="url(#SVGID_2_)" d="M80.766,72.75l6.337-21.825h5.752l-9.36,28.466h-5.632l-9.712-28.466h6.076L80.766,72.75z"/>
		
			<linearGradient id="SVGID_3_" gradientUnits="userSpaceOnUse" x1="-334.3159" y1="505.5356" x2="-328.0907" y2="476.2485" gradientTransform="matrix(1 0 0 1 438.3203 -425.8555)">
			<stop  offset="0" style="stop-color:#8DA5BD"/>
			<stop  offset="1" style="stop-color:#460073"/>
		</linearGradient>
		<path fill="url(#SVGID_3_)" d="M108.28,55.097c-1.322,0-2.47,0.256-3.441,0.769c-0.973,0.513-1.769,1.222-2.389,2.125
			c-0.621,0.904-1.088,1.97-1.398,3.199c-0.309,1.229-0.465,2.558-0.465,3.989c0,1.431,0.143,2.746,0.424,3.948
			c0.285,1.201,0.736,2.234,1.357,3.097c0.62,0.864,1.418,1.546,2.391,2.045c0.973,0.5,2.133,0.75,3.479,0.75
			c0.783,0,1.5-0.055,2.147-0.163c0.646-0.108,1.24-0.229,1.781-0.364v-7.086h-5.226v-4.697h10.285v15.55
			c-0.297,0.135-0.715,0.303-1.255,0.506c-0.54,0.202-1.209,0.398-2.006,0.587c-0.797,0.188-1.733,0.351-2.813,0.486
			c-1.082,0.134-2.309,0.201-3.688,0.201c-2.076,0-3.912-0.337-5.506-1.011c-1.594-0.675-2.931-1.647-4.008-2.916
			c-1.082-1.269-1.897-2.82-2.451-4.657c-0.553-1.835-0.83-3.928-0.83-6.275c0-2.188,0.283-4.191,0.851-6.013
			s1.403-3.395,2.511-4.718c1.107-1.322,2.479-2.348,4.111-3.077s3.529-1.093,5.688-1.093c1.863,0,3.537,0.257,5.021,0.769
			c1.484,0.512,2.795,1.214,3.928,2.106l-2.389,4.009c-0.596-0.432-1.41-0.884-2.45-1.357
			C110.905,55.333,109.684,55.097,108.28,55.097z"/>
	</g>
	<path id="path1231_1_" fill="none" stroke="#314E6C" stroke-width="0.8235" d="M39.553,63.439L56.258,41.41"/>
	<path id="path1232_1_" fill="none" stroke="#314E6C" stroke-width="1.701" d="M34.374,65.469c0,0.003,0,0.003,0,0.007
		c0.002,1.738,1.412,3.145,3.15,3.144c1.737,0,3.146-1.41,3.144-3.15c0,0,0-0.001,0-0.005c-0.001-1.737-1.412-3.144-3.149-3.143
		C35.781,62.321,34.372,63.73,34.374,65.469L34.374,65.469z"/>
	<path id="path1818_1_" fill="none" stroke="#314E6C" stroke-width="1.701" d="M54.41,38.824c0,1.739,1.411,3.146,3.15,3.142
		c1.737-0.001,3.144-1.411,3.144-3.147c0-0.003,0-0.005,0-0.006c-0.002-1.74-1.412-3.146-3.151-3.146
		c-1.739,0.002-3.146,1.412-3.144,3.151C54.409,38.817,54.409,38.819,54.41,38.824z"/>
	
		<rect id="rect1019_1_" x="44.996" y="50.707" fill="#9F9F9F" fill-opacity="0.75" stroke="#C1C1C1" stroke-width="0.7437" width="5.407" height="5.406"/>
	
		<linearGradient id="path906_3_" gradientUnits="userSpaceOnUse" x1="-2202.3018" y1="44.3989" x2="-2203.1526" y2="45.2426" gradientTransform="matrix(33.5276 0 0 36.7392 73965.7813 -1610.6965)">
		<stop  offset="0" style="stop-color:#DADADA"/>
		<stop  offset="0.3492" style="stop-color:#F1F1F1"/>
		<stop  offset="1" style="stop-color:#F0F0F0"/>
	</linearGradient>
	<path id="path906_2_" fill="url(#path906_3_)" d="M137.678,40.696c-8.528-2.523-19.576-2.167-27.924-0.727
		c1.439-9.247,1.621-20.838-0.36-30.266L137.678,40.696z"/>
</g>
<g id="Layer_3">
	<path id="path930_1_" fill="#FFFFFF" stroke="#000000" stroke-width="2" d="M83.229,84.039v19.496v19.496v19.496v19.497h17.792
		h17.792h17.791h17.793v-19.497v-19.496v-19.494l-17.793-19.498h-17.791H101.02H83.229z"/>
	<g id="g1552_1_" transform="matrix(0.304171,0,0,0.297572,-36.704,-112.488)">
		
			<linearGradient id="path1505_4_" gradientUnits="userSpaceOnUse" x1="-994628.3125" y1="1177003.625" x2="-994618.75" y2="1176991" gradientTransform="matrix(3.724 0 0 3.8346 326052.125 195942.0938)">
			<stop  offset="0" style="stop-color:#000000;stop-opacity:0.0955"/>
			<stop  offset="1" style="stop-color:#000000;stop-opacity:0"/>
		</linearGradient>
		<path id="path1505_1_" fill="url(#path1505_4_)" fill-opacity="0.75" d="M392.319,665.491v64.874v64.881v64.884v64.881h57.715
			h57.71h57.723h57.71v-64.881v-64.884v-64.881l-57.71-64.874h-57.723h-57.71H392.319z"/>
		
			<linearGradient id="path1538_4_" gradientUnits="userSpaceOnUse" x1="-992914.375" y1="1178500.375" x2="-992904.875" y2="1178487.75" gradientTransform="matrix(3.7795 0 0 3.8854 330972.5625 198572.3281)">
			<stop  offset="0" style="stop-color:#000000;stop-opacity:0.0955"/>
			<stop  offset="1" style="stop-color:#000000;stop-opacity:0"/>
		</linearGradient>
		<path id="path1538_1_" fill="url(#path1538_4_)" fill-opacity="0.75" d="M390.599,664.628c0,87.364,0,174.731,0,262.098
			c78.1,0,156.201,0,234.304,0c0-65.675,0-131.35,0-197.028c-19.552-21.981-39.098-43.972-58.67-65.931
			c-58.548,0-117.096,0-175.634,0C390.599,663.942,390.599,664.516,390.599,664.628z"/>
		
			<linearGradient id="path1543_4_" gradientUnits="userSpaceOnUse" x1="-992944.375" y1="1178507.875" x2="-992934.875" y2="1178495.25" gradientTransform="matrix(3.8351 0 0 3.9364 335904.25 201207.375)">
			<stop  offset="0" style="stop-color:#000000;stop-opacity:0.0955"/>
			<stop  offset="1" style="stop-color:#000000;stop-opacity:0"/>
		</linearGradient>
		<path id="path1543_1_" fill="url(#path1543_4_)" fill-opacity="0.75" d="M388.875,662.902c0,88.513,0,177.032,0,265.548
			c79.247,0,158.496,0,237.756,0c0-66.469,0-132.938,0-199.413c-19.877-22.329-39.744-44.678-59.636-66.994
			c-59.373,0-118.749,0-178.118,0C388.875,662.217,388.875,662.79,388.875,662.902z"/>
	</g>
	
		<linearGradient id="rect900_4_" gradientUnits="userSpaceOnUse" x1="-2232.2666" y1="26.832" x2="-2232.6882" y2="27.346" gradientTransform="matrix(134.1105 0 0 146.957 299510.3125 -3848.0566)">
		<stop  offset="0" style="stop-color:#DADADA"/>
		<stop  offset="0.3492" style="stop-color:#F1F1F1"/>
		<stop  offset="1" style="stop-color:#F0F0F0"/>
	</linearGradient>
	<path id="rect900_1_" fill="url(#rect900_4_)" stroke="#000000" stroke-width="0.7628" stroke-opacity="0.3648" d="M83.256,84.135
		v19.497v19.498v19.494v19.496h17.793h17.791h17.791h17.791v-19.496V123.13v-19.498l-17.791-19.497H118.84h-17.791H83.256z"/>
	
		<linearGradient id="rect1558_3_" gradientUnits="userSpaceOnUse" x1="-2230.5444" y1="27.3535" x2="-2230.803" y2="27.7277" gradientTransform="matrix(115.777 0 0 132.803 258390.5938 -3552.9023)">
		<stop  offset="0" style="stop-color:#4B6983"/>
		<stop  offset="1" style="stop-color:#9DB8D2;stop-opacity:0"/>
	</linearGradient>
	<path id="rect1558_1_" fill="url(#rect1558_3_)" d="M87.975,87.884v70.474h61.438v-57.674l-11.595-12.8H87.975z"/>
	<g>
		
			<linearGradient id="SVGID_4_" gradientUnits="userSpaceOnUse" x1="-343.666" y1="561.6392" x2="-339.0361" y2="539.8568" gradientTransform="matrix(1 0 0 1 438.3203 -425.8555)">
			<stop  offset="0" style="stop-color:#FF9900"/>
			<stop  offset="1" style="stop-color:#8B2E00"/>
		</linearGradient>
		<path fill="url(#SVGID_4_)" d="M105.792,120.868c0,0.817-0.132,1.633-0.39,2.449c-0.26,0.819-0.699,1.55-1.318,2.198
			c-0.615,0.648-1.442,1.176-2.48,1.584c-1.035,0.41-2.32,0.612-3.857,0.612h-2.39v7.325H91.14V114.02h6.875
			c1.476,0,2.711,0.205,3.707,0.611c0.998,0.41,1.795,0.938,2.393,1.584c0.598,0.649,1.027,1.381,1.285,2.199
			C105.66,119.234,105.792,120.047,105.792,120.868z M101.633,120.868c0-0.618-0.099-1.139-0.299-1.57
			c-0.201-0.429-0.468-0.772-0.808-1.031c-0.339-0.258-0.728-0.443-1.165-0.555c-0.438-0.109-0.906-0.164-1.405-0.164h-2.6v6.636
			h2.333c0.557,0,1.075-0.053,1.554-0.162c0.478-0.112,0.896-0.295,1.255-0.553c0.36-0.262,0.639-0.601,0.838-1.019
			C101.535,122.034,101.633,121.507,101.633,120.868z"/>
		
			<linearGradient id="SVGID_5_" gradientUnits="userSpaceOnUse" x1="-323.6328" y1="562.1118" x2="-318.6481" y2="538.6606" gradientTransform="matrix(1 0 0 1 438.3203 -425.8555)">
			<stop  offset="0" style="stop-color:#FF9900"/>
			<stop  offset="1" style="stop-color:#8B2E00"/>
		</linearGradient>
		<path fill="url(#SVGID_5_)" d="M112.935,120.389v14.648h-3.979v-21.016h4.217l8.25,14.349v-14.349h3.978v21.016h-3.889
			L112.935,120.389z"/>
		
			<linearGradient id="SVGID_6_" gradientUnits="userSpaceOnUse" x1="-302.2031" y1="561.1069" x2="-297.6074" y2="539.4855" gradientTransform="matrix(1 0 0 1 438.3203 -425.8555)">
			<stop  offset="0" style="stop-color:#FF9900"/>
			<stop  offset="1" style="stop-color:#8B2E00"/>
		</linearGradient>
		<path fill="url(#SVGID_6_)" d="M139.274,117.1c-0.979,0-1.823,0.188-2.543,0.568c-0.715,0.379-1.304,0.901-1.764,1.57
			c-0.459,0.668-0.8,1.455-1.03,2.36c-0.229,0.908-0.345,1.89-0.345,2.947c0,1.056,0.104,2.027,0.315,2.913
			c0.208,0.888,0.544,1.65,1.001,2.286c0.458,0.641,1.045,1.142,1.765,1.513c0.716,0.367,1.574,0.553,2.57,0.553
			c0.576,0,1.105-0.041,1.584-0.12c0.479-0.078,0.916-0.169,1.316-0.269v-5.231h-3.858v-3.467h7.594v11.478
			c-0.219,0.102-0.527,0.224-0.928,0.375c-0.397,0.148-0.894,0.292-1.48,0.434c-0.587,0.138-1.279,0.258-2.076,0.357
			c-0.8,0.1-1.704,0.149-2.722,0.149c-1.533,0-2.891-0.249-4.066-0.747c-1.178-0.496-2.161-1.214-2.96-2.152
			c-0.798-0.938-1.399-2.084-1.809-3.438c-0.41-1.355-0.611-2.898-0.611-4.633c0-1.615,0.207-3.095,0.625-4.439
			c0.419-1.345,1.038-2.506,1.855-3.484c0.817-0.977,1.829-1.731,3.035-2.27c1.205-0.537,2.605-0.809,4.2-0.809
			c1.375,0,2.61,0.192,3.706,0.57c1.096,0.375,2.063,0.895,2.901,1.554l-1.764,2.959c-0.439-0.317-1.04-0.653-1.808-0.999
			C141.21,117.274,140.307,117.1,139.274,117.1z"/>
	</g>
	
		<linearGradient id="path906_4_" gradientUnits="userSpaceOnUse" x1="-2201.6948" y1="46.3154" x2="-2202.23" y2="46.846" gradientTransform="matrix(33.5276 0 0 36.7392 73965.7813 -1610.6965)">
		<stop  offset="0" style="stop-color:#DADADA"/>
		<stop  offset="0.3492" style="stop-color:#F1F1F1"/>
		<stop  offset="1" style="stop-color:#F0F0F0"/>
	</linearGradient>
	<path id="path906_1_" fill="url(#path906_4_)" d="M154.426,103.632c-5.365-1.59-12.316-1.362-17.566-0.459
		c0.906-5.815,1.02-13.107-0.229-19.039L154.426,103.632z"/>
</g>
<g id="Layer_5" xmlns:dc="http://purl.org/dc/elements/1.1/" xmlns:rdf="http://www.w3.org/1999/02/22-rdf-syntax-ns#" xmlns:cc="http://creativecommons.org/ns#" xmlns:svg="http://www.w3.org/2000/svg">
	
		<radialGradient id="path1934_2_" cx="-2254.8071" cy="107.2144" r="0.5124" fx="-2255.1348" fy="107.1931" gradientTransform="matrix(-60.5169 0 0 11.1385 -136409.375 -1032.9576)" gradientUnits="userSpaceOnUse">
		<stop  offset="0" style="stop-color:#000000;stop-opacity:0.3164"/>
		<stop  offset="0.5" style="stop-color:#000000;stop-opacity:0.0791"/>
		<stop  offset="1" style="stop-color:#000000;stop-opacity:0"/>
	</radialGradient>
	<path id="path1934_1_" fill="url(#path1934_2_)" d="M44.542,166.974c17.151,0,31.055-2.561,31.055-5.719
		c0-3.154-13.904-5.715-31.055-5.715c-17.154,0-31.058,2.561-31.058,5.715C13.484,164.414,27.388,166.974,44.542,166.974z"/>
	
		<linearGradient id="path5229_1_" gradientUnits="userSpaceOnUse" x1="-620.4351" y1="-342.3521" x2="-601.179" y2="-286.4279" gradientTransform="matrix(1 0 0 -1 657.4805 -193.9912)">
		<stop  offset="0" style="stop-color:#FFA545;stop-opacity:0.76"/>
		<stop  offset="1" style="stop-color:#D04B00"/>
	</linearGradient>
	<path id="path5229" fill="url(#path5229_1_)" stroke="#565248" stroke-miterlimit="10" d="M16.646,87.521
		c-4.743,9.698-7.656,27.538-2.679,38.057c8.686,18.355,30.607,26.193,48.961,17.51l8.02,16.947l8.552-19.398l8.549-19.398
		l-20.421-5.689l-20.421-5.694l7.661,16.192c-8.943,4.229-19.622,0.41-23.853-8.533c-4.232-8.938,2.049-25.77,10.99-29.999
		L16.646,87.521z"/>
</g>
</svg>
