<?xml version="1.0" encoding="utf-8"?>
<!-- Generator: Adobe Illustrator 15.0.0, SVG Export Plug-In . SVG Version: 6.00 Build 0)  -->
<!DOCTYPE svg PUBLIC "-//W3C//DTD SVG 1.1//EN" "http://www.w3.org/Graphics/SVG/1.1/DTD/svg11.dtd">
<svg version="1.1" id="Layer_1" xmlns="http://www.w3.org/2000/svg" xmlns:xlink="http://www.w3.org/1999/xlink" x="0px" y="0px"
	 width="167.083px" height="168.585px" viewBox="0 0 167.083 168.585" enable-background="new 0 0 167.083 168.585"
	 xml:space="preserve">
<g id="Layer_3_1_">
	<g id="Layer_6_1_">
		<path id="path930_8_" fill="#FFFFFF" stroke="#000000" stroke-width="1.837" d="M15.257,12.941v26.79V66.52v26.79v26.789h24.447
			h24.448h24.447h24.446V93.31V66.521V39.732L88.599,12.941H64.152H39.705H15.257z"/>
		<g id="g1552_8_" transform="matrix(0.304171,0,0,0.297572,-36.704,-112.488)">
			
				<linearGradient id="path1505_9_" gradientUnits="userSpaceOnUse" x1="-296592256" y1="-401088576" x2="-296590048" y2="-401085632" gradientTransform="matrix(1.1327 0 0 -1.1411 326878.5625 197363.5)">
				<stop  offset="0" style="stop-color:#000000;stop-opacity:0.0955"/>
				<stop  offset="1" style="stop-color:#000000;stop-opacity:0"/>
			</linearGradient>
			<path id="path1505_8_" fill="url(#path1505_9_)" fill-opacity="0.75" d="M168.113,428.455v89.151v89.151v89.156v89.146h79.308
				h79.309h79.303h79.314v-89.146v-89.156v-89.151l-79.314-89.151H326.73h-79.309H168.113z"/>
			
				<linearGradient id="path1538_9_" gradientUnits="userSpaceOnUse" x1="-296552352" y1="-401034432" x2="-296550144" y2="-401031488" gradientTransform="matrix(1.1496 0 0 -1.1562 331827.8125 200022.0469)">
				<stop  offset="0" style="stop-color:#000000;stop-opacity:0.0955"/>
				<stop  offset="1" style="stop-color:#000000;stop-opacity:0"/>
			</linearGradient>
			<path id="path1538_8_" fill="url(#path1538_9_)" fill-opacity="0.75" d="M165.753,427.274c0,120.047,0,240.094,0,360.141
				c107.323,0,214.638,0,321.956,0c0-90.242,0-180.484,0-270.726c-26.866-30.205-53.726-60.421-80.617-90.603
				c-80.446,0-160.891,0-241.339,0C165.753,426.33,165.753,427.116,165.753,427.274z"/>
			
				<linearGradient id="path1543_9_" gradientUnits="userSpaceOnUse" x1="-296498080" y1="-400960768" x2="-296495872" y2="-400957824" gradientTransform="matrix(1.1665 0 0 -1.1714 336788.375 202685.5)">
				<stop  offset="0" style="stop-color:#000000;stop-opacity:0.0955"/>
				<stop  offset="1" style="stop-color:#000000;stop-opacity:0"/>
			</linearGradient>
			<path id="path1543_8_" fill="url(#path1543_9_)" fill-opacity="0.75" d="M163.386,424.898c0,121.634,0,243.261,0,364.887
				c108.896,0,217.795,0,326.693,0c0-91.335,0-182.67,0-274.008c-27.306-30.688-54.609-61.392-81.94-92.06
				c-81.581,0-163.166,0-244.753,0C163.386,423.958,163.386,424.747,163.386,424.898z"/>
		</g>
		
			<linearGradient id="rect900_9_" gradientUnits="userSpaceOnUse" x1="-2786.062" y1="416.9683" x2="-2786.6423" y2="416.2612" gradientTransform="matrix(134.1105 0 0 -146.957 373733.375 61304.3906)">
			<stop  offset="0" style="stop-color:#DADADA"/>
			<stop  offset="0.3492" style="stop-color:#F1F1F1"/>
			<stop  offset="1" style="stop-color:#F0F0F0"/>
		</linearGradient>
		<path id="rect900_8_" fill="url(#rect900_9_)" stroke="#000000" stroke-width="1.0482" stroke-opacity="0.3648" d="M15.298,13.075
			v26.79v26.79v26.789v26.791h24.448h24.446H88.64h24.446V93.443V66.654v-26.79L88.64,13.074H64.193H39.746H15.298V13.075z"/>
		
			<linearGradient id="path906_9_" gradientUnits="userSpaceOnUse" x1="-2748.9092" y1="394.5454" x2="-2749.6433" y2="393.8176" gradientTransform="matrix(33.5276 0 0 -36.7392 92268.9219 14517.6875)">
			<stop  offset="0" style="stop-color:#DADADA"/>
			<stop  offset="0.3492" style="stop-color:#F1F1F1"/>
			<stop  offset="1" style="stop-color:#F0F0F0"/>
		</linearGradient>
		<path id="path906_8_" fill="url(#path906_9_)" d="M113.086,39.865c-7.371-2.181-16.92-1.872-24.137-0.629
			c1.245-7.992,1.401-18.011-0.312-26.161L113.086,39.865z"/>
	</g>
</g>
<g id="Layer_6">
	<path id="path930_3_" fill="#FFFFFF" stroke="#000000" stroke-width="1.837" d="M24.887,19.044v26.79v26.789v26.791v26.789h24.446
		h24.448h24.447h24.446V99.414v-26.79V45.835L98.229,19.044H73.782H49.334H24.887z"/>
	<g id="g1552_3_" transform="matrix(0.304171,0,0,0.297572,-36.704,-112.488)">
		
			<linearGradient id="path1505_10_" gradientUnits="userSpaceOnUse" x1="-296587808" y1="-401082592" x2="-296585600" y2="-401079648" gradientTransform="matrix(1.1327 0 0 -1.1411 326878.5625 197363.5)">
			<stop  offset="0" style="stop-color:#000000;stop-opacity:0.0955"/>
			<stop  offset="1" style="stop-color:#000000;stop-opacity:0"/>
		</linearGradient>
		<path id="path1505_3_" fill="url(#path1505_10_)" fill-opacity="0.75" d="M199.771,448.963v89.151v89.151v89.153v89.146h79.308
			h79.309h79.301h79.314v-89.146v-89.153v-89.151l-79.314-89.151h-79.301h-79.309H199.771z"/>
		
			<linearGradient id="path1538_10_" gradientUnits="userSpaceOnUse" x1="-296551136" y1="-401032800" x2="-296548928" y2="-401029856" gradientTransform="matrix(1.1496 0 0 -1.1562 331827.8125 200022.0469)">
			<stop  offset="0" style="stop-color:#000000;stop-opacity:0.0955"/>
			<stop  offset="1" style="stop-color:#000000;stop-opacity:0"/>
		</linearGradient>
		<path id="path1538_3_" fill="url(#path1538_10_)" fill-opacity="0.75" d="M197.411,447.782c0,120.047,0,240.094,0,360.141
			c107.323,0,214.641,0,321.954,0c0-90.242,0-180.484,0-270.726c-26.866-30.205-53.726-60.421-80.614-90.603
			c-80.447,0-160.893,0-241.34,0C197.411,446.838,197.411,447.624,197.411,447.782z"/>
		
			<linearGradient id="path1543_10_" gradientUnits="userSpaceOnUse" x1="-296500896" y1="-400964608" x2="-296498688" y2="-400961664" gradientTransform="matrix(1.1665 0 0 -1.1714 336788.375 202685.5)">
			<stop  offset="0" style="stop-color:#000000;stop-opacity:0.0955"/>
			<stop  offset="1" style="stop-color:#000000;stop-opacity:0"/>
		</linearGradient>
		<path id="path1543_3_" fill="url(#path1543_10_)" fill-opacity="0.75" d="M195.043,445.406c0,121.634,0,243.261,0,364.887
			c108.895,0,217.795,0,326.692,0c0-91.332,0-182.67,0-274.008c-27.306-30.688-54.605-61.392-81.937-92.06
			c-81.582,0-163.168,0-244.755,0C195.043,444.465,195.043,445.255,195.043,445.406z"/>
	</g>
	
		<linearGradient id="rect900_10_" gradientUnits="userSpaceOnUse" x1="-2785.9902" y1="416.9263" x2="-2786.5706" y2="416.2192" gradientTransform="matrix(134.1105 0 0 -146.957 373733.375 61304.3906)">
		<stop  offset="0" style="stop-color:#DADADA"/>
		<stop  offset="0.3492" style="stop-color:#F1F1F1"/>
		<stop  offset="1" style="stop-color:#F0F0F0"/>
	</linearGradient>
	<path id="rect900_3_" fill="url(#rect900_10_)" stroke="#000000" stroke-width="1.0482" stroke-opacity="0.3648" d="M24.927,19.177
		v26.79v26.79v26.79v26.791h24.448h24.446h24.448h24.446V99.544V72.757v-26.79l-24.446-26.79H73.823H49.375H24.927z"/>
	
		<linearGradient id="path906_10_" gradientUnits="userSpaceOnUse" x1="-2748.6226" y1="394.3794" x2="-2749.3567" y2="393.6516" gradientTransform="matrix(33.5276 0 0 -36.7392 92268.9219 14517.6875)">
		<stop  offset="0" style="stop-color:#DADADA"/>
		<stop  offset="0.3492" style="stop-color:#F1F1F1"/>
		<stop  offset="1" style="stop-color:#F0F0F0"/>
	</linearGradient>
	<path id="path906_3_" fill="url(#path906_10_)" d="M122.715,45.967c-7.37-2.181-16.92-1.872-24.135-0.629
		c1.244-7.992,1.4-18.011-0.313-26.161L122.715,45.967z"/>
</g>
<g id="Layer_2">
	<path id="path930_2_" fill="#FFFFFF" stroke="#000000" stroke-width="1.837" d="M35.178,25.468v26.79v26.789v26.791v26.789h24.447
		h24.448h24.447h24.445v-26.789v-26.79V52.259L108.52,25.468H84.075H59.626H35.178z"/>
	<g id="g1552_2_" transform="matrix(0.304171,0,0,0.297572,-36.704,-112.488)">
		
			<linearGradient id="path1505_11_" gradientUnits="userSpaceOnUse" x1="-296542880" y1="-401021824" x2="-296540672" y2="-401018880" gradientTransform="matrix(1.1327 0 0 -1.1411 326878.5625 197363.5)">
			<stop  offset="0" style="stop-color:#000000;stop-opacity:0.0955"/>
			<stop  offset="1" style="stop-color:#000000;stop-opacity:0"/>
		</linearGradient>
		<path id="path1505_2_" fill="url(#path1505_11_)" fill-opacity="0.75" d="M233.609,470.551v89.151v89.151v89.156v89.146h79.304
			h79.306h79.306h79.314v-89.146v-89.156v-89.151l-79.314-89.153h-79.306h-79.304h-79.306V470.551L233.609,470.551z"/>
		
			<linearGradient id="path1538_11_" gradientUnits="userSpaceOnUse" x1="-296509600" y1="-400976608" x2="-296507392" y2="-400973664" gradientTransform="matrix(1.1496 0 0 -1.1562 331827.8125 200022.0469)">
			<stop  offset="0" style="stop-color:#000000;stop-opacity:0.0955"/>
			<stop  offset="1" style="stop-color:#000000;stop-opacity:0"/>
		</linearGradient>
		<path id="path1538_2_" fill="url(#path1538_11_)" fill-opacity="0.75" d="M231.247,469.368c0,120.049,0,240.096,0,360.146
			c107.32,0,214.641,0,321.951,0c0-90.242,0-180.486,0-270.729c-26.86-30.204-53.726-60.417-80.611-90.601
			c-80.447,0-160.896,0-241.34,0C231.247,468.426,231.247,469.215,231.247,469.368z"/>
		
			<linearGradient id="path1543_11_" gradientUnits="userSpaceOnUse" x1="-296456768" y1="-400904928" x2="-296454560" y2="-400901984" gradientTransform="matrix(1.1665 0 0 -1.1714 336788.375 202685.5)">
			<stop  offset="0" style="stop-color:#000000;stop-opacity:0.0955"/>
			<stop  offset="1" style="stop-color:#000000;stop-opacity:0"/>
		</linearGradient>
		<path id="path1543_2_" fill="url(#path1543_11_)" fill-opacity="0.75" d="M228.88,466.996c0,121.629,0,243.258,0,364.887
			c108.896,0,217.795,0,326.695,0c0-91.335,0-182.673,0-274.011c-27.309-30.689-54.605-61.394-81.94-92.06
			c-81.581,0-163.168,0-244.755,0C228.88,466.055,228.88,466.844,228.88,466.996z"/>
	</g>
	
		<linearGradient id="rect900_11_" gradientUnits="userSpaceOnUse" x1="-2785.9141" y1="416.8833" x2="-2786.4924" y2="416.1783" gradientTransform="matrix(134.1105 0 0 -146.957 373733.375 61304.3906)">
		<stop  offset="0" style="stop-color:#DADADA"/>
		<stop  offset="0.3492" style="stop-color:#F1F1F1"/>
		<stop  offset="1" style="stop-color:#F0F0F0"/>
	</linearGradient>
	<path id="rect900_2_" fill="url(#rect900_11_)" stroke="#000000" stroke-width="1.0482" stroke-opacity="0.3648" d="M35.219,25.602
		v26.79v26.79v26.788v26.791h24.447h24.446h24.448h24.446V105.97V79.181v-26.79l-24.446-26.79H84.116h-24.45L35.219,25.602
		L35.219,25.602z"/>
	
		<linearGradient id="rect1558_1_" gradientUnits="userSpaceOnUse" x1="-2783.811" y1="416.2866" x2="-2784.166" y2="415.7733" gradientTransform="matrix(115.777 0 0 -132.803 322420.9688 55303.9883)">
		<stop  offset="0" style="stop-color:#4B6983"/>
		<stop  offset="1" style="stop-color:#9DB8D2;stop-opacity:0"/>
	</linearGradient>
	<path id="rect1558" fill="url(#rect1558_1_)" d="M41.702,30.754v96.835h84.421V48.342l-15.932-17.588H41.702z"/>
	<g>
		<linearGradient id="SVGID_1_" gradientUnits="userSpaceOnUse" x1="59.7324" y1="86.2983" x2="65.1286" y2="60.9114">
			<stop  offset="0" style="stop-color:#8DA5BD"/>
			<stop  offset="1" style="stop-color:#460073"/>
		</linearGradient>
		<path fill="url(#SVGID_1_)" d="M60.383,75.198c-0.888-0.256-1.721-0.595-2.503-1.016c-0.783-0.418-1.464-0.914-2.047-1.487
			c-0.583-0.571-1.044-1.236-1.383-1.995c-0.337-0.758-0.506-1.593-0.506-2.504c0-2.45,0.723-4.315,2.17-5.6
			c1.446-1.283,3.547-1.924,6.3-1.924c0.77,0,1.529,0.058,2.276,0.174c0.747,0.118,1.445,0.269,2.099,0.456
			c0.653,0.188,1.249,0.396,1.786,0.63c0.536,0.233,1.002,0.468,1.399,0.7l-1.784,3.71c-0.468-0.28-1.207-0.594-2.224-0.945
			c-1.015-0.349-2.222-0.524-3.622-0.524c-0.397,0-0.8,0.047-1.207,0.14c-0.409,0.093-0.783,0.25-1.119,0.47
			c-0.339,0.221-0.613,0.512-0.824,0.873c-0.21,0.36-0.314,0.795-0.314,1.307c0,0.325,0.046,0.634,0.14,0.924
			c0.093,0.291,0.274,0.575,0.543,0.854c0.268,0.278,0.63,0.542,1.084,0.789c0.455,0.247,1.043,0.476,1.768,0.688l2.24,0.634
			c2.029,0.563,3.599,1.413,4.707,2.545c1.109,1.131,1.663,2.689,1.663,4.671c0,1.167-0.227,2.217-0.683,3.151
			s-1.08,1.733-1.873,2.398c-0.793,0.666-1.728,1.179-2.8,1.54c-1.074,0.361-2.229,0.542-3.464,0.542
			c-1.145,0-2.2-0.088-3.168-0.262c-0.968-0.175-1.82-0.38-2.554-0.613c-0.736-0.233-1.343-0.466-1.82-0.701
			c-0.479-0.232-0.8-0.407-0.963-0.525l1.785-3.885c0.28,0.164,0.647,0.34,1.102,0.525c0.456,0.188,0.968,0.368,1.541,0.544
			c0.572,0.174,1.208,0.32,1.907,0.437c0.7,0.117,1.435,0.175,2.205,0.175c0.42,0,0.857-0.053,1.312-0.158
			c0.455-0.104,0.863-0.28,1.225-0.524c0.361-0.245,0.66-0.547,0.893-0.91c0.232-0.362,0.35-0.81,0.35-1.348
			c0-0.304-0.047-0.612-0.14-0.927c-0.094-0.315-0.268-0.618-0.524-0.911c-0.257-0.291-0.601-0.565-1.034-0.823
			c-0.432-0.256-0.997-0.478-1.697-0.664L60.383,75.198z"/>
		<linearGradient id="SVGID_2_" gradientUnits="userSpaceOnUse" x1="78.4868" y1="85.2378" x2="84.0508" y2="59.0614">
			<stop  offset="0" style="stop-color:#8DA5BD"/>
			<stop  offset="1" style="stop-color:#460073"/>
		</linearGradient>
		<path fill="url(#SVGID_2_)" d="M83.815,80.098l5.479-18.865h4.973l-8.092,24.604h-4.868l-8.395-24.604h5.251L83.815,80.098z"/>
		<linearGradient id="SVGID_3_" gradientUnits="userSpaceOnUse" x1="103.9028" y1="86.0884" x2="109.2843" y2="60.7707">
			<stop  offset="0" style="stop-color:#8DA5BD"/>
			<stop  offset="1" style="stop-color:#460073"/>
		</linearGradient>
		<path fill="url(#SVGID_3_)" d="M107.597,64.838c-1.144,0-2.136,0.221-2.974,0.665c-0.84,0.443-1.527,1.055-2.064,1.837
			c-0.536,0.782-0.938,1.703-1.206,2.765c-0.271,1.062-0.403,2.211-0.403,3.448c0,1.236,0.122,2.373,0.365,3.413
			c0.246,1.038,0.637,1.932,1.173,2.677c0.537,0.747,1.228,1.336,2.066,1.768s1.842,0.648,3.007,0.648
			c0.677,0,1.298-0.047,1.855-0.14c0.558-0.094,1.072-0.198,1.541-0.315v-6.125h-4.517v-4.06h8.892v13.44
			c-0.256,0.117-0.617,0.262-1.086,0.438c-0.468,0.175-1.045,0.346-1.732,0.508c-0.689,0.163-1.499,0.304-2.432,0.421
			c-0.937,0.116-1.994,0.174-3.188,0.174c-1.794,0-3.385-0.291-4.76-0.875c-1.377-0.583-2.534-1.423-3.465-2.521
			c-0.936-1.096-1.639-2.438-2.119-4.025c-0.479-1.586-0.717-3.395-0.717-5.424c0-1.891,0.246-3.624,0.735-5.198
			c0.489-1.575,1.214-2.935,2.171-4.078c0.956-1.143,2.139-2.029,3.553-2.66c1.412-0.631,3.049-0.946,4.918-0.946
			c1.611,0,3.058,0.223,4.34,0.666c1.285,0.442,2.416,1.05,3.395,1.82l-2.064,3.464c-0.514-0.373-1.217-0.764-2.117-1.173
			C109.868,65.042,108.812,64.838,107.597,64.838z"/>
	</g>
	<path id="path1231_1_" fill="none" stroke="#314E6C" stroke-width="0.7118" d="M48.192,72.05l14.439-19.042"/>
	<path id="path1232_1_" fill="none" stroke="#314E6C" stroke-width="1.4703" d="M43.715,73.804c0,0.003,0,0.003,0,0.005
		c0.002,1.502,1.22,2.718,2.723,2.717c1.501,0,2.72-1.219,2.717-2.722c0,0,0-0.001,0-0.005c-0.001-1.5-1.221-2.717-2.722-2.717
		C44.931,71.083,43.713,72.3,43.715,73.804L43.715,73.804z"/>
	<path id="path1818_1_" fill="none" stroke="#314E6C" stroke-width="1.4703" d="M61.034,50.773c0,1.502,1.22,2.718,2.723,2.716
		c1.5-0.001,2.717-1.22,2.717-2.721c0-0.002,0-0.004,0-0.005c-0.001-1.504-1.221-2.719-2.724-2.719
		c-1.503,0.002-2.719,1.221-2.718,2.724C61.032,50.767,61.032,50.768,61.034,50.773z"/>
	
		<rect id="rect1019_1_" x="52.896" y="61.044" fill="#9F9F9F" fill-opacity="0.75" stroke="#C1C1C1" stroke-width="0.6429" width="4.673" height="4.673"/>
	
		<linearGradient id="path906_11_" gradientUnits="userSpaceOnUse" x1="-2748.3145" y1="394.2046" x2="-2749.05" y2="393.4753" gradientTransform="matrix(33.5276 0 0 -36.7392 92268.9219 14517.6875)">
		<stop  offset="0" style="stop-color:#DADADA"/>
		<stop  offset="0.3492" style="stop-color:#F1F1F1"/>
		<stop  offset="1" style="stop-color:#F0F0F0"/>
	</linearGradient>
	<path id="path906_2_" fill="url(#path906_11_)" d="M133.01,52.391c-7.371-2.181-16.922-1.873-24.137-0.628
		c1.244-7.993,1.399-18.012-0.313-26.161L133.01,52.391z"/>
</g>
<g id="Layer_2_1_">
	<g id="Layer_4_1_">
		<path id="path930_4_" fill="#FFFFFF" stroke="#000000" stroke-width="1.837" d="M82.46,78.625v16.852v16.854v16.853v16.854h15.378
			h15.379h15.377h15.38v-16.854V112.33V95.478l-15.379-16.854h-15.378H97.838L82.46,78.625L82.46,78.625z"/>
		<g id="g1552_4_" transform="matrix(0.304171,0,0,0.297572,-36.704,-112.488)">
			
				<linearGradient id="path1505_12_" gradientUnits="userSpaceOnUse" x1="-121192760" y1="-164276592" x2="-121192208" y2="-164275856" gradientTransform="matrix(1.1327 0 0 -1.1411 326878.5625 197363.5)">
				<stop  offset="0" style="stop-color:#000000;stop-opacity:0.0955"/>
				<stop  offset="1" style="stop-color:#000000;stop-opacity:0"/>
			</linearGradient>
			<path id="path1505_4_" fill="url(#path1505_12_)" fill-opacity="0.75" d="M390.061,646.614v56.076v56.079v56.085v56.082h49.887
				h49.883h49.889h49.886v-56.082v-56.085V702.69l-49.886-56.076h-49.889h-49.883H390.061z"/>
			
				<linearGradient id="path1538_12_" gradientUnits="userSpaceOnUse" x1="-121405480" y1="-163567360" x2="-121404928" y2="-163566640" gradientTransform="matrix(1.1496 0 0 -1.1562 331827.8125 200022.0469)">
				<stop  offset="0" style="stop-color:#000000;stop-opacity:0.0955"/>
				<stop  offset="1" style="stop-color:#000000;stop-opacity:0"/>
			</linearGradient>
			<path id="path1538_4_" fill="url(#path1538_12_)" fill-opacity="0.75" d="M388.575,645.866c0,75.513,0,151.034,0,226.554
				c67.507,0,135.016,0,202.528,0c0-56.771,0-113.539,0-170.311c-16.904-18.998-33.798-38.006-50.714-56.988
				c-50.605,0-101.21,0-151.812,0C388.575,645.272,388.575,645.769,388.575,645.866z"/>
			
				<linearGradient id="path1543_12_" gradientUnits="userSpaceOnUse" x1="-121752600" y1="-164036496" x2="-121752048" y2="-164035776" gradientTransform="matrix(1.1665 0 0 -1.1714 336788.375 202685.5)">
				<stop  offset="0" style="stop-color:#000000;stop-opacity:0.0955"/>
				<stop  offset="1" style="stop-color:#000000;stop-opacity:0"/>
			</linearGradient>
			<path id="path1543_4_" fill="url(#path1543_12_)" fill-opacity="0.75" d="M387.085,644.374c0,76.51,0,153.021,0,229.532
				c68.499,0,137,0,205.51,0c0-57.451,0-114.908,0-172.365c-17.18-19.3-34.356-38.62-51.549-57.912c-51.321,0-102.645,0-153.961,0
				C387.085,643.784,387.085,644.278,387.085,644.374z"/>
		</g>
		
			<linearGradient id="rect900_12_" gradientUnits="userSpaceOnUse" x1="-2785.7773" y1="416.5581" x2="-2786.1421" y2="416.1137" gradientTransform="matrix(134.1105 0 0 -146.957 373733.375 61304.3906)">
			<stop  offset="0" style="stop-color:#DADADA"/>
			<stop  offset="0.3492" style="stop-color:#F1F1F1"/>
			<stop  offset="1" style="stop-color:#F0F0F0"/>
		</linearGradient>
		<path id="rect900_4_" fill="url(#rect900_12_)" stroke="#000000" stroke-width="0.6594" stroke-opacity="0.3648" d="
			M82.484,78.708v16.853v16.854v16.851v16.854h15.382h15.377h15.379h15.377v-16.854v-16.851V95.561l-15.377-16.854h-15.379H97.866
			L82.484,78.708L82.484,78.708z"/>
		
			<linearGradient id="path906_12_" gradientUnits="userSpaceOnUse" x1="-2747.8921" y1="392.855" x2="-2748.3562" y2="392.3949" gradientTransform="matrix(33.5276 0 0 -36.7392 92268.9219 14517.6875)">
			<stop  offset="0" style="stop-color:#DADADA"/>
			<stop  offset="0.3492" style="stop-color:#F1F1F1"/>
			<stop  offset="1" style="stop-color:#F0F0F0"/>
		</linearGradient>
		<path id="path906_4_" fill="url(#path906_12_)" d="M144.002,95.561c-4.639-1.372-10.647-1.177-15.186-0.396
			c0.784-5.027,0.881-11.332-0.195-16.458L144.002,95.561z"/>
	</g>
</g>
<g id="Layer_4">
	<path id="path930_1_" fill="#FFFFFF" stroke="#000000" stroke-width="1.837" d="M90.727,84.136v16.851v16.854v16.854v16.854h15.378
		h15.379h15.376h15.381v-16.854v-16.855v-16.852l-15.379-16.853h-15.378h-15.379L90.727,84.136L90.727,84.136z"/>
	<g id="g1552_1_" transform="matrix(0.304171,0,0,0.297572,-36.704,-112.488)">
		
			<linearGradient id="path1505_13_" gradientUnits="userSpaceOnUse" x1="-121193024" y1="-164277008" x2="-121192472" y2="-164276272" gradientTransform="matrix(1.1327 0 0 -1.1411 326878.5625 197363.5)">
			<stop  offset="0" style="stop-color:#000000;stop-opacity:0.0955"/>
			<stop  offset="1" style="stop-color:#000000;stop-opacity:0"/>
		</linearGradient>
		<path id="path1505_1_" fill="url(#path1505_13_)" fill-opacity="0.75" d="M417.237,665.133v56.076v56.082v56.082v56.082h49.886
			h49.886h49.892h49.883v-56.082v-56.082v-56.082l-49.883-56.076h-49.892h-49.886H417.237z"/>
		
			<linearGradient id="path1538_13_" gradientUnits="userSpaceOnUse" x1="-121403720" y1="-163565024" x2="-121403168" y2="-163564304" gradientTransform="matrix(1.1496 0 0 -1.1562 331827.8125 200022.0469)">
			<stop  offset="0" style="stop-color:#000000;stop-opacity:0.0955"/>
			<stop  offset="1" style="stop-color:#000000;stop-opacity:0"/>
		</linearGradient>
		<path id="path1538_1_" fill="url(#path1538_13_)" fill-opacity="0.75" d="M415.751,664.385c0,75.517,0,151.037,0,226.554
			c67.509,0,135.017,0,202.529,0c0-56.771,0-113.536,0-170.307c-16.904-18.998-33.798-38.006-50.714-56.988
			c-50.608,0-101.213,0-151.812,0C415.751,663.791,415.751,664.29,415.751,664.385z"/>
		
			<linearGradient id="path1543_13_" gradientUnits="userSpaceOnUse" x1="-121749160" y1="-164031888" x2="-121748608" y2="-164031168" gradientTransform="matrix(1.1665 0 0 -1.1714 336788.375 202685.5)">
			<stop  offset="0" style="stop-color:#000000;stop-opacity:0.0955"/>
			<stop  offset="1" style="stop-color:#000000;stop-opacity:0"/>
		</linearGradient>
		<path id="path1543_1_" fill="url(#path1543_13_)" fill-opacity="0.75" d="M414.264,662.893c0,76.51,0,153.021,0,229.535
			c68.494,0,136.998,0,205.509,0c0-57.454,0-114.911,0-172.368c-17.18-19.3-34.356-38.62-51.549-57.91c-51.321,0-102.645,0-153.96,0
			C414.264,662.303,414.264,662.798,414.264,662.893z"/>
	</g>
	
		<linearGradient id="rect900_13_" gradientUnits="userSpaceOnUse" x1="-2785.7163" y1="416.52" x2="-2786.0801" y2="416.077" gradientTransform="matrix(134.1105 0 0 -146.957 373733.375 61304.3906)">
		<stop  offset="0" style="stop-color:#DADADA"/>
		<stop  offset="0.3492" style="stop-color:#F1F1F1"/>
		<stop  offset="1" style="stop-color:#F0F0F0"/>
	</linearGradient>
	<path id="rect900_1_" fill="url(#rect900_13_)" stroke="#000000" stroke-width="0.6594" stroke-opacity="0.3648" d="M90.75,84.219
		v16.853v16.855v16.85v16.854h15.381h15.377h15.38h15.377v-16.854v-16.851v-16.854l-15.377-16.854h-15.38h-15.377L90.75,84.219
		L90.75,84.219z"/>
	
		<linearGradient id="path906_13_" gradientUnits="userSpaceOnUse" x1="-2747.647" y1="392.7036" x2="-2748.1082" y2="392.2463" gradientTransform="matrix(33.5276 0 0 -36.7392 92268.9219 14517.6875)">
		<stop  offset="0" style="stop-color:#DADADA"/>
		<stop  offset="0.3492" style="stop-color:#F1F1F1"/>
		<stop  offset="1" style="stop-color:#F0F0F0"/>
	</linearGradient>
	<path id="path906_1_" fill="url(#path906_13_)" d="M152.268,101.072c-4.637-1.371-10.646-1.177-15.184-0.396
		c0.783-5.027,0.881-11.33-0.196-16.457L152.268,101.072z"/>
</g>
<g id="Layer_3">
	<path id="path930_6_" fill="#FFFFFF" stroke="#000000" stroke-width="1.837" d="M98.885,89.855v16.852v16.854v16.853v16.854h15.377
		h15.38h15.376h15.381v-16.856v-16.853v-16.853l-15.381-16.854h-15.376h-15.38L98.885,89.855L98.885,89.855z"/>
	<g id="g1552_6_" transform="matrix(0.304171,0,0,0.297572,-36.704,-112.488)">
		
			<linearGradient id="path1505_14_" gradientUnits="userSpaceOnUse" x1="-121181368" y1="-164261200" x2="-121180816" y2="-164260464" gradientTransform="matrix(1.1327 0 0 -1.1411 326878.5625 197363.5)">
			<stop  offset="0" style="stop-color:#000000;stop-opacity:0.0955"/>
			<stop  offset="1" style="stop-color:#000000;stop-opacity:0"/>
		</linearGradient>
		<path id="path1505_6_" fill="url(#path1505_14_)" fill-opacity="0.75" d="M444.058,684.351v56.076v56.082v56.085v56.079h49.886
			h49.886h49.892h49.883v-56.079v-56.085v-56.082l-49.883-56.076H543.83h-49.886H444.058z"/>
		
			<linearGradient id="path1538_14_" gradientUnits="userSpaceOnUse" x1="-121757560" y1="-164043440" x2="-121757008" y2="-164042720" gradientTransform="matrix(1.1496 0 0 -1.1562 331827.8125 200022.0469)">
			<stop  offset="0" style="stop-color:#000000;stop-opacity:0.0955"/>
			<stop  offset="1" style="stop-color:#000000;stop-opacity:0"/>
		</linearGradient>
		<path id="path1538_6_" fill="url(#path1538_14_)" fill-opacity="0.75" d="M442.572,683.606c0,75.513,0,151.034,0,226.55
			c67.502,0,135.014,0,202.529,0c0-56.771,0-113.536,0-170.307c-16.904-18.998-33.794-38.009-50.717-56.988
			c-50.605,0-101.21,0-151.809,0C442.572,683.012,442.572,683.508,442.572,683.606z"/>
		
			<linearGradient id="path1543_14_" gradientUnits="userSpaceOnUse" x1="-121736720" y1="-164015104" x2="-121736168" y2="-164014384" gradientTransform="matrix(1.1665 0 0 -1.1714 336788.375 202685.5)">
			<stop  offset="0" style="stop-color:#000000;stop-opacity:0.0955"/>
			<stop  offset="1" style="stop-color:#000000;stop-opacity:0"/>
		</linearGradient>
		<path id="path1543_6_" fill="url(#path1543_14_)" fill-opacity="0.75" d="M441.082,682.113c0,76.508,0,153.022,0,229.534
			c68.498,0,137.001,0,205.509,0c0-57.454,0-114.908,0-172.368c-17.18-19.3-34.35-38.617-51.549-57.907
			c-51.321,0-102.642,0-153.96,0C441.082,681.522,441.082,682.018,441.082,682.113z"/>
	</g>
	
		<linearGradient id="rect900_14_" gradientUnits="userSpaceOnUse" x1="-2785.6543" y1="416.4829" x2="-2786.0195" y2="416.0378" gradientTransform="matrix(134.1105 0 0 -146.957 373733.375 61304.3906)">
		<stop  offset="0" style="stop-color:#DADADA"/>
		<stop  offset="0.3492" style="stop-color:#F1F1F1"/>
		<stop  offset="1" style="stop-color:#F0F0F0"/>
	</linearGradient>
	<path id="rect900_6_" fill="url(#rect900_14_)" stroke="#000000" stroke-width="0.6594" stroke-opacity="0.3648" d="M98.909,89.939
		v16.854v16.854v16.852v16.854h15.381h15.379h15.377h15.377v-16.854v-16.852v-16.854l-15.377-16.854h-15.377H114.29H98.909
		L98.909,89.939z"/>
	
		<linearGradient id="rect1558_4_" gradientUnits="userSpaceOnUse" x1="-2783.5313" y1="415.7866" x2="-2783.7549" y2="415.463" gradientTransform="matrix(115.777 0 0 -132.803 322420.9688 55303.9883)">
		<stop  offset="0" style="stop-color:#4B6983"/>
		<stop  offset="1" style="stop-color:#9DB8D2;stop-opacity:0"/>
	</linearGradient>
	<path id="rect1558_2_" fill="url(#rect1558_4_)" d="M102.988,93.179v60.916h53.104v-49.854l-10.021-11.063H102.988z"/>
	<g>
		
			<linearGradient id="SVGID_4_" gradientUnits="userSpaceOnUse" x1="-329.3647" y1="561.4253" x2="-325.3727" y2="542.6442" gradientTransform="matrix(1 0 0 1 438.3203 -425.8555)">
			<stop  offset="0" style="stop-color:#FF9900"/>
			<stop  offset="1" style="stop-color:#8B2E00"/>
		</linearGradient>
		<path fill="url(#SVGID_4_)" d="M118.558,122.708c0,0.705-0.113,1.408-0.336,2.112c-0.224,0.706-0.603,1.336-1.136,1.896
			c-0.531,0.559-1.244,1.014-2.139,1.365c-0.893,0.354-2.001,0.528-3.326,0.528h-2.061v6.315h-3.635v-18.12h5.928
			c1.271,0,2.337,0.177,3.195,0.526c0.861,0.354,1.548,0.81,2.063,1.366c0.515,0.56,0.886,1.19,1.107,1.896
			C118.445,121.3,118.558,122.001,118.558,122.708z M114.973,122.708c0-0.532-0.085-0.981-0.258-1.354
			c-0.174-0.37-0.403-0.666-0.696-0.889c-0.292-0.223-0.627-0.383-1.004-0.479c-0.378-0.095-0.782-0.142-1.212-0.142h-2.241v5.722
			h2.011c0.48,0,0.928-0.046,1.34-0.141c0.412-0.096,0.772-0.254,1.082-0.477c0.311-0.226,0.551-0.518,0.723-0.878
			C114.888,123.714,114.973,123.26,114.973,122.708z"/>
		
			<linearGradient id="SVGID_5_" gradientUnits="userSpaceOnUse" x1="-312.0923" y1="561.8325" x2="-307.7944" y2="541.6124" gradientTransform="matrix(1 0 0 1 438.3203 -425.8555)">
			<stop  offset="0" style="stop-color:#FF9900"/>
			<stop  offset="1" style="stop-color:#8B2E00"/>
		</linearGradient>
		<path fill="url(#SVGID_5_)" d="M124.717,122.296v12.63h-3.43v-18.12h3.635l7.113,12.372v-12.372h3.43v18.12h-3.353
			L124.717,122.296z"/>
		
			<linearGradient id="SVGID_6_" gradientUnits="userSpaceOnUse" x1="-293.6152" y1="560.9663" x2="-289.6527" y2="542.3242" gradientTransform="matrix(1 0 0 1 438.3203 -425.8555)">
			<stop  offset="0" style="stop-color:#FF9900"/>
			<stop  offset="1" style="stop-color:#8B2E00"/>
		</linearGradient>
		<path fill="url(#SVGID_6_)" d="M147.426,119.46c-0.844,0-1.572,0.162-2.192,0.49c-0.616,0.326-1.124,0.777-1.521,1.354
			c-0.396,0.576-0.689,1.255-0.889,2.035c-0.197,0.783-0.297,1.63-0.297,2.541c0,0.91,0.09,1.748,0.271,2.512
			c0.18,0.766,0.469,1.423,0.863,1.972c0.396,0.552,0.901,0.984,1.521,1.304c0.617,0.316,1.357,0.477,2.216,0.477
			c0.497,0,0.954-0.035,1.366-0.104c0.412-0.067,0.789-0.146,1.135-0.231v-4.511h-3.326v-2.989h6.547v9.896
			c-0.188,0.088-0.455,0.193-0.8,0.323c-0.343,0.129-0.771,0.253-1.276,0.375c-0.506,0.118-1.104,0.222-1.791,0.308
			c-0.688,0.086-1.469,0.129-2.346,0.129c-1.322,0-2.492-0.215-3.506-0.644c-1.016-0.429-1.863-1.047-2.552-1.856
			c-0.688-0.809-1.207-1.797-1.56-2.965c-0.354-1.168-0.527-2.498-0.527-3.994c0-1.393,0.179-2.668,0.539-3.827
			c0.361-1.16,0.895-2.161,1.6-3.005c0.704-0.842,1.577-1.492,2.617-1.957c1.039-0.463,2.246-0.696,3.621-0.696
			c1.186,0,2.251,0.165,3.195,0.491c0.944,0.324,1.779,0.771,2.502,1.34l-1.521,2.551c-0.378-0.273-0.896-0.563-1.559-0.861
			C149.096,119.611,148.317,119.46,147.426,119.46z"/>
	</g>
	
		<linearGradient id="path906_14_" gradientUnits="userSpaceOnUse" x1="-2747.4019" y1="392.5483" x2="-2747.8672" y2="392.087" gradientTransform="matrix(33.5276 0 0 -36.7392 92268.9219 14517.6875)">
		<stop  offset="0" style="stop-color:#DADADA"/>
		<stop  offset="0.3492" style="stop-color:#F1F1F1"/>
		<stop  offset="1" style="stop-color:#F0F0F0"/>
	</linearGradient>
	<path id="path906_6_" fill="url(#path906_14_)" d="M160.426,106.792c-4.639-1.373-10.647-1.179-15.184-0.396
		c0.782-5.027,0.881-11.331-0.197-16.457L160.426,106.792z"/>
</g>
<g id="Layer_5" xmlns:dc="http://purl.org/dc/elements/1.1/" xmlns:rdf="http://www.w3.org/1999/02/22-rdf-syntax-ns#" xmlns:cc="http://creativecommons.org/ns#" xmlns:svg="http://www.w3.org/2000/svg">
	<g id="g5024" display="none">
		<path id="path930_7_" display="inline" fill="#FFFFFF" d="M24.586,9.319v31.003v31.004v31.005v31.002h28.295h28.292h28.294h28.293
			v-31.002V71.326V40.322L109.467,9.319H81.174H52.882H24.586z"/>
		<g id="g1552_7_" transform="matrix(0.304171,0,0,0.297572,-36.704,-112.488)" display="inline">
			
				<linearGradient id="path1505_15_" gradientUnits="userSpaceOnUse" x1="-393362816" y1="-532773856" x2="-393359680" y2="-532769696" gradientTransform="matrix(1.1327 0 0 -1.1411 326879.4063 197363.5)">
				<stop  offset="0" style="stop-color:#000000;stop-opacity:0.0955"/>
				<stop  offset="1" style="stop-color:#000000;stop-opacity:0"/>
			</linearGradient>
			<path id="path1505_7_" fill="url(#path1505_15_)" fill-opacity="0.75" d="M198.363,417.374V520.55v103.172v103.18v103.172h91.779
				h91.784h91.785h91.777V726.903V623.724V520.55l-91.777-103.176h-91.785h-91.784H198.363z"/>
			
				<linearGradient id="path1538_15_" gradientUnits="userSpaceOnUse" x1="-391596896" y1="-533142720" x2="-391593760" y2="-533138560" gradientTransform="matrix(1.1496 0 0 -1.1562 331827.4063 200021.2188)">
				<stop  offset="0" style="stop-color:#000000;stop-opacity:0.0955"/>
				<stop  offset="1" style="stop-color:#000000;stop-opacity:0"/>
			</linearGradient>
			<path id="path1538_7_" fill="url(#path1538_15_)" fill-opacity="0.75" d="M195.633,416.001c0,138.934,0,277.874,0,416.804
				c124.201,0,248.4,0,372.604,0c0-104.446,0-208.883,0-313.32c-31.094-34.956-62.176-69.925-93.302-104.854
				c-93.102,0-186.2,0-279.299,0C195.633,414.913,195.633,415.827,195.633,416.001L195.633,416.001z"/>
			
				<linearGradient id="path1543_15_" gradientUnits="userSpaceOnUse" x1="-391538944" y1="-533063552" x2="-391535808" y2="-533059392" gradientTransform="matrix(1.1665 0 0 -1.1714 336789.2188 202684.2344)">
				<stop  offset="0" style="stop-color:#000000;stop-opacity:0.0955"/>
				<stop  offset="1" style="stop-color:#000000;stop-opacity:0"/>
			</linearGradient>
			<path id="path1543_7_" fill="url(#path1543_15_)" fill-opacity="0.75" d="M192.886,413.257c0,140.768,0,281.53,0,422.291
				c126.033,0,252.059,0,378.086,0c0-105.706,0-211.413,0-317.117c-31.598-35.522-63.197-71.052-94.827-106.546
				c-94.418,0-188.838,0-283.259,0C192.886,412.17,192.886,413.084,192.886,413.257z"/>
		</g>
		
			<linearGradient id="rect900_15_" gradientUnits="userSpaceOnUse" x1="-2785.9058" y1="416.9771" x2="-2786.5759" y2="416.1605" gradientTransform="matrix(134.1105 0 0 -146.957 373733.75 61304.7656)">
			<stop  offset="0" style="stop-color:#DADADA"/>
			<stop  offset="0.3492" style="stop-color:#F1F1F1"/>
			<stop  offset="1" style="stop-color:#F0F0F0"/>
		</linearGradient>
		
			<path id="rect900_7_" display="inline" fill="url(#rect900_15_)" stroke="#000000" stroke-width="1.2131" stroke-opacity="0.3648" d="
			M24.634,9.473v31.004v31.004v31.003v31.004h28.293H81.22h28.293h28.294v-31.004V71.481V40.477L109.514,9.473H81.221H52.927H24.634
			z"/>
		
			<linearGradient id="rect1558_6_" gradientUnits="userSpaceOnUse" x1="-2783.7881" y1="416.4126" x2="-2784.1985" y2="415.8188" gradientTransform="matrix(115.777 0 0 -132.803 322420.9688 55303.7383)">
			<stop  offset="0" style="stop-color:#4B6983"/>
			<stop  offset="1" style="stop-color:#9DB8D2;stop-opacity:0"/>
		</linearGradient>
		<path id="rect1558_5_" display="inline" fill="url(#rect1558_6_)" d="M32.138,15.435v112.07h97.702V35.79l-18.438-20.355H32.138z"
			/>
		
			<linearGradient id="path892_1_" gradientUnits="userSpaceOnUse" x1="-2785.9131" y1="410.0396" x2="-2785.845" y2="409.4598" gradientTransform="matrix(131.2444 0 0 -75.9907 365717.4375 31242.5449)">
			<stop  offset="0" style="stop-color:#445632"/>
			<stop  offset="1" style="stop-color:#007837;stop-opacity:0"/>
		</linearGradient>
		<path id="path892_5_" display="inline" fill="url(#path892_1_)" d="M83.489,62.53c9.359,2.408,27.458,19.925,4.771,19.82
			c-15.894-0.563-43.669-6.613-43.867-0.832c-0.198,5.78,14.574,2.766,54.716,13.269c40.456,10.584-23.56,10.518-4.112,15.527
			c19.446,5.016,39.873,1.674,44.332,10.975c4.459,9.299,0.426,4.994-6.033-1.437c-6.457-6.435-37.926,0.303-51.15-9.08
			c-13.23-9.384,29.393-7.813,13.302-14.493c-16.091-6.678-52.673,2.209-63.011-12.293c-10.618-14.892,24.449-7.71,37.509-6.493
			c13.06,1.216,31.451-3.464,6.684-11.554C73.748,64.811,80.225,66.05,83.489,62.53L83.489,62.53z"/>
		
			<linearGradient id="path1500_1_" gradientUnits="userSpaceOnUse" x1="-2786.6558" y1="416.6841" x2="-2785.7229" y2="415.8222" gradientTransform="matrix(131.7509 0 0 -134.6955 367131 56112.332)">
			<stop  offset="0" style="stop-color:#FFFFFF"/>
			<stop  offset="1" style="stop-color:#FFFFFF;stop-opacity:0"/>
		</linearGradient>
		<path id="path1500_7_" display="inline" fill="url(#path1500_1_)" d="M137.363,20.071l0.511,113.667H26.753L26.69,105.64
			c2.484,0.956,27.589-34.6,59.191-33.068C117.512,74.103,109.329,24.658,137.363,20.071z"/>
		<path id="path1231_5_" display="inline" fill="none" stroke="#314E6C" stroke-width="0.9762" d="M23.301,71.769l19.802,26.113"/>
		<path id="path1232_5_" display="inline" fill="none" stroke="#314E6C" stroke-width="2.0164" d="M49.242,100.289
			c0.002-2.061-1.667-3.729-3.727-3.729c-2.06-0.002-3.732,1.667-3.733,3.729c0,0.004,0,0.006,0,0.006
			c-0.003,2.063,1.667,3.731,3.727,3.731c2.06,0.002,3.731-1.666,3.733-3.729C49.242,100.292,49.242,100.292,49.242,100.289
			L49.242,100.289z"/>
		<path id="path1818_5_" display="inline" fill="none" stroke="#314E6C" stroke-width="2.0164" d="M25.493,68.696
			c0.003-2.062-1.666-3.733-3.727-3.735c-2.061,0-3.733,1.666-3.735,3.728c0,0.002,0,0.004,0,0.008c0,2.059,1.667,3.729,3.727,3.731
			c2.061,0.003,3.733-1.664,3.734-3.725C25.493,68.698,25.493,68.696,25.493,68.696z"/>
		
			<linearGradient id="path906_15_" gradientUnits="userSpaceOnUse" x1="-2748.2192" y1="394.5942" x2="-2749.0698" y2="393.751" gradientTransform="matrix(33.5276 0 0 -36.7392 92269.2188 14517.3438)">
			<stop  offset="0" style="stop-color:#DADADA"/>
			<stop  offset="0.3492" style="stop-color:#F1F1F1"/>
			<stop  offset="1" style="stop-color:#F0F0F0"/>
		</linearGradient>
		<path id="path906_7_" display="inline" fill="url(#path906_15_)" d="M137.808,40.477c-8.53-2.526-19.582-2.167-27.933-0.729
			c1.438-9.251,1.621-20.844-0.361-30.275L137.808,40.477z"/>
		<g id="g3664_5_" transform="matrix(3.25085,0,0,3.25085,75.5665,11.4934)" display="inline">
			
				<radialGradient id="path1934_2_" cx="-279.7742" cy="101.889" r="0.4358" fx="-280.0528" fy="101.8709" gradientTransform="matrix(6758.7207 0 0 -1243.9833 1890923.375 126764.4375)" gradientUnits="userSpaceOnUse">
				<stop  offset="0" style="stop-color:#000000;stop-opacity:0.3164"/>
				<stop  offset="0.5" style="stop-color:#000000;stop-opacity:0.0791"/>
				<stop  offset="1" style="stop-color:#000000;stop-opacity:0"/>
			</radialGradient>
			<path id="path1934_5_" fill="url(#path1934_2_)" d="M15.987,15.929c0-0.798-3.517-1.446-7.856-1.446
				c-4.338,0-7.854,0.648-7.854,1.446s3.517,1.446,7.854,1.446C12.471,17.375,15.987,16.727,15.987,15.929z"/>
			<path id="path2139_5_" fill="#565248" d="M3.795,13.405c2.136-3.506,9.357-12.014,11.172-12.44
				c1.784-0.419,1.498,0.66,0.963,1.513c-0.545,0.868-2.918,5.829-10.707,11.494C4.066,14.364,3.795,13.405,3.795,13.405z"/>
			<path id="path2140_5_" fill="#434343" d="M-0.202,16.372c0,0,5.434,1.3,5.872-1.721c0.439-3.022-1.681-1.563-2.585-1.493
				C1.823,13.203,0.582,14.511-0.202,16.372z"/>
			
				<linearGradient id="path2230_1_" gradientUnits="userSpaceOnUse" x1="-279.7057" y1="102.0614" x2="-279.5742" y2="101.9403" gradientTransform="matrix(3569.5732 0 0 -3522.095 998441.1875 359474.5)">
				<stop  offset="0" style="stop-color:#FFFFFF"/>
				<stop  offset="1" style="stop-color:#FFFFFF;stop-opacity:0"/>
			</linearGradient>
			<path id="path2230_5_" fill="url(#path2230_1_)" d="M7.704,8.662c1.218-1.406,5.827-6.655,7.068-7.219
				c1.215-0.552,1.341-0.137,1.164,0.284c-0.176,0.421-6.33,7.895-7.03,7.63C8.206,9.093,7.687,9.028,7.704,8.662z"/>
			
				<linearGradient id="path2141_1_" gradientUnits="userSpaceOnUse" x1="-279.6483" y1="102.017" x2="-279.3723" y2="101.7636" gradientTransform="matrix(2564.022 0 0 -2392.7239 717029.8125 244109.625)">
				<stop  offset="0" style="stop-color:#D6D6D6"/>
				<stop  offset="0.2577" style="stop-color:#EAEAEA"/>
				<stop  offset="0.7059" style="stop-color:#919191"/>
				<stop  offset="0.7335" style="stop-color:#D2D2D2"/>
				<stop  offset="1" style="stop-color:#A6A6A6"/>
			</linearGradient>
			<path id="path2141_5_" fill="url(#path2141_1_)" d="M3.89,12.893L7.416,8.43c0.395,0.857,2.746,1.396,2.381,1.808
				c-0.366,0.412-3.703,3.592-4.092,3.74C5.315,14.126,3.704,13.055,3.89,12.893z"/>
			
				<linearGradient id="path2247_1_" gradientUnits="userSpaceOnUse" x1="-279.5735" y1="101.8247" x2="-278.9919" y2="101.2706" gradientTransform="matrix(1872.5466 0 0 -998.2346 523514.375 101658.4844)">
				<stop  offset="0" style="stop-color:#FFFFFF"/>
				<stop  offset="1" style="stop-color:#FFFFFF;stop-opacity:0"/>
			</linearGradient>
			<path id="path2247_5_" fill="url(#path2247_1_)" d="M0.257,15.843c0,0,1.187-2.507,3.08-2.29c1.43,0.141,1.267,0.569,1.267,0.569
				S2.808,16.06,0.257,15.843z"/>
		</g>
		
			<rect id="rect1019_5_" x="29.056" y="81.604" display="inline" fill="#9F9F9F" fill-opacity="0.75" stroke="#C1C1C1" stroke-width="0.8816" width="6.41" height="6.409"/>
		<path id="path1557_5_" display="inline" fill="#267726" d="M75.721,65.797l-0.958-0.658c0,0,0.656-2.961,3.434-5.778
			c2.696-2.737,3.792-1.785,1.834,0.385c-1.076,1.316-0.358,3.947,0.358,3.026c0.72-0.92,4.432-2.237,3.354-1.052
			c-1.077,1.183-2.154,2.893-0.238,2.237c1.916-0.658,4.549-1.448,3.352-0.265c-1.196,1.183-1.077,1.579,0.479,0.789
			c1.557-0.789,2.754-0.264,1.916,0.394c-0.84,0.658-4.072,1.447-4.91,1.447C83.504,66.322,76.679,66.322,75.721,65.797z"/>
	</g>
	<g id="g5120" display="none">
		<path id="path930_5_" display="inline" fill="#FFFFFF" d="M84.709,86.58v18.217v18.218v18.217v18.217h16.625h16.623h16.625h16.623
			V141.23v-18.217v-18.217L134.583,86.58h-16.625h-16.623H84.709z"/>
		<g id="g1552_5_" transform="matrix(0.304171,0,0,0.297572,-36.704,-112.488)" display="inline">
			
				<linearGradient id="path1505_16_" gradientUnits="userSpaceOnUse" x1="-140845456" y1="-189953216" x2="-140844816" y2="-189952368" gradientTransform="matrix(1.1327 0 0 -1.1411 326879.4063 197363.5)">
				<stop  offset="0" style="stop-color:#000000;stop-opacity:0.0955"/>
				<stop  offset="1" style="stop-color:#000000;stop-opacity:0"/>
			</linearGradient>
			<path id="path1505_5_" fill="url(#path1505_16_)" fill-opacity="0.75" d="M397.325,673.692v60.627v60.614v60.621v60.618h53.925
				h53.925H559.1h53.928v-60.618v-60.621v-60.614L559.1,673.692h-53.925H451.25H397.325z"/>
			
				<linearGradient id="path1538_16_" gradientUnits="userSpaceOnUse" x1="-140831632" y1="-189934384" x2="-140830992" y2="-189933536" gradientTransform="matrix(1.1496 0 0 -1.1562 331827.4063 200021.2188)">
				<stop  offset="0" style="stop-color:#000000;stop-opacity:0.0955"/>
				<stop  offset="1" style="stop-color:#000000;stop-opacity:0"/>
			</linearGradient>
			<path id="path1538_5_" fill="url(#path1538_16_)" fill-opacity="0.75" d="M395.715,672.885c0,81.637,0,163.268,0,244.892
				c72.975,0,145.944,0,218.921,0c0-61.362,0-122.722,0-184.088c-18.262-20.537-36.53-41.088-54.817-61.605
				c-54.702,0-109.403,0-164.103,0C395.715,672.255,395.715,672.78,395.715,672.885z"/>
			
				<linearGradient id="path1543_16_" gradientUnits="userSpaceOnUse" x1="-140807568" y1="-189901680" x2="-140806928" y2="-189900832" gradientTransform="matrix(1.1665 0 0 -1.1714 336789.2188 202684.2344)">
				<stop  offset="0" style="stop-color:#000000;stop-opacity:0.0955"/>
				<stop  offset="1" style="stop-color:#000000;stop-opacity:0"/>
			</linearGradient>
			<path id="path1543_5_" fill="url(#path1543_16_)" fill-opacity="0.75" d="M394.107,671.283c0,82.701,0,165.408,0,248.108
				c74.044,0,148.092,0,222.141,0c0-62.111,0-124.208,0-186.319c-18.57-20.872-37.127-41.737-55.716-62.596
				c-55.479,0-110.951,0-166.425,0C394.107,670.64,394.107,671.172,394.107,671.283L394.107,671.283z"/>
		</g>
		
			<linearGradient id="rect900_16_" gradientUnits="userSpaceOnUse" x1="-2785.7324" y1="416.5024" x2="-2786.1265" y2="416.0223" gradientTransform="matrix(134.1105 0 0 -146.957 373733.75 61304.7656)">
			<stop  offset="0" style="stop-color:#DADADA"/>
			<stop  offset="0.3492" style="stop-color:#F1F1F1"/>
			<stop  offset="1" style="stop-color:#F0F0F0"/>
		</linearGradient>
		
			<path id="rect900_5_" display="inline" fill="url(#rect900_16_)" stroke="#000000" stroke-width="0.7127" stroke-opacity="0.3648" d="
			M84.738,86.669v18.216v18.218v18.217v18.217h16.623h16.624h16.624h16.623V141.32v-18.217v-18.218l-16.623-18.216h-16.624h-16.624
			H84.738z"/>
		
			<linearGradient id="rect1558_7_" gradientUnits="userSpaceOnUse" x1="-2783.6157" y1="415.813" x2="-2783.8574" y2="415.4635" gradientTransform="matrix(115.777 0 0 -132.803 322420.9688 55303.7383)">
			<stop  offset="0" style="stop-color:#4B6983"/>
			<stop  offset="1" style="stop-color:#9DB8D2;stop-opacity:0"/>
		</linearGradient>
		<path id="rect1558_3_" display="inline" fill="url(#rect1558_7_)" d="M89.147,90.173v65.847h57.404v-53.888l-10.834-11.959H89.147
			z"/>
		
			<linearGradient id="path892_2_" gradientUnits="userSpaceOnUse" x1="-2785.6348" y1="409.4233" x2="-2785.595" y2="409.083" gradientTransform="matrix(131.2444 0 0 -75.9907 365717.4375 31242.5449)">
			<stop  offset="0" style="stop-color:#445632"/>
			<stop  offset="1" style="stop-color:#007837;stop-opacity:0"/>
		</linearGradient>
		<path id="path892_3_" display="inline" fill="url(#path892_2_)" d="M119.319,117.844c5.498,1.415,16.133,11.707,2.803,11.644
			c-9.338-0.331-25.656-3.886-25.771-0.488c-0.116,3.396,8.563,1.625,32.146,7.797c23.771,6.221-13.843,6.182-2.418,9.123
			c11.428,2.944,23.428,0.984,26.047,6.447c2.621,5.463,0.252,2.938-3.545-0.844c-3.793-3.779-22.281,0.178-30.055-5.336
			c-7.771-5.514,17.268-4.592,7.814-8.514c-9.455-3.926-30.946,1.298-37.021-7.223c-6.236-8.75,14.366-4.531,22.04-3.815
			c7.673,0.714,18.478-2.035,3.927-6.788C113.595,119.183,117.4,119.91,119.319,117.844L119.319,117.844z"/>
		
			<linearGradient id="path1500_2_" gradientUnits="userSpaceOnUse" x1="-2786.0815" y1="416.0425" x2="-2785.5325" y2="415.5352" gradientTransform="matrix(131.7509 0 0 -134.6955 367131 56112.332)">
			<stop  offset="0" style="stop-color:#FFFFFF"/>
			<stop  offset="1" style="stop-color:#FFFFFF;stop-opacity:0"/>
		</linearGradient>
		<path id="path1500_5_" display="inline" fill="url(#path1500_2_)" d="M150.972,92.898l0.3,66.781H85.984l-0.039-16.508
			c1.462,0.562,16.212-20.327,34.779-19.43C139.309,124.644,134.5,95.593,150.972,92.898z"/>
		<path id="path1231_3_" display="inline" fill="none" stroke="#314E6C" stroke-width="0.5736" d="M83.956,123.271l11.634,15.343"/>
		<path id="path1232_3_" display="inline" fill="none" stroke="#314E6C" stroke-width="1.1847" d="M99.197,140.027
			c0.001-1.21-0.979-2.191-2.19-2.191s-2.188,0.979-2.188,2.188c0,0.002,0,0.004,0,0.004c-0.002,1.213,0.979,2.194,2.188,2.196
			c1.213,0,2.191-0.979,2.195-2.188C99.197,140.029,99.197,140.029,99.197,140.027z"/>
		<path id="path1818_3_" display="inline" fill="none" stroke="#314E6C" stroke-width="1.1847" d="M85.243,121.464
			c0.004-1.209-0.979-2.19-2.188-2.192c-1.212-0.001-2.194,0.979-2.195,2.188c0,0.002,0,0.002,0,0.004c0,1.211,0.979,2.19,2.19,2.19
			c1.21,0.005,2.191-0.979,2.193-2.188C85.243,121.47,85.243,121.468,85.243,121.464z"/>
		
			<linearGradient id="path906_16_" gradientUnits="userSpaceOnUse" x1="-2747.6987" y1="392.6147" x2="-2748.1992" y2="392.1184" gradientTransform="matrix(33.5276 0 0 -36.7392 92269.2188 14517.3438)">
			<stop  offset="0" style="stop-color:#DADADA"/>
			<stop  offset="0.3492" style="stop-color:#F1F1F1"/>
			<stop  offset="1" style="stop-color:#F0F0F0"/>
		</linearGradient>
		<path id="path906_5_" display="inline" fill="url(#path906_16_)" d="M151.232,104.885c-5.012-1.482-11.506-1.272-16.411-0.427
			c0.848-5.438,0.952-12.246-0.212-17.789L151.232,104.885z"/>
		<g id="g3664_3_" transform="matrix(3.25085,0,0,3.25085,75.5665,11.4934)" display="inline">
			
				<radialGradient id="path1934_4_" cx="-279.773" cy="101.8755" r="0.2566" fx="-279.9368" fy="101.8648" gradientTransform="matrix(6758.7207 0 0 -1243.9833 1890923.375 126764.4375)" gradientUnits="userSpaceOnUse">
				<stop  offset="0" style="stop-color:#000000;stop-opacity:0.3164"/>
				<stop  offset="0.5" style="stop-color:#000000;stop-opacity:0.0791"/>
				<stop  offset="1" style="stop-color:#000000;stop-opacity:0"/>
			</radialGradient>
			<path id="path1934_3_" fill="url(#path1934_4_)" d="M21.42,32.849c0-0.469-2.066-0.85-4.616-0.85
				c-2.548,0-4.614,0.381-4.614,0.85c0,0.47,2.066,0.849,4.614,0.849C19.354,33.698,21.42,33.319,21.42,32.849z"/>
			<path id="path2139_3_" fill="#565248" d="M14.256,31.366c1.255-2.06,5.497-7.058,6.564-7.309c1.048-0.246,0.88,0.388,0.566,0.889
				c-0.32,0.51-1.715,3.425-6.291,6.753C14.416,31.93,14.256,31.366,14.256,31.366z"/>
			<path id="path2140_3_" fill="#434343" d="M11.908,33.109c0,0,3.193,0.764,3.45-1.011c0.258-1.776-0.987-0.919-1.519-0.877
				C13.098,31.248,12.368,32.016,11.908,33.109z"/>
			
				<linearGradient id="path2230_2_" gradientUnits="userSpaceOnUse" x1="-279.7036" y1="102.0551" x2="-279.6169" y2="101.9753" gradientTransform="matrix(3569.5732 0 0 -3522.095 998441.1875 359474.5)">
				<stop  offset="0" style="stop-color:#FFFFFF"/>
				<stop  offset="1" style="stop-color:#FFFFFF;stop-opacity:0"/>
			</linearGradient>
			<path id="path2230_3_" fill="url(#path2230_2_)" d="M16.553,28.58c0.715-0.827,3.423-3.91,4.153-4.242
				c0.713-0.325,0.788-0.08,0.684,0.167s-3.72,4.638-4.131,4.483C16.848,28.833,16.543,28.795,16.553,28.58z"/>
			
				<linearGradient id="path2141_2_" gradientUnits="userSpaceOnUse" x1="-279.6443" y1="102.0092" x2="-279.5033" y2="101.8797" gradientTransform="matrix(2564.022 0 0 -2392.7239 717029.8125 244109.625)">
				<stop  offset="0" style="stop-color:#D6D6D6"/>
				<stop  offset="0.2577" style="stop-color:#EAEAEA"/>
				<stop  offset="0.7059" style="stop-color:#919191"/>
				<stop  offset="0.7335" style="stop-color:#D2D2D2"/>
				<stop  offset="1" style="stop-color:#A6A6A6"/>
			</linearGradient>
			<path id="path2141_3_" fill="url(#path2141_2_)" d="M14.313,31.066l2.071-2.623c0.232,0.503,1.614,0.82,1.399,1.062
				c-0.215,0.242-2.176,2.11-2.404,2.197C15.15,31.789,14.202,31.161,14.313,31.066z"/>
			
				<linearGradient id="path2247_2_" gradientUnits="userSpaceOnUse" x1="-279.5671" y1="101.8067" x2="-279.2249" y2="101.4807" gradientTransform="matrix(1872.5466 0 0 -998.2346 523514.375 101658.4844)">
				<stop  offset="0" style="stop-color:#FFFFFF"/>
				<stop  offset="1" style="stop-color:#FFFFFF;stop-opacity:0"/>
			</linearGradient>
			<path id="path2247_3_" fill="url(#path2247_2_)" d="M12.178,32.798c0,0,0.698-1.472,1.81-1.346
				c0.84,0.083,0.744,0.334,0.744,0.334S13.677,32.926,12.178,32.798z"/>
		</g>
		
			<rect id="rect1019_3_" x="87.336" y="129.051" display="inline" fill="#9F9F9F" fill-opacity="0.75" stroke="#C1C1C1" stroke-width="0.518" width="3.768" height="3.765"/>
		<path id="path1557_3_" display="inline" fill="#267726" d="M114.754,119.762l-0.563-0.386c0,0,0.388-1.74,2.019-3.396
			c1.586-1.607,2.229-1.05,1.078,0.227c-0.636,0.773-0.211,2.317,0.211,1.777s2.604-1.314,1.969-0.618
			c-0.633,0.695-1.264,1.7-0.139,1.313c1.125-0.389,2.672-0.854,1.967-0.155c-0.699,0.697-0.633,0.931,0.285,0.468
			c0.912-0.468,1.615-0.156,1.123,0.229c-0.492,0.385-2.392,0.85-2.884,0.85C119.327,120.072,115.316,120.072,114.754,119.762z"/>
	</g>
	
		<radialGradient id="path1934_6_" cx="-2816.3311" cy="318.4604" r="0.5129" fx="-2816.6589" fy="318.4391" gradientTransform="matrix(-60.5169 0 0 -11.1385 -170391.0625 3708.4331)" gradientUnits="userSpaceOnUse">
		<stop  offset="0" style="stop-color:#000000;stop-opacity:0.3164"/>
		<stop  offset="0.5" style="stop-color:#000000;stop-opacity:0.0791"/>
		<stop  offset="1" style="stop-color:#000000;stop-opacity:0"/>
	</radialGradient>
	<path id="path1934_1_" fill="url(#path1934_6_)" d="M44.542,166.974c17.151,0,31.055-2.561,31.055-5.719
		c0-3.154-13.904-5.715-31.055-5.715c-17.154,0-31.058,2.561-31.058,5.715C13.484,164.414,27.388,166.974,44.542,166.974z"/>
	
		<linearGradient id="path5229_1_" gradientUnits="userSpaceOnUse" x1="-839.5952" y1="1000.0728" x2="-820.3396" y2="944.15" gradientTransform="matrix(1 0 0 1 876.6406 -851.7109)">
		<stop  offset="0" style="stop-color:#FFA545;stop-opacity:0.76"/>
		<stop  offset="1" style="stop-color:#D04B00"/>
	</linearGradient>
	<path id="path5229" fill="url(#path5229_1_)" stroke="#565248" stroke-miterlimit="10" d="M16.646,87.521
		c-4.743,9.698-7.656,27.538-2.679,38.057c8.686,18.355,30.607,26.193,48.961,17.51l8.02,16.947l8.552-19.397l8.549-19.398
		l-20.421-5.688l-20.421-5.694l7.661,16.192c-8.943,4.229-19.622,0.41-23.853-8.533c-4.232-8.938,2.049-25.77,10.99-29.999
		L16.646,87.521z"/>
</g>
</svg>
