<?xml version="1.0" encoding="UTF-8" standalone="no"?>
<!-- Created with Inkscape (http://www.inkscape.org/) -->

<svg
   xmlns:dc="http://purl.org/dc/elements/1.1/"
   xmlns:cc="http://creativecommons.org/ns#"
   xmlns:rdf="http://www.w3.org/1999/02/22-rdf-syntax-ns#"
   xmlns:svg="http://www.w3.org/2000/svg"
   xmlns="http://www.w3.org/2000/svg"
   version="1.1"
   width="167.08299"
   height="168.58501"
   viewBox="0 0 167.083 168.585"
   id="Layer_6"
   xml:space="preserve"><metadata
   id="metadata6399"><rdf:RDF><cc:Work
       rdf:about=""><dc:format>image/svg+xml</dc:format><dc:type
         rdf:resource="http://purl.org/dc/dcmitype/StillImage" /><dc:title></dc:title></cc:Work></rdf:RDF></metadata><defs
   id="defs6397" />
<g
   id="g6341">
	
		<linearGradient
   x1="-572.31738"
   y1="421.11429"
   x2="-572.2536"
   y2="420.5705"
   id="path892_1_"
   gradientUnits="userSpaceOnUse"
   gradientTransform="matrix(131.2444,0,0,-75.9907,75198.984,32093.9)">
		<stop
   id="stop6344"
   style="stop-color:#445632;stop-opacity:1"
   offset="0" />
		<stop
   id="stop6346"
   style="stop-color:#007837;stop-opacity:0"
   offset="1" />
	</linearGradient>
	<path
   d="m 87.168,73.505 c 8.775,2.258 25.75,18.686 4.473,18.586 C 76.737,91.564 50.69,85.89 50.504,91.312 c -0.186,5.422 13.666,2.594 51.313,12.443 37.939,9.926 -22.096,9.859 -3.857,14.561 18.236,4.703 37.393,1.57 41.574,10.293 4.182,8.721 0.4,4.684 -5.658,-1.348 -6.055,-6.033 -35.564,0.285 -47.971,-8.516 -12.408,-8.799 27.561,-7.328 12.473,-13.59 -15.09,-6.264 -49.396,2.07 -59.091,-11.529 -9.957,-13.965 22.929,-7.23 35.175,-6.09 12.248,1.141 29.496,-3.248 6.27,-10.834 -2.701,-1.058 3.373,0.104 6.436,-3.197 z"
   id="path892_2_"
   style="fill:url(#path892_1_)" />
	
		<linearGradient
   x1="-572.9707"
   y1="422.89551"
   x2="-572.09473"
   y2="422.08621"
   id="path1500_1_"
   gradientUnits="userSpaceOnUse"
   gradientTransform="matrix(131.7509,0,0,-134.6955,75485.57,56964.359)">
		<stop
   id="stop6350"
   style="stop-color:#ffffff;stop-opacity:1"
   offset="0" />
		<stop
   id="stop6352"
   style="stop-color:#ffffff;stop-opacity:0"
   offset="1" />
	</linearGradient>
	<path
   d="m 137.689,33.688 0.479,106.597 H 33.961 l -0.06,-26.35 c 2.33,0.896 25.873,-32.447 55.509,-31.012 29.664,1.435 21.988,-44.934 48.279,-49.235 z"
   id="path1500_9_"
   style="fill:url(#path1500_1_)" />
	<path
   d="m 30.724,82.169 18.57,24.488"
   id="path1231_2_"
   style="fill:none;stroke:#314e6c;stroke-width:0.91549999" />
	
		<path
   d="m 55.051,108.915 c 0.002,-1.932 -1.563,-3.5 -3.495,-3.5 -1.932,-0.002 -3.5,1.563 -3.501,3.494 0,0.002 0,0.004 0,0.006 -0.003,1.932 1.563,3.502 3.495,3.502 1.932,0.002 3.499,-1.563 3.501,-3.494 0,-0.004 0,-0.004 0,-0.008 z"
   id="path1232_2_"
   style="fill:none;stroke:#314e6c;stroke-width:1.89090002" />
	
		<path
   d="m 32.779,79.288 c 0.003,-1.934 -1.563,-3.502 -3.495,-3.504 -1.932,0 -3.5,1.563 -3.502,3.496 0,0.002 0,0.004 0,0.008 -0.001,1.93 1.563,3.498 3.495,3.5 1.932,0.002 3.501,-1.563 3.502,-3.494 0,-0.004 0,-0.006 0,-0.006 z"
   id="path1818_2_"
   style="fill:none;stroke:#314e6c;stroke-width:1.89090002" />
	<g
   transform="matrix(3.25085,0,0,3.25085,75.5665,11.4934)"
   id="g3664_2_">
		
			<radialGradient
   cx="-198.3343"
   cy="120.3528"
   r="0.3962"
   fx="-198.5876"
   fy="120.3363"
   id="path1934_1_"
   gradientUnits="userSpaceOnUse"
   gradientTransform="matrix(60.5169,0,0,-11.1385,12011.47,1359.8412)">
			<stop
   id="stop6360"
   style="stop-color:#000000;stop-opacity:0.31639999"
   offset="0" />
			<stop
   id="stop6362"
   style="stop-color:#000000;stop-opacity:0.0791"
   offset="0.5" />
			<stop
   id="stop6364"
   style="stop-color:#000000;stop-opacity:0"
   offset="1" />
		</radialGradient>
		
			<path
   d="m 16.276,19.291 c 0,-0.749 -3.298,-1.356 -7.366,-1.356 -4.068,0 -7.366,0.607 -7.366,1.356 0,0.749 3.298,1.356 7.366,1.356 4.068,0 7.366,-0.608 7.366,-1.356 z"
   id="path1934_6_"
   style="fill:url(#path1934_1_)" />
		<path
   d="M 4.841,16.923 C 6.845,13.635 13.616,5.657 15.318,5.257 16.991,4.864 16.723,5.876 16.22,6.676 15.71,7.491 13.484,12.143 6.18,17.456 5.096,17.823 4.841,16.923 4.841,16.923 z"
   id="path2139_2_"
   style="fill:#565248" />
		<path
   d="m 1.093,19.706 c 0,0 5.096,1.219 5.506,-1.614 0.412,-2.834 -1.576,-1.465 -2.424,-1.4 -1.182,0.043 -2.347,1.269 -3.082,3.014 z"
   id="path2140_2_"
   style="fill:#434343" />
		
			<linearGradient
   x1="-196.7961"
   y1="124.5296"
   x2="-196.65331"
   y2="124.3981"
   id="path2230_1_"
   gradientUnits="userSpaceOnUse"
   gradientTransform="matrix(31.9616,0,0,-31.5365,6301.1826,3935.3149)">
			<stop
   id="stop6370"
   style="stop-color:#ffffff;stop-opacity:1"
   offset="0" />
			<stop
   id="stop6372"
   style="stop-color:#ffffff;stop-opacity:0"
   offset="1" />
		</linearGradient>
		<path
   d="M 8.508,12.476 C 9.65,11.158 13.972,6.235 15.137,5.706 16.276,5.188 16.394,5.578 16.229,5.972 16.063,6.367 10.292,13.375 9.636,13.128 8.978,12.88 8.492,12.819 8.508,12.476 z"
   id="path2230_2_"
   style="fill:url(#path2230_1_)" />
		
			<linearGradient
   x1="-195.44141"
   y1="123.4565"
   x2="-195.1808"
   y2="123.2171"
   id="path2141_1_"
   gradientUnits="userSpaceOnUse"
   gradientTransform="matrix(22.958,0,0,-21.4242,4493.6318,2659.2437)">
			<stop
   id="stop6376"
   style="stop-color:#d6d6d6;stop-opacity:1"
   offset="0" />
			<stop
   id="stop6378"
   style="stop-color:#eaeaea;stop-opacity:1"
   offset="0.2577" />
			<stop
   id="stop6380"
   style="stop-color:#919191;stop-opacity:1"
   offset="0.70590001" />
			<stop
   id="stop6382"
   style="stop-color:#d2d2d2;stop-opacity:1"
   offset="0.7335" />
			<stop
   id="stop6384"
   style="stop-color:#a6a6a6;stop-opacity:1"
   offset="1" />
		</linearGradient>
		<path
   d="m 4.931,16.444 3.306,-4.186 c 0.371,0.804 2.575,1.309 2.233,1.695 C 10.127,14.339 6.997,17.321 6.633,17.46 6.267,17.6 4.756,16.596 4.931,16.444 z"
   id="path2141_2_"
   style="fill:url(#path2141_1_)" />
		
			<linearGradient
   x1="-193.73959"
   y1="118.842"
   x2="-193.19341"
   y2="118.3217"
   id="path2247_1_"
   gradientUnits="userSpaceOnUse"
   gradientTransform="matrix(16.7666,0,0,-8.9381,3249.2285,1079.1637)">
			<stop
   id="stop6388"
   style="stop-color:#ffffff;stop-opacity:1"
   offset="0" />
			<stop
   id="stop6390"
   style="stop-color:#ffffff;stop-opacity:0"
   offset="1" />
		</linearGradient>
		<path
   d="m 1.524,19.21 c 0,0 1.113,-2.351 2.888,-2.148 1.341,0.133 1.188,0.534 1.188,0.534 0,0 -1.683,1.818 -4.076,1.614 z"
   id="path2247_2_"
   style="fill:url(#path2247_1_)" />
	</g>
	
		<rect
   width="6.0110002"
   height="6.0100002"
   x="36.119999"
   y="91.393997"
   id="rect1019_2_"
   style="fill:#9f9f9f;fill-opacity:0.75;stroke:#c1c1c1;stroke-width:0.82669997" />
	<path
   d="m 79.881,76.569 -0.896,-0.617 c 0,0 0.615,-2.777 3.219,-5.42 2.529,-2.566 3.557,-1.674 1.721,0.361 -1.01,1.234 -0.336,3.701 0.336,2.838 0.674,-0.863 4.156,-2.098 3.145,-0.986 -1.01,1.109 -2.02,2.713 -0.225,2.098 1.797,-0.617 4.268,-1.357 3.145,-0.248 -1.123,1.109 -1.012,1.48 0.449,0.74 1.459,-0.74 2.582,-0.248 1.797,0.369 -0.787,0.617 -3.818,1.357 -4.604,1.357 -0.788,0 -7.189,0 -8.087,-0.492 z"
   id="path1557_2_"
   style="fill:#267726" />
</g>
</svg>