<?xml version="1.0" encoding="utf-8"?>
<!-- Generator: Adobe Illustrator 15.0.0, SVG Export Plug-In . SVG Version: 6.00 Build 0)  -->
<!DOCTYPE svg PUBLIC "-//W3C//DTD SVG 1.1//EN" "http://www.w3.org/Graphics/SVG/1.1/DTD/svg11.dtd">
<svg version="1.1"
	 id="Layer_3" xmlns:dc="http://purl.org/dc/elements/1.1/" xmlns:rdf="http://www.w3.org/1999/02/22-rdf-syntax-ns#" xmlns:cc="http://creativecommons.org/ns#" xmlns:svg="http://www.w3.org/2000/svg"
	 xmlns="http://www.w3.org/2000/svg" xmlns:xlink="http://www.w3.org/1999/xlink" x="0px" y="0px" width="167.083px"
	 height="168.585px" viewBox="0 0 167.083 168.585" enable-background="new 0 0 167.083 168.585" xml:space="preserve">
<g id="g5681">
	
		<radialGradient id="path1934_2_" cx="-3368.5601" cy="98.2163" r="0.9213" gradientTransform="matrix(80.8626 0 0 -8.0863 272475.125 949.075)" gradientUnits="userSpaceOnUse">
		<stop  offset="0" style="stop-color:#000000;stop-opacity:0.1"/>
		<stop  offset="1" style="stop-color:#000000;stop-opacity:0"/>
	</radialGradient>
	<path id="path1934_1_" fill="url(#path1934_2_)" d="M84.59,168.585c41.14,0,74.492-6.143,74.492-13.719
		c0-7.566-33.354-13.708-74.492-13.708c-41.147,0-74.5,6.142-74.5,13.708C10.091,162.443,43.443,168.585,84.59,168.585z"/>
	<path id="path930_2_" fill="#FFFFFF" stroke="#000000" stroke-width="1.696" d="M28.354,18.569v31.155v31.154v31.154v31.155h28.431
		h28.432h28.431h28.431v-31.155V80.879V49.725l-28.431-31.156H85.217h-28.43H28.354z"/>
	<g id="g1552_2_" transform="matrix(0.304171,0,0,0.297572,-36.704,-112.488)">
		
			<linearGradient id="path1505_1_" gradientUnits="userSpaceOnUse" x1="-1536625.5" y1="1914033.375" x2="-1536601.125" y2="1914001.125" gradientTransform="matrix(3.724 0 0 3.8346 326052.125 195942.0938)">
			<stop  offset="0" style="stop-color:#000000;stop-opacity:0.0955"/>
			<stop  offset="1" style="stop-color:#000000;stop-opacity:0"/>
		</linearGradient>
		<path id="path1505_2_" fill="url(#path1505_1_)" fill-opacity="0.75" d="M210.732,448.499v103.678v103.679V759.53v103.681h92.228
			h92.23h92.23h92.23V759.53V655.854V552.176l-92.23-103.678h-92.23h-92.23H210.732L210.732,448.499z"/>
		
			<linearGradient id="path1538_1_" gradientUnits="userSpaceOnUse" x1="-1536674.5" y1="1914064.875" x2="-1536650.125" y2="1914032.625" gradientTransform="matrix(3.7795 0 0 3.8854 330972.5625 198572.3281)">
			<stop  offset="0" style="stop-color:#000000;stop-opacity:0.0955"/>
			<stop  offset="1" style="stop-color:#000000;stop-opacity:0"/>
		</linearGradient>
		<path id="path1538_2_" fill="url(#path1538_1_)" fill-opacity="0.75" d="M207.988,447.12c0,139.611,0,279.224,0,418.831
			c124.806,0,249.612,0,374.414,0c0-104.948,0-209.894,0-314.845c-31.239-35.126-62.474-70.264-93.752-105.363
			c-93.554,0-187.11,0-280.66,0C207.988,446.026,207.988,446.945,207.988,447.12z"/>
		
			<linearGradient id="path1543_1_" gradientUnits="userSpaceOnUse" x1="-1536718.75" y1="1914092.75" x2="-1536694.375" y2="1914060.5" gradientTransform="matrix(3.8351 0 0 3.9364 335904.25 201207.375)">
			<stop  offset="0" style="stop-color:#000000;stop-opacity:0.0955"/>
			<stop  offset="1" style="stop-color:#000000;stop-opacity:0"/>
		</linearGradient>
		<path id="path1543_2_" fill="url(#path1543_1_)" fill-opacity="0.75" d="M205.232,444.365c0,141.448,0,282.898,0,424.343
			c126.643,0,253.284,0,379.928,0c0-106.221,0-212.439,0-318.66c-31.756-35.693-63.502-71.397-95.29-107.06
			c-94.88,0-189.758,0-284.638,0C205.232,443.269,205.232,444.188,205.232,444.365z"/>
	</g>
	
		<linearGradient id="rect900_1_" gradientUnits="userSpaceOnUse" x1="-2232.4243" y1="26.4307" x2="-2233.0984" y2="27.2524" gradientTransform="matrix(134.1105 0 0 146.957 299510.3125 -3848.0566)">
		<stop  offset="0" style="stop-color:#DADADA"/>
		<stop  offset="0.3492" style="stop-color:#F1F1F1"/>
		<stop  offset="1" style="stop-color:#F0F0F0"/>
	</linearGradient>
	<path id="rect900_2_" fill="url(#rect900_1_)" stroke="#000000" stroke-width="1.219" stroke-opacity="0.3648" d="M28.401,18.724
		v31.155v31.155v31.154v31.156h28.432h28.431h28.431h28.431v-31.156V81.034V49.879l-28.431-31.155H85.264H56.833H28.401z"/>
	
		<linearGradient id="rect1558_1_" gradientUnits="userSpaceOnUse" x1="-2230.7017" y1="26.8428" x2="-2231.1147" y2="27.4401" gradientTransform="matrix(115.777 0 0 132.803 258390.5938 -3552.9023)">
		<stop  offset="0" style="stop-color:#4B6983"/>
		<stop  offset="1" style="stop-color:#9DB8D2;stop-opacity:0"/>
	</linearGradient>
	<path id="rect1558" fill="url(#rect1558_1_)" d="M35.941,24.716v112.616h98.179V45.169L115.59,24.716H35.941z"/>
	<g>
		
			<linearGradient id="SVGID_1_" gradientUnits="userSpaceOnUse" x1="-381.4111" y1="518.4341" x2="-375.1362" y2="488.9134" gradientTransform="matrix(1 0 0 1 438.3203 -425.8555)">
			<stop  offset="0" style="stop-color:#8DA5BD"/>
			<stop  offset="1" style="stop-color:#460073"/>
		</linearGradient>
		<path fill="url(#SVGID_1_)" d="M57.667,79.671c-1.032-0.298-2.001-0.692-2.911-1.181c-0.91-0.488-1.703-1.063-2.381-1.729
			c-0.678-0.664-1.215-1.438-1.607-2.319c-0.394-0.882-0.59-1.853-0.59-2.911c0-2.849,0.84-5.019,2.524-6.513
			c1.681-1.492,4.124-2.238,7.326-2.238c0.896,0,1.777,0.068,2.646,0.203c0.868,0.137,1.682,0.313,2.442,0.529
			c0.76,0.218,1.451,0.462,2.076,0.732c0.624,0.271,1.166,0.544,1.628,0.814l-2.076,4.315c-0.542-0.326-1.404-0.691-2.585-1.099
			c-1.181-0.406-2.584-0.61-4.212-0.61c-0.461,0-0.931,0.053-1.405,0.162c-0.475,0.107-0.909,0.29-1.302,0.547
			c-0.393,0.257-0.712,0.595-0.957,1.014c-0.244,0.418-0.366,0.926-0.366,1.52c0,0.378,0.054,0.737,0.163,1.076
			c0.107,0.337,0.317,0.669,0.631,0.993c0.311,0.324,0.732,0.63,1.262,0.917c0.529,0.287,1.214,0.553,2.055,0.8l2.605,0.737
			c2.361,0.656,4.186,1.644,5.475,2.959c1.289,1.316,1.933,3.128,1.933,5.434c0,1.357-0.265,2.579-0.793,3.663
			c-0.529,1.086-1.255,2.017-2.178,2.79c-0.922,0.771-2.008,1.369-3.256,1.789c-1.249,0.421-2.592,0.631-4.029,0.631
			c-1.33,0-2.559-0.101-3.684-0.305c-1.126-0.203-2.117-0.44-2.972-0.712s-1.561-0.542-2.116-0.814
			c-0.556-0.271-0.931-0.476-1.12-0.61l2.076-4.52c0.326,0.189,0.753,0.395,1.282,0.612c0.529,0.216,1.125,0.427,1.791,0.63
			c0.665,0.203,1.405,0.373,2.219,0.509c0.814,0.138,1.669,0.204,2.564,0.204c0.488,0,0.997-0.063,1.526-0.184
			c0.529-0.123,1.004-0.326,1.425-0.611c0.42-0.285,0.766-0.637,1.038-1.059c0.271-0.42,0.407-0.941,0.407-1.567
			c0-0.353-0.054-0.712-0.164-1.078c-0.108-0.366-0.312-0.719-0.61-1.059c-0.299-0.338-0.699-0.657-1.201-0.957
			c-0.503-0.298-1.16-0.555-1.974-0.772L57.667,79.671z"/>
		
			<linearGradient id="SVGID_2_" gradientUnits="userSpaceOnUse" x1="-359.6025" y1="517.2036" x2="-353.1317" y2="486.7607" gradientTransform="matrix(1 0 0 1 438.3203 -425.8555)">
			<stop  offset="0" style="stop-color:#8DA5BD"/>
			<stop  offset="1" style="stop-color:#460073"/>
		</linearGradient>
		<path fill="url(#SVGID_2_)" d="M84.917,85.369l6.371-21.939h5.78l-9.409,28.615h-5.661l-9.763-28.615h6.107L84.917,85.369z"/>
		
			<linearGradient id="SVGID_3_" gradientUnits="userSpaceOnUse" x1="-330.04" y1="518.1929" x2="-323.7819" y2="488.7505" gradientTransform="matrix(1 0 0 1 438.3203 -425.8555)">
			<stop  offset="0" style="stop-color:#8DA5BD"/>
			<stop  offset="1" style="stop-color:#460073"/>
		</linearGradient>
		<path fill="url(#SVGID_3_)" d="M112.575,67.623c-1.33,0-2.482,0.258-3.461,0.772c-0.976,0.516-1.777,1.228-2.4,2.137
			c-0.623,0.909-1.092,1.981-1.403,3.216c-0.313,1.235-0.468,2.571-0.468,4.01s0.142,2.761,0.426,3.969
			c0.286,1.208,0.74,2.245,1.363,3.114c0.625,0.867,1.426,1.554,2.402,2.056c0.977,0.503,2.143,0.754,3.502,0.754
			c0.785,0,1.504-0.056,2.155-0.163s1.248-0.229,1.791-0.365v-7.125h-5.251v-4.721h10.339v15.631
			c-0.299,0.137-0.72,0.305-1.262,0.51c-0.543,0.203-1.216,0.4-2.017,0.59c-0.799,0.189-1.744,0.354-2.828,0.488
			c-1.086,0.133-2.319,0.202-3.703,0.202c-2.09,0-3.936-0.338-5.535-1.017c-1.602-0.68-2.945-1.656-4.03-2.932
			c-1.086-1.275-1.905-2.836-2.462-4.682s-0.834-3.949-0.834-6.309c0-2.199,0.285-4.214,0.854-6.044
			c0.57-1.832,1.41-3.413,2.524-4.743c1.113-1.329,2.489-2.36,4.132-3.092c1.643-0.733,3.549-1.099,5.719-1.099
			c1.871,0,3.555,0.258,5.047,0.773c1.492,0.515,2.809,1.22,3.947,2.116l-2.4,4.03c-0.598-0.434-1.417-0.889-2.463-1.364
			C115.213,67.86,113.986,67.623,112.575,67.623z"/>
	</g>
	<path id="path1231_5_" fill="none" stroke="#314E6C" stroke-width="0.8278" d="M43.488,76.008L60.28,53.864"/>
	<path id="path1232_5_" fill="none" stroke="#314E6C" stroke-width="1.7099" d="M38.283,78.049c0,0.004,0,0.004,0,0.007
		c0.001,1.748,1.419,3.163,3.166,3.16c1.746,0,3.162-1.417,3.161-3.166c0,0,0-0.001,0-0.005c-0.002-1.746-1.42-3.162-3.166-3.16
		C39.697,74.885,38.281,76.302,38.283,78.049L38.283,78.049z"/>
	<path id="path1818_5_" fill="none" stroke="#314E6C" stroke-width="1.7099" d="M58.423,51.265c0,1.749,1.418,3.162,3.166,3.16
		c1.747-0.002,3.161-1.419,3.161-3.165c0-0.003,0-0.005,0-0.007c-0.002-1.75-1.42-3.162-3.168-3.162
		c-1.748,0.002-3.163,1.42-3.16,3.167C58.422,51.259,58.422,51.26,58.423,51.265z"/>
	
		<rect id="rect1019_5_" x="49.118" y="63.053" fill="#9F9F9F" fill-opacity="0.75" stroke="#C1C1C1" stroke-width="0.7476" width="5.435" height="5.435"/>
	<g id="layer1_1_">
		<g id="g1370_1_" transform="translate(-14,-14)">
			
				<linearGradient id="path1349_2_" gradientUnits="userSpaceOnUse" x1="-2227.8623" y1="-2080.0771" x2="-2237.8901" y2="-2138.5566" gradientTransform="matrix(0.5815 -0.5815 -0.5815 -0.5815 133.3161 -2385.5337)">
				<stop  offset="0" style="stop-color:#179807"/>
				<stop  offset="1" style="stop-color:#0B5102"/>
			</linearGradient>
			<path id="path1349_1_" fill="url(#path1349_2_)" d="M37.266,144.546c0.074,0.801,0.753,1.416,1.562,1.404h45.373
				c0.414,0.004,0.814-0.158,1.106-0.453c0.294-0.293,0.458-0.69,0.456-1.105v-9.756c0.002-0.411-0.162-0.813-0.456-1.106
				c-0.292-0.295-0.691-0.456-1.106-0.454H38.828c-0.415-0.002-0.815,0.159-1.107,0.454c-0.294,0.294-0.458,0.69-0.455,1.106v9.756
				C37.262,144.445,37.262,144.494,37.266,144.546z"/>
			
				<linearGradient id="path1468_2_" gradientUnits="userSpaceOnUse" x1="-2227.9419" y1="-2080.6455" x2="-2237.8416" y2="-2138.1135" gradientTransform="matrix(0.5815 -0.5815 -0.5815 -0.5815 133.322 -2385.5337)">
				<stop  offset="0" style="stop-color:#24F00A"/>
				<stop  offset="1" style="stop-color:#0B6400"/>
			</linearGradient>
			<path id="path1468_1_" fill="url(#path1468_2_)" d="M38.642,134.882c-0.128,0.222-0.192,0.473-0.181,0.726v7.813
				c0.003,0.734,0.597,1.332,1.333,1.334h16.479h10.48h16.479c0.734-0.002,1.329-0.6,1.332-1.334v-7.813
				c-0.002-0.735-0.598-1.329-1.332-1.332H66.754H56.273h-16.48C39.332,134.264,38.897,134.494,38.642,134.882z"/>
			
				<linearGradient id="path1472_2_" gradientUnits="userSpaceOnUse" x1="-2230.5122" y1="-2095.687" x2="-2236.2197" y2="-2128.6091" gradientTransform="matrix(0.5815 -0.5815 -0.5815 -0.5815 133.3171 -2385.5337)">
				<stop  offset="0" style="stop-color:#B0FFA5"/>
				<stop  offset="1" style="stop-color:#26BC14;stop-opacity:0.4471"/>
			</linearGradient>
			<path id="path1472_1_" fill="url(#path1472_2_)" d="M39.46,135.458c-0.021,0.047-0.031,0.098-0.031,0.15v7.814
				c0.004,0.065,0.025,0.128,0.063,0.182c0.033,0.066,0.087,0.118,0.151,0.152c0.048,0.021,0.1,0.031,0.151,0.031h43.439
				c0.064-0.004,0.128-0.023,0.182-0.063c0.065-0.032,0.118-0.087,0.153-0.149c0.02-0.05,0.029-0.1,0.028-0.152v-7.814
				c-0.003-0.064-0.022-0.127-0.06-0.184c-0.034-0.063-0.088-0.119-0.151-0.151c-0.049-0.019-0.101-0.03-0.152-0.028h-43.44
				c-0.064,0.002-0.126,0.021-0.182,0.058C39.547,135.337,39.494,135.39,39.46,135.458z"/>
		</g>
	</g>
	
		<linearGradient id="path906_1_" gradientUnits="userSpaceOnUse" x1="-2202.1704" y1="44.6445" x2="-2203.0266" y2="45.4933" gradientTransform="matrix(33.5276 0 0 36.7392 73965.7813 -1610.6965)">
		<stop  offset="0" style="stop-color:#DADADA"/>
		<stop  offset="0.3492" style="stop-color:#F1F1F1"/>
		<stop  offset="1" style="stop-color:#F0F0F0"/>
	</linearGradient>
	<path id="path906_2_" fill="url(#path906_1_)" d="M142.127,49.879c-8.572-2.537-19.681-2.178-28.069-0.731
		c1.448-9.296,1.629-20.946-0.363-30.424L142.127,49.879z"/>
</g>
</svg>
